<svg xmlns="http://www.w3.org/2000/svg" xmlns:xlink="http://www.w3.org/1999/xlink" width="1080" zoomAndPan="magnify" viewBox="0 0 810 809.999993" height="1080" preserveAspectRatio="xMidYMid meet" version="1.0"><defs><clipPath id="806c0029d9"><path d="M 8.101562 0 L 801 0 L 801 810 L 8.101562 810 Z M 8.101562 0 " clip-rule="nonzero"/></clipPath></defs><g clip-path="url(#806c0029d9)"><path fill="#000000" d="M 460.921875 306.421875 L 348.304688 306.421875 C 337.542969 306.421875 328.816406 315.152344 328.816406 325.917969 L 328.816406 484.730469 C 328.816406 495.496094 337.542969 504.226562 348.304688 504.226562 L 460.921875 504.226562 C 471.683594 504.226562 480.410156 495.496094 480.410156 484.730469 L 480.410156 325.917969 C 480.410156 315.152344 471.683594 306.421875 460.921875 306.421875 Z M 465.9375 384.351562 L 465.9375 484.730469 C 465.9375 487.496094 463.6875 489.75 460.921875 489.75 L 348.304688 489.75 C 345.539062 489.75 343.289062 487.496094 343.289062 484.730469 L 343.289062 325.917969 C 343.289062 323.148438 345.539062 320.898438 348.304688 320.898438 L 460.921875 320.898438 C 463.6875 320.898438 465.9375 323.148438 465.9375 325.917969 Z M 28.226562 122.007812 L 140.839844 122.007812 C 151.605469 122.007812 160.332031 113.277344 160.332031 102.511719 L 160.332031 20.144531 C 160.332031 9.375 151.605469 0.648438 140.839844 0.648438 L 31.1875 0.648438 C 31.1875 0.648438 31.183594 0.648438 31.183594 0.648438 L 28.226562 0.648438 C 17.460938 0.648438 8.738281 9.375 8.738281 20.144531 L 8.738281 102.511719 C 8.738281 113.277344 17.460938 122.007812 28.226562 122.007812 Z M 23.207031 44.078125 L 23.207031 20.144531 C 23.207031 17.375 25.460938 15.125 28.226562 15.125 L 140.839844 15.125 C 143.609375 15.125 145.859375 17.375 145.859375 20.144531 L 145.859375 102.511719 C 145.859375 105.277344 143.609375 107.53125 140.839844 107.53125 L 28.226562 107.53125 C 25.460938 107.53125 23.207031 105.277344 23.207031 102.511719 Z M 47.257812 83.882812 L 46.847656 83.882812 L 46.847656 38.769531 L 122.222656 38.769531 L 122.222656 83.882812 Z M 781 0.648438 L 671.347656 0.648438 C 671.34375 0.648438 671.34375 0.648438 671.34375 0.648438 L 668.386719 0.648438 C 657.621094 0.648438 648.894531 9.375 648.894531 20.144531 L 648.894531 102.511719 C 648.894531 113.277344 657.621094 122.007812 668.386719 122.007812 L 781 122.007812 C 791.765625 122.007812 800.488281 113.277344 800.488281 102.511719 L 800.488281 20.144531 C 800.488281 9.375 791.765625 0.648438 781 0.648438 Z M 786.019531 78.578125 L 786.019531 102.511719 C 786.019531 105.277344 783.769531 107.53125 781 107.53125 L 668.386719 107.53125 C 665.617188 107.53125 663.367188 105.277344 663.367188 102.511719 L 663.367188 20.144531 C 663.367188 17.375 665.617188 15.125 668.386719 15.125 L 781 15.125 C 783.769531 15.125 786.019531 17.375 786.019531 20.144531 Z M 761.96875 38.769531 L 762.378906 38.769531 L 762.378906 83.882812 L 687.007812 83.882812 L 687.007812 38.769531 Z M 140.839844 688.640625 L 31.1875 688.640625 C 31.1875 688.640625 31.183594 688.640625 31.183594 688.640625 L 28.226562 688.640625 C 17.460938 688.640625 8.738281 697.367188 8.738281 708.136719 L 8.738281 790.503906 C 8.738281 801.269531 17.460938 810 28.226562 810 L 140.839844 810 C 151.605469 810 160.332031 801.269531 160.332031 790.503906 L 160.332031 708.136719 C 160.332031 697.367188 151.605469 688.640625 140.839844 688.640625 Z M 145.859375 766.570312 L 145.859375 790.503906 C 145.859375 793.269531 143.609375 795.523438 140.839844 795.523438 L 28.226562 795.523438 C 25.460938 795.523438 23.207031 793.269531 23.207031 790.503906 L 23.207031 708.136719 C 23.207031 705.367188 25.460938 703.117188 28.226562 703.117188 L 140.839844 703.117188 C 143.609375 703.117188 145.859375 705.367188 145.859375 708.136719 Z M 121.808594 726.761719 L 122.222656 726.761719 L 122.222656 771.878906 L 46.847656 771.878906 L 46.847656 726.761719 Z M 441.890625 344.546875 L 442.300781 344.546875 L 442.300781 466.101562 L 366.925781 466.101562 L 366.925781 344.546875 Z M 8.738281 481.765625 C 8.738281 469.363281 18.789062 459.308594 31.1875 459.308594 C 43.585938 459.308594 53.636719 469.363281 53.636719 481.765625 C 53.636719 494.171875 43.585938 504.226562 31.1875 504.226562 C 18.789062 504.226562 8.738281 494.171875 8.738281 481.765625 Z M 8.738281 175.992188 C 8.738281 163.589844 18.789062 153.535156 31.1875 153.535156 C 43.585938 153.535156 53.636719 163.589844 53.636719 175.992188 C 53.636719 188.394531 43.585938 198.449219 31.1875 198.449219 C 18.789062 198.449219 8.738281 188.394531 8.738281 175.992188 Z M 8.738281 252.4375 C 8.738281 240.03125 18.789062 229.976562 31.1875 229.976562 C 43.585938 229.976562 53.636719 240.03125 53.636719 252.4375 C 53.636719 264.839844 43.585938 274.894531 31.1875 274.894531 C 18.789062 274.894531 8.738281 264.839844 8.738281 252.4375 Z M 228.199219 191.332031 C 222.84375 185.601562 215.582031 182.023438 207.738281 182.023438 L 174.714844 182.023438 C 166.871094 182.023438 159.609375 185.601562 154.257812 191.332031 C 150.117188 195.761719 144.214844 198.511719 137.65625 198.449219 C 125.789062 198.335938 115.773438 188.511719 115.441406 176.640625 C 115.082031 163.941406 125.265625 153.535156 137.878906 153.535156 C 144.324219 153.535156 150.121094 156.25 154.210938 160.601562 C 159.597656 166.335938 166.847656 169.960938 174.71875 169.960938 L 207.734375 169.960938 C 215.605469 169.960938 222.855469 166.335938 228.242188 160.601562 C 232.332031 156.25 238.132812 153.535156 244.574219 153.535156 C 257.1875 153.535156 267.371094 163.941406 267.015625 176.640625 C 266.679688 188.511719 256.667969 198.335938 244.796875 198.449219 C 238.242188 198.511719 232.335938 195.761719 228.199219 191.332031 Z M 37.21875 595.0625 L 37.21875 597.804688 C 37.21875 605.675781 40.839844 612.929688 46.574219 618.320312 C 50.921875 622.410156 53.636719 628.210938 53.636719 634.652344 C 53.636719 647.273438 43.234375 657.460938 30.539062 657.101562 C 18.671875 656.769531 8.855469 646.75 8.738281 634.875 C 8.675781 628.320312 11.421875 622.410156 15.851562 618.273438 C 21.582031 612.914062 25.15625 605.652344 25.15625 597.804688 L 25.15625 595.058594 C 25.15625 587.210938 21.582031 579.949219 15.851562 574.589844 C 11.425781 570.453125 8.675781 564.546875 8.738281 557.992188 C 8.851562 546.117188 18.671875 536.097656 30.535156 535.761719 C 43.230469 535.402344 53.636719 545.589844 53.636719 558.210938 C 53.636719 564.65625 50.921875 570.457031 46.574219 574.546875 C 40.839844 579.9375 37.21875 587.191406 37.21875 595.0625 Z M 160.332031 252.4375 C 160.332031 264.839844 150.277344 274.894531 137.878906 274.894531 C 125.480469 274.894531 115.429688 264.839844 115.429688 252.4375 C 115.429688 240.03125 125.480469 229.976562 137.878906 229.976562 C 150.277344 229.976562 160.332031 240.03125 160.332031 252.4375 Z M 160.332031 634.652344 C 160.332031 647.058594 150.277344 657.113281 137.878906 657.113281 C 125.480469 657.113281 115.429688 647.058594 115.429688 634.652344 C 115.429688 622.25 125.480469 612.195312 137.878906 612.195312 C 150.277344 612.195312 160.332031 622.25 160.332031 634.652344 Z M 143.910156 365.730469 L 143.910156 368.472656 C 143.910156 376.34375 147.53125 383.597656 153.265625 388.988281 C 157.613281 393.078125 160.332031 398.878906 160.332031 405.324219 C 160.332031 417.941406 149.925781 428.132812 137.230469 427.773438 C 125.363281 427.4375 115.542969 417.414062 115.429688 405.542969 C 115.371094 398.988281 118.117188 393.082031 122.542969 388.941406 C 128.273438 383.585938 131.851562 376.324219 131.851562 368.476562 L 131.851562 365.726562 C 131.851562 357.878906 128.273438 350.617188 122.542969 345.261719 C 118.117188 341.121094 115.371094 335.214844 115.429688 328.660156 C 115.542969 316.789062 125.363281 306.765625 137.226562 306.429688 C 149.925781 306.070312 160.332031 316.261719 160.332031 328.878906 C 160.332031 335.324219 157.613281 341.125 153.265625 345.214844 C 147.53125 350.605469 143.910156 357.859375 143.910156 365.730469 Z M 160.332031 481.765625 C 160.332031 494.171875 150.277344 504.226562 137.878906 504.226562 C 125.480469 504.226562 115.429688 494.171875 115.429688 481.765625 C 115.429688 469.363281 125.480469 459.308594 137.878906 459.308594 C 150.277344 459.308594 160.332031 469.363281 160.332031 481.765625 Z M 267.023438 787.542969 C 267.023438 799.945312 256.972656 810 244.574219 810 C 232.175781 810 222.125 799.945312 222.125 787.542969 C 222.125 775.136719 232.175781 765.082031 244.574219 765.082031 C 256.972656 765.082031 267.023438 775.136719 267.023438 787.542969 Z M 373.71875 252.4375 C 373.71875 264.839844 363.664062 274.894531 351.265625 274.894531 C 338.867188 274.894531 328.816406 264.839844 328.816406 252.4375 C 328.816406 240.03125 338.867188 229.976562 351.265625 229.976562 C 363.664062 229.976562 373.71875 240.03125 373.71875 252.4375 Z M 542.203125 175.992188 C 542.203125 163.589844 552.253906 153.535156 564.652344 153.535156 C 577.050781 153.535156 587.101562 163.589844 587.101562 175.992188 C 587.101562 188.394531 577.050781 198.449219 564.652344 198.449219 C 552.253906 198.449219 542.203125 188.394531 542.203125 175.992188 Z M 238.542969 62.699219 L 238.542969 59.953125 C 238.542969 52.109375 234.972656 44.84375 229.242188 39.488281 C 224.378906 34.945312 221.539062 28.273438 222.226562 20.945312 C 223.210938 10.390625 231.863281 1.734375 242.414062 0.75 C 249.738281 0.0625 256.410156 2.902344 260.953125 7.765625 C 266.304688 13.5 273.566406 17.074219 281.40625 17.074219 L 314.429688 17.074219 C 322.296875 17.074219 329.546875 13.449219 334.9375 7.714844 C 339.023438 3.363281 344.824219 0.648438 351.265625 0.648438 C 363.882812 0.648438 374.066406 11.058594 373.707031 23.757812 C 373.371094 35.628906 363.355469 45.449219 351.484375 45.5625 C 344.933594 45.625 339.027344 42.875 334.894531 38.449219 C 329.535156 32.714844 322.277344 29.136719 314.433594 29.136719 L 281.40625 29.136719 C 273.859375 29.136719 266.464844 32.101562 261.519531 37.800781 C 260.824219 38.605469 260.070312 39.359375 259.265625 40.058594 C 253.566406 45.003906 250.601562 52.402344 250.601562 59.949219 L 250.601562 62.703125 C 250.601562 70.546875 254.179688 77.8125 259.910156 83.167969 C 264.335938 87.304688 267.085938 93.210938 267.023438 99.769531 C 266.910156 111.640625 257.089844 121.660156 245.226562 122 C 232.53125 122.359375 222.125 112.167969 222.125 99.550781 C 222.125 93.105469 224.839844 87.304688 229.1875 83.214844 C 234.921875 77.824219 238.542969 70.570312 238.542969 62.699219 Z M 648.90625 176.640625 C 648.546875 163.941406 658.730469 153.535156 671.347656 153.535156 C 677.789062 153.535156 683.589844 156.25 687.675781 160.601562 C 693.066406 166.335938 700.316406 169.960938 708.183594 169.960938 L 741.203125 169.960938 C 749.070312 169.960938 756.320312 166.335938 761.710938 160.601562 C 765.796875 156.25 771.597656 153.535156 778.039062 153.535156 C 790.652344 153.535156 800.839844 163.941406 800.480469 176.640625 C 800.148438 188.511719 790.132812 198.335938 778.261719 198.449219 C 771.707031 198.511719 765.800781 195.761719 761.664062 191.332031 C 756.308594 185.601562 749.050781 182.023438 741.207031 182.023438 L 708.179688 182.023438 C 700.335938 182.023438 693.078125 185.601562 687.722656 191.332031 C 683.585938 195.761719 677.679688 198.511719 671.121094 198.449219 C 659.253906 198.335938 649.238281 188.511719 648.90625 176.640625 Z M 542.203125 23.105469 C 542.203125 10.703125 552.253906 0.648438 564.652344 0.648438 C 577.050781 0.648438 587.101562 10.703125 587.101562 23.105469 C 587.101562 35.507812 577.050781 45.5625 564.652344 45.5625 C 552.253906 45.5625 542.203125 35.507812 542.203125 23.105469 Z M 334.9375 573.601562 C 329.546875 567.867188 322.296875 564.242188 314.429688 564.242188 L 281.410156 564.242188 C 273.542969 564.242188 266.292969 567.867188 260.902344 573.601562 C 256.816406 577.953125 251.015625 580.667969 244.574219 580.667969 C 231.957031 580.667969 221.773438 570.261719 222.132812 557.558594 C 222.46875 545.691406 232.484375 535.867188 244.351562 535.753906 C 250.90625 535.691406 256.8125 538.441406 260.949219 542.867188 C 266.304688 548.601562 273.5625 552.179688 281.40625 552.179688 L 314.433594 552.179688 C 322.277344 552.179688 329.535156 548.601562 334.890625 542.867188 C 339.027344 538.441406 344.933594 535.691406 351.488281 535.753906 C 363.355469 535.867188 373.371094 545.691406 373.707031 557.558594 C 374.066406 570.261719 363.882812 580.667969 351.265625 580.667969 C 344.824219 580.667969 339.023438 577.953125 334.9375 573.601562 Z M 250.601562 365.730469 L 250.601562 368.476562 C 250.601562 376.324219 254.179688 383.585938 259.910156 388.941406 C 264.335938 393.082031 267.085938 398.988281 267.023438 405.542969 C 266.910156 417.414062 257.089844 427.4375 245.226562 427.773438 C 232.53125 428.132812 222.125 417.941406 222.125 405.324219 C 222.125 398.878906 224.839844 393.078125 229.1875 388.988281 C 234.921875 383.597656 238.542969 376.34375 238.542969 368.472656 L 238.542969 365.730469 C 238.542969 357.859375 234.921875 350.605469 229.1875 345.214844 C 224.839844 341.125 222.125 335.324219 222.125 328.878906 C 222.125 322.4375 224.839844 316.632812 229.1875 312.542969 C 234.921875 307.152344 238.542969 299.898438 238.542969 292.027344 L 238.542969 289.289062 C 238.542969 281.417969 234.921875 274.164062 229.1875 268.769531 C 224.839844 264.683594 222.125 258.878906 222.125 252.4375 C 222.125 239.816406 232.53125 229.628906 245.226562 229.988281 C 257.089844 230.324219 266.910156 240.34375 267.023438 252.21875 C 267.085938 258.773438 264.335938 264.679688 259.910156 268.816406 C 254.179688 274.175781 250.601562 281.4375 250.601562 289.285156 L 250.601562 292.027344 C 250.601562 299.898438 254.226562 307.152344 259.957031 312.542969 C 264.308594 316.632812 267.023438 322.4375 267.023438 328.878906 C 267.023438 335.324219 264.308594 341.125 259.957031 345.214844 C 254.226562 350.605469 250.601562 357.859375 250.601562 365.730469 Z M 328.816406 634.652344 C 328.816406 622.25 338.867188 612.195312 351.265625 612.195312 C 363.664062 612.195312 373.71875 622.25 373.71875 634.652344 C 373.71875 647.058594 363.664062 657.113281 351.265625 657.113281 C 338.867188 657.113281 328.816406 647.058594 328.816406 634.652344 Z M 373.71875 99.550781 C 373.71875 111.953125 363.664062 122.007812 351.265625 122.007812 C 338.867188 122.007812 328.816406 111.953125 328.816406 99.550781 C 328.816406 87.144531 338.867188 77.089844 351.265625 77.089844 C 363.664062 77.089844 373.71875 87.144531 373.71875 99.550781 Z M 655.019531 497.15625 C 649.628906 491.421875 642.378906 487.800781 634.507812 487.800781 L 601.484375 487.800781 C 593.941406 487.800781 586.542969 490.765625 581.601562 496.464844 C 580.902344 497.269531 580.148438 498.023438 579.34375 498.71875 C 573.644531 503.664062 570.683594 511.066406 570.683594 518.613281 L 570.683594 521.359375 C 570.683594 529.230469 574.304688 536.484375 580.039062 541.875 C 584.386719 545.964844 587.101562 551.765625 587.101562 558.210938 C 587.101562 570.832031 576.699219 581.019531 564 580.660156 C 552.136719 580.324219 542.316406 570.304688 542.203125 558.429688 C 542.140625 551.875 544.890625 545.96875 549.316406 541.828125 C 555.046875 536.472656 558.625 529.210938 558.625 521.363281 L 558.625 518.613281 C 558.625 510.769531 555.050781 503.507812 549.320312 498.152344 C 544.460938 493.609375 541.621094 486.933594 542.304688 479.609375 C 543.289062 469.054688 551.941406 460.398438 562.492188 459.410156 C 569.816406 458.726562 576.488281 461.566406 581.03125 466.429688 C 586.386719 472.164062 593.644531 475.734375 601.488281 475.734375 L 634.511719 475.734375 C 642.355469 475.734375 649.617188 472.160156 654.972656 466.425781 C 659.109375 461.996094 665.015625 459.246094 671.570312 459.308594 C 683.4375 459.425781 693.453125 469.25 693.785156 481.117188 C 694.144531 493.820312 683.960938 504.226562 671.347656 504.226562 C 664.90625 504.226562 659.105469 501.507812 655.019531 497.15625 Z M 693.796875 787.542969 C 693.796875 799.945312 683.746094 810 671.347656 810 C 658.949219 810 648.894531 799.945312 648.894531 787.542969 C 648.894531 775.136719 658.949219 765.082031 671.347656 765.082031 C 683.746094 765.082031 693.796875 775.136719 693.796875 787.542969 Z M 677.375 671.503906 L 677.375 674.246094 C 677.375 682.117188 681 689.371094 686.730469 694.761719 C 691.078125 698.851562 693.796875 704.652344 693.796875 711.097656 C 693.796875 723.71875 683.390625 733.90625 670.699219 733.546875 C 658.832031 733.210938 649.011719 723.195312 648.898438 711.320312 C 648.832031 704.765625 651.582031 698.855469 656.011719 694.714844 C 661.742188 689.359375 665.316406 682.097656 665.316406 674.25 L 665.316406 671.5 C 665.316406 663.65625 661.742188 656.394531 656.007812 651.035156 C 651.582031 646.898438 648.835938 640.992188 648.898438 634.433594 C 649.011719 622.5625 658.828125 612.542969 670.695312 612.207031 C 683.390625 611.84375 693.796875 622.035156 693.796875 634.652344 C 693.796875 641.097656 691.078125 646.898438 686.730469 650.988281 C 681 656.378906 677.375 663.632812 677.375 671.503906 Z M 784.070312 671.503906 L 784.070312 674.246094 C 784.070312 682.117188 787.691406 689.371094 793.425781 694.761719 C 797.773438 698.851562 800.488281 704.652344 800.488281 711.097656 C 800.488281 723.71875 790.085938 733.90625 777.390625 733.546875 C 765.527344 733.210938 755.707031 723.195312 755.589844 711.320312 C 755.527344 704.765625 758.277344 698.855469 762.703125 694.714844 C 768.4375 689.359375 772.011719 682.097656 772.011719 674.25 L 772.011719 671.5 C 772.011719 663.65625 768.433594 656.394531 762.703125 651.035156 C 758.277344 646.898438 755.527344 640.992188 755.589844 634.433594 C 755.703125 622.5625 765.523438 612.542969 777.386719 612.207031 C 790.082031 611.84375 800.488281 622.035156 800.488281 634.652344 C 800.488281 641.097656 797.773438 646.898438 793.425781 650.988281 C 787.691406 656.378906 784.070312 663.632812 784.070312 671.503906 Z M 784.070312 289.289062 L 784.070312 292.03125 C 784.070312 299.902344 787.691406 307.152344 793.425781 312.546875 C 797.773438 316.632812 800.488281 322.4375 800.488281 328.878906 C 800.488281 341.5 790.085938 351.6875 777.390625 351.328125 C 765.527344 350.996094 755.707031 340.976562 755.589844 329.101562 C 755.527344 322.546875 758.277344 316.636719 762.703125 312.5 C 768.4375 307.140625 772.011719 299.878906 772.011719 292.03125 L 772.011719 289.285156 C 772.011719 281.4375 768.433594 274.175781 762.703125 268.816406 C 762.535156 268.660156 762.386719 268.484375 762.222656 268.320312 C 762.054688 268.152344 761.875 268 761.710938 267.828125 C 756.320312 262.09375 749.070312 258.46875 741.203125 258.46875 L 738.460938 258.46875 C 730.59375 258.46875 723.34375 262.09375 717.953125 267.828125 C 713.867188 272.175781 708.066406 274.894531 701.625 274.894531 C 689.007812 274.894531 678.824219 264.488281 679.183594 251.785156 C 679.519531 239.917969 689.535156 230.09375 701.402344 229.980469 C 707.957031 229.914062 713.863281 232.664062 718 237.09375 C 723.355469 242.828125 730.613281 246.40625 738.457031 246.40625 L 741.207031 246.40625 C 749.050781 246.40625 756.308594 242.828125 761.664062 237.09375 C 763.378906 235.261719 765.425781 233.765625 767.667969 232.59375 C 767.851562 232.496094 768.039062 232.414062 768.222656 232.324219 C 768.929688 231.980469 769.640625 231.65625 770.382812 231.386719 C 771.210938 231.078125 772.050781 230.800781 772.917969 230.589844 C 772.976562 230.578125 773.03125 230.558594 773.089844 230.546875 C 773.554688 230.4375 774.03125 230.363281 774.507812 230.285156 C 774.828125 230.234375 775.152344 230.175781 775.480469 230.140625 C 775.832031 230.097656 776.195312 230.078125 776.554688 230.054688 C 776.832031 230.035156 777.105469 229.996094 777.386719 229.988281 C 777.539062 229.984375 777.683594 230 777.832031 229.996094 C 777.976562 229.996094 778.113281 229.976562 778.257812 229.980469 C 778.515625 229.980469 778.765625 230.015625 779.019531 230.023438 C 779.398438 230.042969 779.773438 230.058594 780.144531 230.09375 C 780.445312 230.121094 780.738281 230.167969 781.035156 230.207031 C 781.542969 230.277344 782.046875 230.347656 782.542969 230.449219 C 782.609375 230.464844 782.671875 230.484375 782.742188 230.496094 C 791.261719 232.316406 797.984375 238.957031 799.914062 247.441406 C 799.914062 247.441406 799.917969 247.445312 799.917969 247.445312 C 800.035156 247.949219 800.113281 248.46875 800.195312 248.984375 C 800.238281 249.253906 800.289062 249.523438 800.324219 249.796875 C 800.367188 250.167969 800.386719 250.546875 800.410156 250.921875 C 800.433594 251.210938 800.472656 251.492188 800.480469 251.785156 C 800.484375 251.894531 800.472656 252 800.472656 252.109375 C 800.472656 252.21875 800.488281 252.324219 800.488281 252.4375 C 800.488281 252.714844 800.457031 252.984375 800.445312 253.257812 C 800.433594 253.671875 800.417969 254.082031 800.382812 254.488281 C 800.347656 254.855469 800.292969 255.21875 800.242188 255.585938 C 800.1875 255.988281 800.128906 256.394531 800.050781 256.792969 C 799.980469 257.140625 799.894531 257.480469 799.8125 257.824219 C 799.710938 258.226562 799.609375 258.632812 799.488281 259.027344 C 799.390625 259.34375 799.28125 259.652344 799.167969 259.964844 C 799.023438 260.371094 798.875 260.777344 798.707031 261.175781 C 798.589844 261.453125 798.460938 261.726562 798.332031 262 C 798.132812 262.410156 797.933594 262.824219 797.714844 263.222656 C 797.582031 263.460938 797.445312 263.6875 797.304688 263.917969 C 797.054688 264.339844 796.796875 264.753906 796.519531 265.15625 C 796.386719 265.347656 796.246094 265.535156 796.109375 265.722656 C 795.796875 266.144531 795.472656 266.5625 795.132812 266.964844 C 795.007812 267.109375 794.878906 267.25 794.75 267.394531 C 794.371094 267.816406 793.980469 268.226562 793.570312 268.621094 C 793.519531 268.667969 793.476562 268.722656 793.425781 268.769531 C 787.691406 274.164062 784.070312 281.417969 784.070312 289.289062 Z M 800.488281 787.542969 C 800.488281 799.945312 790.4375 810 778.039062 810 C 765.640625 810 755.589844 799.945312 755.589844 787.542969 C 755.589844 775.136719 765.640625 765.082031 778.039062 765.082031 C 790.4375 765.082031 800.488281 775.136719 800.488281 787.542969 Z M 686.730469 388.988281 C 691.078125 393.078125 693.796875 398.878906 693.796875 405.324219 C 693.796875 417.941406 683.390625 428.132812 670.695312 427.773438 C 658.828125 427.4375 649.011719 417.414062 648.898438 405.542969 C 648.835938 398.988281 651.582031 393.082031 656.007812 388.941406 C 661.742188 383.585938 665.316406 376.324219 665.316406 368.476562 L 665.316406 365.722656 C 665.316406 358.179688 662.355469 350.777344 656.65625 345.832031 C 655.851562 345.136719 655.097656 344.382812 654.398438 343.578125 C 649.457031 337.875 642.058594 334.910156 634.515625 334.910156 L 601.488281 334.910156 C 593.644531 334.910156 586.386719 338.484375 581.03125 344.21875 C 576.492188 349.082031 569.816406 351.921875 562.492188 351.238281 C 551.941406 350.25 543.289062 341.59375 542.304688 331.039062 C 541.253906 319.796875 548.503906 310.085938 558.625 307.265625 L 558.625 274.050781 C 549.15625 271.414062 542.203125 262.746094 542.203125 252.4375 C 542.203125 239.816406 552.609375 229.628906 565.304688 229.988281 C 577.167969 230.324219 586.988281 240.34375 587.101562 252.21875 C 587.199219 262.625 580.214844 271.394531 570.683594 274.050781 L 570.683594 307.265625 C 574.984375 308.464844 578.757812 310.90625 581.601562 314.183594 C 586.542969 319.882812 593.941406 322.847656 601.484375 322.847656 L 634.511719 322.847656 C 642.355469 322.847656 649.613281 319.277344 654.96875 313.542969 C 659.507812 308.679688 666.183594 305.835938 673.507812 306.523438 C 684.058594 307.511719 692.710938 316.164062 693.695312 326.71875 C 694.378906 334.046875 691.539062 340.722656 686.679688 345.265625 C 680.949219 350.621094 677.375 357.882812 677.375 365.726562 L 677.375 368.472656 C 677.375 376.34375 681 383.597656 686.730469 388.988281 Z M 800.488281 558.210938 C 800.488281 570.613281 790.4375 580.667969 778.039062 580.667969 C 765.640625 580.667969 755.589844 570.613281 755.589844 558.210938 C 755.589844 545.808594 765.640625 535.753906 778.039062 535.753906 C 790.4375 535.753906 800.488281 545.808594 800.488281 558.210938 Z M 800.488281 481.765625 C 800.488281 494.171875 790.4375 504.226562 778.039062 504.226562 C 765.640625 504.226562 755.589844 494.171875 755.589844 481.765625 C 755.589844 469.363281 765.640625 459.308594 778.039062 459.308594 C 790.4375 459.308594 800.488281 469.363281 800.488281 481.765625 Z M 480.410156 175.992188 C 480.410156 188.394531 470.359375 198.449219 457.960938 198.449219 C 445.5625 198.449219 435.511719 188.394531 435.511719 175.992188 C 435.511719 163.589844 445.5625 153.535156 457.960938 153.535156 C 470.359375 153.535156 480.410156 163.589844 480.410156 175.992188 Z M 480.410156 558.210938 C 480.410156 570.613281 470.359375 580.667969 457.960938 580.667969 C 445.5625 580.667969 435.511719 570.613281 435.511719 558.210938 C 435.511719 545.808594 445.5625 535.753906 457.960938 535.753906 C 470.359375 535.753906 480.410156 545.808594 480.410156 558.210938 Z M 480.402344 786.890625 C 480.761719 799.589844 470.574219 810 457.960938 810 C 451.519531 810 445.71875 807.28125 441.628906 802.933594 C 436.242188 797.195312 428.992188 793.574219 421.121094 793.574219 L 388.105469 793.574219 C 380.234375 793.574219 372.984375 797.195312 367.597656 802.933594 C 363.507812 807.28125 357.707031 810 351.265625 810 C 338.652344 810 328.46875 799.589844 328.828125 786.890625 C 329.160156 775.019531 339.179688 765.199219 351.046875 765.085938 C 357.601562 765.019531 363.503906 767.773438 367.640625 772.199219 C 372.996094 777.933594 380.257812 781.507812 388.101562 781.507812 L 421.125 781.507812 C 428.96875 781.507812 436.230469 777.933594 441.585938 772.199219 C 445.722656 767.773438 451.625 765.019531 458.179688 765.085938 C 470.050781 765.199219 480.066406 775.019531 480.402344 786.890625 Z M 480.410156 711.097656 C 480.410156 723.5 470.359375 733.554688 457.960938 733.554688 C 445.5625 733.554688 435.511719 723.5 435.511719 711.097656 C 435.511719 698.695312 445.5625 688.640625 457.960938 688.640625 C 470.359375 688.640625 480.410156 698.695312 480.410156 711.097656 Z M 267.023438 634.652344 C 267.023438 647.058594 256.972656 657.113281 244.574219 657.113281 C 232.175781 657.113281 222.125 647.058594 222.125 634.652344 C 222.125 622.25 232.175781 612.195312 244.574219 612.195312 C 256.972656 612.195312 267.023438 622.25 267.023438 634.652344 Z M 480.410156 252.4375 C 480.410156 264.839844 470.359375 274.894531 457.960938 274.894531 C 445.5625 274.894531 435.511719 264.839844 435.511719 252.4375 C 435.511719 240.03125 445.5625 229.976562 457.960938 229.976562 C 470.359375 229.976562 480.410156 240.03125 480.410156 252.4375 Z M 480.410156 99.550781 C 480.410156 111.953125 470.359375 122.007812 457.960938 122.007812 C 445.5625 122.007812 435.511719 111.953125 435.511719 99.550781 C 435.511719 87.144531 445.5625 77.089844 457.960938 77.089844 C 470.359375 77.089844 480.410156 87.144531 480.410156 99.550781 Z M 267.023438 711.097656 C 267.023438 723.5 256.972656 733.554688 244.574219 733.554688 C 232.175781 733.554688 222.125 723.5 222.125 711.097656 C 222.125 698.695312 232.175781 688.640625 244.574219 688.640625 C 256.972656 688.640625 267.023438 698.695312 267.023438 711.097656 Z M 587.101562 711.097656 C 587.101562 723.5 577.050781 733.554688 564.652344 733.554688 C 552.253906 733.554688 542.203125 723.5 542.203125 711.097656 C 542.203125 698.695312 552.253906 688.640625 564.652344 688.640625 C 577.050781 688.640625 587.101562 698.695312 587.101562 711.097656 Z M 587.101562 711.097656 " fill-opacity="1" fill-rule="nonzero"/></g></svg>