<svg xmlns="http://www.w3.org/2000/svg" xmlns:xlink="http://www.w3.org/1999/xlink" zoomAndPan="magnify" preserveAspectRatio="xMidYMid meet" version="1.0" viewBox="4.75 27.89 365.51 317.11"><defs><clipPath id="49a73d0d26"><path d="M 278 27.890625 L 359 27.890625 L 359 89 L 278 89 Z M 278 27.890625 " clip-rule="nonzero"/></clipPath></defs><path fill="#eeab45" d="M 175.316406 70.570312 L 175.316406 314.464844 C 175.316406 315.347656 175.28125 316.226562 175.207031 317.101562 C 175.132812 317.980469 175.019531 318.855469 174.867188 319.722656 C 174.71875 320.589844 174.53125 321.449219 174.304688 322.300781 C 174.082031 323.152344 173.820312 323.992188 173.519531 324.820312 C 173.222656 325.652344 172.890625 326.464844 172.523438 327.265625 C 172.15625 328.066406 171.753906 328.847656 171.316406 329.613281 C 170.878906 330.378906 170.410156 331.125 169.910156 331.847656 C 169.410156 332.574219 168.878906 333.273438 168.320312 333.953125 C 167.757812 334.632812 167.167969 335.285156 166.550781 335.914062 C 165.933594 336.539062 165.289062 337.140625 164.617188 337.710938 C 163.949219 338.28125 163.257812 338.824219 162.539062 339.335938 C 161.824219 339.847656 161.085938 340.328125 160.328125 340.773438 C 159.570312 341.222656 158.792969 341.636719 158 342.015625 C 157.203125 342.394531 156.394531 342.738281 155.570312 343.050781 C 154.746094 343.359375 153.914062 343.632812 153.066406 343.871094 C 152.21875 344.109375 151.359375 344.308594 150.496094 344.472656 C 149.632812 344.636719 148.761719 344.761719 147.886719 344.847656 C 147.007812 344.933594 146.132812 344.984375 145.25 344.996094 C 144.371094 345.007812 143.492188 344.980469 142.613281 344.917969 C 141.738281 344.851562 140.863281 344.75 139.996094 344.609375 C 139.125 344.46875 138.265625 344.289062 137.410156 344.074219 C 136.558594 343.859375 135.714844 343.605469 134.882812 343.316406 C 134.050781 343.03125 133.234375 342.707031 132.429688 342.347656 C 131.625 341.988281 130.839844 341.59375 130.070312 341.167969 C 129.300781 340.738281 128.550781 340.277344 127.820312 339.785156 C 127.09375 339.292969 126.386719 338.769531 125.699219 338.214844 C 125.015625 337.660156 124.359375 337.078125 123.722656 336.46875 C 123.089844 335.855469 122.484375 335.21875 121.90625 334.554688 C 121.328125 333.890625 120.777344 333.203125 120.257812 332.492188 C 119.738281 331.78125 119.25 331.050781 118.796875 330.296875 C 118.339844 329.542969 117.917969 328.769531 117.53125 327.980469 C 117.140625 327.1875 116.785156 326.382812 116.46875 325.5625 C 115 325.96875 113.507812 326.261719 111.996094 326.441406 C 110.480469 326.625 108.964844 326.691406 107.441406 326.648438 C 105.917969 326.601562 104.40625 326.441406 102.90625 326.171875 C 101.410156 325.898438 99.9375 325.515625 98.496094 325.023438 C 97.054688 324.53125 95.65625 323.9375 94.304688 323.234375 C 92.949219 322.535156 91.65625 321.734375 90.421875 320.839844 C 89.1875 319.945312 88.027344 318.964844 86.941406 317.894531 C 85.855469 316.828125 84.851562 315.683594 83.9375 314.464844 C 82.457031 314.464844 80.984375 314.355469 79.519531 314.136719 C 78.054688 313.921875 76.613281 313.601562 75.191406 313.175781 C 73.773438 312.75 72.394531 312.226562 71.050781 311.597656 C 69.710938 310.972656 68.417969 310.253906 67.183594 309.441406 C 65.945312 308.628906 64.769531 307.730469 63.664062 306.746094 C 62.554688 305.761719 61.527344 304.703125 60.570312 303.570312 C 59.617188 302.433594 58.75 301.238281 57.96875 299.980469 C 57.191406 298.71875 56.503906 297.410156 55.914062 296.050781 C 55.121094 296.113281 54.328125 296.171875 53.476562 296.171875 C 52.011719 296.171875 50.558594 296.066406 49.109375 295.855469 C 47.660156 295.648438 46.234375 295.335938 44.832031 294.917969 C 43.429688 294.503906 42.0625 293.988281 40.734375 293.375 C 39.40625 292.761719 38.125 292.054688 36.898438 291.257812 C 35.671875 290.460938 34.507812 289.582031 33.40625 288.613281 C 32.304688 287.648438 31.28125 286.609375 30.328125 285.496094 C 29.378906 284.382812 28.511719 283.207031 27.730469 281.96875 C 26.949219 280.730469 26.261719 279.441406 25.664062 278.105469 C 25.066406 276.769531 24.570312 275.394531 24.171875 273.984375 C 23.773438 272.574219 23.476562 271.144531 23.285156 269.691406 C 23.09375 268.242188 23.007812 266.78125 23.023438 265.316406 C 23.042969 263.851562 23.164062 262.398438 23.390625 260.949219 C 23.617188 259.503906 23.949219 258.082031 24.382812 256.679688 C 24.8125 255.28125 25.34375 253.921875 25.972656 252.597656 C 26.601562 251.273438 27.320312 250.003906 28.132812 248.785156 C 28.941406 247.566406 29.835938 246.410156 30.816406 245.320312 C 29.679688 242.042969 29.109375 238.667969 29.109375 235.199219 C 29.109375 234.347656 29.171875 233.554688 29.230469 232.761719 C 28.355469 232.378906 27.5 231.957031 26.664062 231.496094 C 25.828125 231.035156 25.015625 230.539062 24.226562 230 C 23.4375 229.464844 22.675781 228.890625 21.9375 228.28125 C 21.203125 227.671875 20.496094 227.03125 19.820312 226.355469 C 19.144531 225.683594 18.503906 224.976562 17.894531 224.242188 C 17.285156 223.507812 16.710938 222.746094 16.171875 221.957031 C 15.632812 221.167969 15.132812 220.355469 14.667969 219.519531 C 14.207031 218.683594 13.785156 217.828125 13.402344 216.953125 C 13.019531 216.078125 12.675781 215.1875 12.378906 214.28125 C 12.078125 213.375 11.820312 212.457031 11.609375 211.523438 C 11.394531 210.59375 11.226562 209.652344 11.097656 208.707031 C 10.972656 207.761719 10.894531 206.808594 10.855469 205.855469 C 10.820312 204.898438 10.828125 203.945312 10.878906 202.992188 C 10.933594 202.039062 11.027344 201.089844 11.167969 200.144531 C 11.3125 199.199219 11.496094 198.261719 11.722656 197.335938 C 11.953125 196.410156 12.226562 195.492188 12.539062 194.589844 C 11.5625 193.5 10.667969 192.347656 9.855469 191.128906 C 9.042969 189.910156 8.324219 188.636719 7.695312 187.316406 C 7.066406 185.992188 6.539062 184.632812 6.105469 183.230469 C 5.671875 181.832031 5.34375 180.410156 5.117188 178.960938 C 4.886719 177.515625 4.765625 176.058594 4.75 174.59375 C 4.730469 173.128906 4.816406 171.671875 5.011719 170.21875 C 5.203125 168.769531 5.496094 167.335938 5.894531 165.929688 C 6.292969 164.519531 6.792969 163.144531 7.386719 161.808594 C 7.984375 160.46875 8.671875 159.179688 9.457031 157.941406 C 10.238281 156.703125 11.105469 155.527344 12.054688 154.414062 C 13.007812 153.300781 14.03125 152.261719 15.132812 151.296875 C 16.234375 150.332031 17.398438 149.449219 18.625 148.652344 C 19.851562 147.855469 21.132812 147.148438 22.460938 146.535156 C 23.789062 145.925781 25.15625 145.410156 26.558594 144.992188 C 27.960938 144.578125 29.386719 144.265625 30.835938 144.054688 C 32.28125 143.84375 33.738281 143.738281 35.199219 143.738281 C 35.40625 143.730469 35.609375 143.75 35.808594 143.800781 C 36.339844 141.132812 37.214844 138.582031 38.4375 136.148438 C 39.65625 133.71875 41.175781 131.492188 43 129.472656 C 41.863281 126.195312 41.292969 122.820312 41.292969 119.351562 C 41.292969 118.480469 41.332031 117.609375 41.40625 116.742188 C 41.480469 115.871094 41.589844 115.007812 41.742188 114.152344 C 41.890625 113.292969 42.074219 112.441406 42.296875 111.597656 C 42.515625 110.753906 42.773438 109.921875 43.066406 109.101562 C 43.359375 108.28125 43.6875 107.476562 44.050781 106.683594 C 44.410156 105.890625 44.808594 105.113281 45.234375 104.355469 C 45.664062 103.597656 46.125 102.859375 46.617188 102.140625 C 47.105469 101.421875 47.628906 100.722656 48.179688 100.046875 C 48.730469 99.375 49.3125 98.726562 49.917969 98.101562 C 50.523438 97.476562 51.15625 96.878906 51.816406 96.308594 C 52.472656 95.738281 53.15625 95.195312 53.859375 94.683594 C 54.566406 94.171875 55.289062 93.691406 56.035156 93.242188 C 56.78125 92.792969 57.546875 92.375 58.328125 91.992188 C 59.109375 91.605469 59.90625 91.257812 60.71875 90.941406 C 61.527344 90.625 62.351562 90.34375 63.1875 90.101562 C 64.023438 89.855469 64.867188 89.644531 65.722656 89.472656 C 65.671875 89.273438 65.652344 89.070312 65.660156 88.863281 C 65.660156 87.441406 65.761719 86.023438 65.957031 84.617188 C 66.15625 83.207031 66.453125 81.816406 66.84375 80.449219 C 67.238281 79.082031 67.722656 77.75 68.304688 76.449219 C 68.882812 75.148438 69.550781 73.898438 70.304688 72.691406 C 71.058594 71.484375 71.894531 70.335938 72.808594 69.25 C 73.722656 68.160156 74.710938 67.140625 75.765625 66.1875 C 76.824219 65.238281 77.941406 64.363281 79.125 63.570312 C 80.304688 62.777344 81.53125 62.070312 82.8125 61.445312 C 84.089844 60.824219 85.40625 60.296875 86.757812 59.859375 C 88.113281 59.421875 89.488281 59.082031 90.890625 58.835938 C 92.289062 58.589844 93.699219 58.445312 95.121094 58.398438 C 96.542969 58.351562 97.960938 58.40625 99.375 58.558594 C 100.785156 58.710938 102.183594 58.957031 103.5625 59.304688 C 104.941406 59.652344 106.289062 60.097656 107.605469 60.632812 C 108.921875 61.167969 110.195312 61.792969 111.425781 62.511719 C 112.652344 63.226562 113.828125 64.023438 114.945312 64.902344 C 115.121094 63.980469 115.339844 63.070312 115.601562 62.171875 C 115.863281 61.269531 116.164062 60.386719 116.503906 59.511719 C 116.847656 58.640625 117.230469 57.785156 117.652344 56.949219 C 118.070312 56.113281 118.53125 55.296875 119.027344 54.5 C 119.523438 53.707031 120.054688 52.9375 120.621094 52.191406 C 121.1875 51.445312 121.789062 50.726562 122.421875 50.039062 C 123.054688 49.347656 123.71875 48.6875 124.414062 48.058594 C 125.105469 47.429688 125.828125 46.835938 126.578125 46.273438 C 127.328125 45.710938 128.101562 45.183594 128.898438 44.691406 C 129.695312 44.199219 130.511719 43.746094 131.351562 43.332031 C 132.191406 42.917969 133.046875 42.539062 133.921875 42.203125 C 134.796875 41.867188 135.683594 41.574219 136.585938 41.316406 C 137.484375 41.0625 138.394531 40.851562 139.316406 40.679688 C 140.238281 40.511719 141.164062 40.382812 142.097656 40.296875 C 143.027344 40.214844 143.964844 40.171875 144.898438 40.171875 C 145.835938 40.175781 146.769531 40.21875 147.703125 40.304688 C 148.632812 40.394531 149.5625 40.523438 150.480469 40.695312 C 151.402344 40.871094 152.3125 41.085938 153.210938 41.34375 C 154.113281 41.597656 155 41.898438 155.871094 42.234375 C 156.746094 42.574219 157.601562 42.953125 158.4375 43.371094 C 159.277344 43.789062 160.09375 44.246094 160.890625 44.738281 C 161.683594 45.230469 162.457031 45.757812 163.203125 46.324219 C 163.953125 46.886719 164.671875 47.484375 165.363281 48.117188 C 166.054688 48.746094 166.71875 49.410156 167.347656 50.101562 C 167.980469 50.792969 168.578125 51.511719 169.144531 52.261719 C 169.707031 53.007812 170.238281 53.777344 170.730469 54.574219 C 171.226562 55.371094 171.683594 56.1875 172.101562 57.027344 C 172.519531 57.863281 172.898438 58.71875 173.238281 59.59375 C 173.578125 60.464844 173.878906 61.355469 174.136719 62.253906 C 174.394531 63.15625 174.609375 64.066406 174.785156 64.988281 C 174.957031 65.90625 175.089844 66.835938 175.179688 67.765625 C 175.269531 68.699219 175.3125 69.636719 175.316406 70.570312 Z M 175.316406 70.570312 " fill-opacity="1" fill-rule="nonzero"/><path fill="#f3c350" d="M 173.761719 323.609375 C 174.753906 320.644531 175.273438 317.59375 175.316406 314.464844 L 175.316406 70.570312 C 175.3125 69.636719 175.269531 68.699219 175.179688 67.765625 C 175.089844 66.835938 174.957031 65.90625 174.785156 64.988281 C 174.609375 64.066406 174.394531 63.15625 174.136719 62.253906 C 173.878906 61.355469 173.578125 60.464844 173.238281 59.59375 C 172.898438 58.71875 172.519531 57.863281 172.101562 57.027344 C 171.683594 56.1875 171.226562 55.371094 170.730469 54.574219 C 170.238281 53.777344 169.707031 53.007812 169.144531 52.261719 C 168.578125 51.511719 167.980469 50.792969 167.347656 50.101562 C 166.71875 49.410156 166.054688 48.746094 165.363281 48.117188 C 164.671875 47.484375 163.953125 46.886719 163.203125 46.324219 C 162.457031 45.757812 161.683594 45.230469 160.890625 44.738281 C 160.09375 44.246094 159.277344 43.789062 158.4375 43.371094 C 157.601562 42.953125 156.746094 42.574219 155.871094 42.234375 C 155 41.898438 154.113281 41.597656 153.210938 41.34375 C 152.3125 41.085938 151.402344 40.871094 150.480469 40.695312 C 149.5625 40.523438 148.632812 40.394531 147.703125 40.304688 C 146.769531 40.21875 145.835938 40.175781 144.898438 40.171875 C 143.964844 40.171875 143.027344 40.214844 142.097656 40.296875 C 141.164062 40.382812 140.238281 40.511719 139.316406 40.679688 C 138.394531 40.851562 137.484375 41.0625 136.585938 41.316406 C 135.683594 41.574219 134.796875 41.867188 133.921875 42.203125 C 133.046875 42.539062 132.191406 42.917969 131.351562 43.332031 C 130.511719 43.746094 129.695312 44.199219 128.898438 44.691406 C 128.101562 45.183594 127.328125 45.710938 126.578125 46.273438 C 125.828125 46.835938 125.105469 47.429688 124.414062 48.058594 C 123.71875 48.6875 123.054688 49.347656 122.421875 50.039062 C 121.789062 50.726562 121.1875 51.445312 120.621094 52.191406 C 120.054688 52.9375 119.523438 53.707031 119.027344 54.5 C 118.53125 55.296875 118.070312 56.113281 117.652344 56.949219 C 117.230469 57.785156 116.847656 58.640625 116.503906 59.511719 C 116.164062 60.386719 115.863281 61.269531 115.601562 62.171875 C 115.339844 63.070312 115.121094 63.980469 114.945312 64.902344 C 113.828125 64.023438 112.652344 63.226562 111.425781 62.511719 C 110.195312 61.792969 108.921875 61.167969 107.605469 60.632812 C 106.289062 60.097656 104.941406 59.652344 103.5625 59.304688 C 102.183594 58.957031 100.785156 58.710938 99.375 58.558594 C 97.960938 58.40625 96.542969 58.351562 95.121094 58.398438 C 93.699219 58.445312 92.289062 58.589844 90.890625 58.835938 C 89.488281 59.082031 88.113281 59.421875 86.757812 59.859375 C 85.40625 60.296875 84.089844 60.824219 82.8125 61.445312 C 81.53125 62.070312 80.300781 62.777344 79.121094 63.570312 C 77.941406 64.367188 76.824219 65.238281 75.765625 66.191406 C 74.707031 67.140625 73.722656 68.160156 72.804688 69.25 C 71.890625 70.339844 71.054688 71.488281 70.300781 72.695312 C 69.546875 73.898438 68.878906 75.152344 68.300781 76.453125 C 67.722656 77.75 67.238281 79.085938 66.84375 80.453125 C 66.453125 81.820312 66.15625 83.207031 65.957031 84.617188 C 65.761719 86.027344 65.660156 87.441406 65.660156 88.863281 C 65.652344 89.070312 65.671875 89.273438 65.722656 89.472656 C 64.867188 89.644531 64.023438 89.855469 63.1875 90.101562 C 62.351562 90.347656 61.527344 90.625 60.714844 90.941406 C 59.90625 91.257812 59.109375 91.609375 58.328125 91.992188 C 57.542969 92.375 56.78125 92.792969 56.035156 93.242188 C 55.289062 93.691406 54.5625 94.175781 53.859375 94.6875 C 53.152344 95.199219 52.472656 95.738281 51.8125 96.308594 C 51.15625 96.878906 50.523438 97.476562 49.914062 98.101562 C 49.308594 98.726562 48.730469 99.378906 48.179688 100.050781 C 47.625 100.726562 47.105469 101.421875 46.613281 102.140625 C 46.121094 102.859375 45.660156 103.601562 45.234375 104.359375 C 44.804688 105.117188 44.410156 105.894531 44.046875 106.683594 C 43.6875 107.476562 43.359375 108.285156 43.066406 109.105469 C 42.773438 109.925781 42.515625 110.757812 42.292969 111.601562 C 42.074219 112.441406 41.886719 113.292969 41.738281 114.152344 C 41.589844 115.011719 41.480469 115.875 41.40625 116.742188 C 41.332031 117.609375 41.292969 118.480469 41.292969 119.351562 C 41.292969 122.820312 41.863281 126.195312 43 129.472656 C 41.175781 131.492188 39.65625 133.71875 38.4375 136.148438 C 37.214844 138.582031 36.339844 141.132812 35.808594 143.800781 C 35.609375 143.75 35.40625 143.730469 35.199219 143.738281 L 35.199219 155.933594 C 35.203125 158.390625 35.253906 160.847656 35.359375 163.304688 C 35.46875 165.761719 35.625 168.210938 35.839844 170.660156 C 36.050781 173.109375 36.316406 175.554688 36.632812 177.992188 C 36.949219 180.429688 37.320312 182.855469 37.742188 185.277344 C 38.164062 187.699219 38.640625 190.109375 39.164062 192.511719 C 39.691406 194.914062 40.269531 197.300781 40.898438 199.675781 C 41.527344 202.054688 42.207031 204.414062 42.941406 206.761719 C 43.671875 209.105469 44.453125 211.4375 45.285156 213.75 C 46.117188 216.0625 46.996094 218.355469 47.929688 220.628906 C 48.859375 222.90625 49.839844 225.15625 50.867188 227.390625 C 51.894531 229.621094 52.972656 231.832031 54.09375 234.015625 C 55.21875 236.203125 56.386719 238.363281 57.605469 240.5 C 58.820312 242.632812 60.082031 244.742188 61.390625 246.820312 C 62.699219 248.902344 64.050781 250.953125 65.445312 252.976562 C 66.84375 254.996094 68.28125 256.988281 69.761719 258.949219 C 71.246094 260.910156 72.769531 262.835938 74.332031 264.730469 C 75.898438 266.625 77.503906 268.484375 79.148438 270.308594 C 80.796875 272.132812 82.480469 273.921875 84.203125 275.671875 C 85.925781 277.425781 87.683594 279.136719 89.480469 280.8125 C 91.277344 282.488281 93.109375 284.125 94.976562 285.722656 C 96.84375 287.320312 98.742188 288.875 100.679688 290.390625 C 102.613281 291.902344 104.578125 293.375 106.578125 294.804688 C 108.574219 296.234375 110.601562 297.621094 112.660156 298.960938 C 114.71875 300.304688 116.800781 301.601562 118.917969 302.851562 C 121.03125 304.105469 123.167969 305.308594 125.335938 306.46875 C 127.5 307.628906 129.691406 308.738281 131.902344 309.804688 C 134.117188 310.867188 136.351562 311.882812 138.609375 312.851562 C 140.867188 313.820312 143.144531 314.738281 145.441406 315.609375 C 147.738281 316.476562 150.054688 317.296875 152.386719 318.066406 C 154.71875 318.835938 157.066406 319.554688 159.429688 320.222656 C 161.792969 320.890625 164.167969 321.507812 166.558594 322.070312 C 168.949219 322.636719 171.351562 323.148438 173.761719 323.609375 Z M 173.761719 323.609375 " fill-opacity="1" fill-rule="nonzero"/><path fill="#fcef88" d="M 120.488281 247.394531 C 119.097656 247.402344 117.710938 247.507812 116.332031 247.707031 C 114.953125 247.902344 113.597656 248.195312 112.257812 248.578125 C 110.917969 248.960938 109.613281 249.433594 108.339844 249.996094 C 107.0625 250.558594 105.835938 251.203125 104.648438 251.933594 C 103.460938 252.664062 102.332031 253.472656 101.253906 254.355469 C 100.179688 255.242188 99.167969 256.195312 98.222656 257.214844 C 97.277344 258.238281 96.402344 259.320312 95.605469 260.460938 C 94.804688 261.605469 94.089844 262.792969 93.453125 264.035156 C 91.101562 262.59375 88.601562 261.496094 85.953125 260.738281 C 83.304688 259.984375 80.601562 259.601562 77.84375 259.589844 L 77.84375 271.785156 C 78.441406 271.785156 79.039062 271.8125 79.636719 271.871094 C 80.230469 271.929688 80.824219 272.019531 81.410156 272.136719 C 81.996094 272.253906 82.578125 272.398438 83.148438 272.570312 C 83.722656 272.746094 84.285156 272.945312 84.839844 273.175781 C 85.390625 273.40625 85.933594 273.660156 86.460938 273.945312 C 86.988281 274.226562 87.5 274.535156 88 274.867188 C 88.496094 275.199219 88.976562 275.554688 89.4375 275.9375 C 89.902344 276.316406 90.34375 276.71875 90.769531 277.140625 C 91.191406 277.566406 91.59375 278.007812 91.972656 278.472656 C 92.351562 278.933594 92.707031 279.414062 93.039062 279.914062 C 93.375 280.410156 93.679688 280.925781 93.960938 281.453125 C 94.246094 281.980469 94.5 282.523438 94.730469 283.074219 C 94.957031 283.628906 95.160156 284.191406 95.332031 284.765625 C 95.507812 285.339844 95.652344 285.917969 95.769531 286.507812 C 95.886719 287.09375 95.972656 287.6875 96.03125 288.28125 C 96.089844 288.878906 96.121094 289.476562 96.121094 290.074219 L 108.304688 290.074219 C 108.304688 287.007812 107.851562 284.007812 106.941406 281.074219 C 106.03125 278.144531 104.707031 275.414062 102.96875 272.886719 C 103.265625 271.832031 103.652344 270.816406 104.132812 269.832031 C 104.609375 268.847656 105.171875 267.914062 105.820312 267.03125 C 106.46875 266.152344 107.1875 265.332031 107.980469 264.582031 C 108.777344 263.828125 109.628906 263.152344 110.546875 262.554688 C 111.460938 261.953125 112.421875 261.441406 113.429688 261.015625 C 114.4375 260.589844 115.472656 260.257812 116.539062 260.019531 C 117.609375 259.78125 118.6875 259.636719 119.78125 259.59375 C 120.871094 259.546875 121.960938 259.601562 123.042969 259.753906 C 124.125 259.902344 125.1875 260.152344 126.226562 260.492188 C 127.265625 260.835938 128.265625 261.265625 129.226562 261.789062 C 130.1875 262.3125 131.09375 262.914062 131.945312 263.597656 C 132.796875 264.285156 133.582031 265.039062 134.300781 265.867188 C 135.015625 266.695312 135.652344 267.578125 136.210938 268.519531 C 136.769531 269.460938 137.238281 270.441406 137.621094 271.46875 C 138 272.496094 138.289062 273.546875 138.480469 274.625 C 138.671875 275.699219 138.765625 276.785156 138.765625 277.882812 L 150.949219 277.882812 C 150.945312 276.882812 150.898438 275.886719 150.796875 274.894531 C 150.699219 273.902344 150.550781 272.914062 150.355469 271.9375 C 150.160156 270.957031 149.917969 269.992188 149.628906 269.035156 C 149.339844 268.082031 149.003906 267.140625 148.621094 266.21875 C 148.238281 265.296875 147.8125 264.398438 147.339844 263.515625 C 146.871094 262.636719 146.359375 261.78125 145.804688 260.953125 C 145.25 260.121094 144.65625 259.320312 144.023438 258.550781 C 143.390625 257.777344 142.722656 257.039062 142.015625 256.335938 C 141.3125 255.628906 140.574219 254.960938 139.800781 254.324219 C 139.03125 253.691406 138.230469 253.097656 137.402344 252.542969 C 136.574219 251.988281 135.71875 251.476562 134.839844 251.003906 C 133.960938 250.535156 133.058594 250.105469 132.140625 249.726562 C 131.21875 249.34375 130.28125 249.003906 129.328125 248.714844 C 128.371094 248.425781 127.40625 248.183594 126.429688 247.984375 C 125.449219 247.789062 124.464844 247.644531 123.472656 247.542969 C 122.480469 247.445312 121.484375 247.394531 120.488281 247.394531 Z M 120.488281 247.394531 " fill-opacity="1" fill-rule="nonzero"/><path fill="#fcef88" d="M 132.671875 88.863281 L 120.488281 88.863281 C 120.488281 89.664062 120.449219 90.460938 120.371094 91.253906 C 120.292969 92.050781 120.175781 92.839844 120.019531 93.621094 C 119.863281 94.40625 119.671875 95.179688 119.4375 95.945312 C 119.207031 96.707031 118.9375 97.460938 118.632812 98.199219 C 118.328125 98.933594 117.988281 99.65625 117.609375 100.359375 C 117.234375 101.066406 116.824219 101.75 116.382812 102.414062 C 115.9375 103.078125 115.464844 103.71875 114.957031 104.335938 C 114.449219 104.953125 113.914062 105.546875 113.351562 106.109375 C 112.785156 106.675781 112.195312 107.210938 111.578125 107.71875 C 110.960938 108.222656 110.320312 108.699219 109.660156 109.144531 C 108.996094 109.585938 108.3125 109.996094 107.609375 110.375 C 106.902344 110.75 106.183594 111.089844 105.445312 111.398438 C 104.707031 111.703125 103.957031 111.972656 103.195312 112.203125 C 102.429688 112.433594 101.65625 112.628906 100.875 112.785156 C 100.089844 112.941406 99.304688 113.058594 98.507812 113.136719 C 97.714844 113.214844 96.917969 113.253906 96.121094 113.253906 L 96.121094 125.449219 C 97.316406 125.445312 98.511719 125.386719 99.703125 125.269531 C 100.894531 125.148438 102.074219 124.972656 103.25 124.738281 C 104.421875 124.503906 105.582031 124.210938 106.726562 123.863281 C 107.871094 123.515625 108.996094 123.113281 110.101562 122.652344 C 111.207031 122.195312 112.289062 121.683594 113.34375 121.117188 C 114.398438 120.550781 115.425781 119.9375 116.417969 119.269531 C 117.414062 118.605469 118.375 117.890625 119.300781 117.132812 C 120.222656 116.371094 121.109375 115.570312 121.957031 114.722656 C 122.800781 113.875 123.605469 112.988281 124.363281 112.0625 C 125.125 111.136719 125.835938 110.175781 126.5 109.179688 C 127.167969 108.183594 127.78125 107.160156 128.34375 106.101562 C 128.910156 105.046875 129.421875 103.964844 129.878906 102.859375 C 130.339844 101.75 130.742188 100.625 131.089844 99.480469 C 131.4375 98.332031 131.730469 97.171875 131.964844 96 C 132.199219 94.824219 132.375 93.640625 132.492188 92.449219 C 132.613281 91.257812 132.671875 90.0625 132.671875 88.863281 Z M 132.671875 88.863281 " fill-opacity="1" fill-rule="nonzero"/><path fill="#fcef88" d="M 83.9375 200.507812 C 84.765625 201.761719 85.667969 202.960938 86.644531 204.101562 C 87.621094 205.246094 88.667969 206.324219 89.777344 207.339844 C 90.886719 208.355469 92.054688 209.296875 93.28125 210.167969 C 94.507812 211.035156 95.78125 211.828125 97.105469 212.542969 C 98.429688 213.253906 99.792969 213.882812 101.191406 214.425781 C 102.59375 214.972656 104.023438 215.429688 105.480469 215.796875 C 106.9375 216.164062 108.414062 216.441406 109.90625 216.628906 C 111.394531 216.8125 112.894531 216.90625 114.394531 216.90625 L 114.394531 204.714844 C 113.597656 204.714844 112.800781 204.675781 112.007812 204.597656 C 111.214844 204.515625 110.425781 204.398438 109.640625 204.246094 C 108.859375 204.089844 108.085938 203.894531 107.324219 203.664062 C 106.558594 203.429688 105.808594 203.164062 105.070312 202.855469 C 104.332031 202.550781 103.613281 202.210938 102.910156 201.832031 C 102.207031 201.457031 101.523438 201.046875 100.859375 200.601562 C 100.195312 200.160156 99.554688 199.683594 98.9375 199.175781 C 98.320312 198.671875 97.730469 198.132812 97.164062 197.570312 C 96.601562 197.003906 96.066406 196.414062 95.558594 195.796875 C 95.054688 195.179688 94.578125 194.539062 94.136719 193.875 C 93.691406 193.210938 93.28125 192.523438 92.90625 191.820312 C 92.53125 191.117188 92.1875 190.394531 91.882812 189.65625 C 91.578125 188.917969 91.308594 188.167969 91.078125 187.402344 C 90.847656 186.640625 90.652344 185.867188 90.496094 185.082031 C 90.339844 184.296875 90.222656 183.507812 90.144531 182.714844 C 90.066406 181.917969 90.027344 181.121094 90.027344 180.324219 C 90.027344 179.125 89.96875 177.929688 89.847656 176.738281 C 89.730469 175.546875 89.554688 174.363281 89.320312 173.1875 C 89.085938 172.015625 88.792969 170.855469 88.445312 169.707031 C 88.097656 168.5625 87.695312 167.4375 87.238281 166.328125 C 86.777344 165.222656 86.265625 164.140625 85.703125 163.085938 C 85.136719 162.03125 84.523438 161.003906 83.855469 160.007812 C 83.191406 159.011719 82.480469 158.050781 81.71875 157.125 C 80.960938 156.199219 80.160156 155.3125 79.3125 154.464844 C 78.464844 153.617188 77.582031 152.816406 76.65625 152.054688 C 75.730469 151.296875 74.769531 150.582031 73.773438 149.917969 C 72.78125 149.25 71.753906 148.636719 70.699219 148.070312 C 69.644531 147.503906 68.5625 146.992188 67.457031 146.535156 C 66.351562 146.074219 65.226562 145.671875 64.082031 145.324219 C 62.9375 144.976562 61.777344 144.683594 60.605469 144.449219 C 59.429688 144.214844 58.25 144.039062 57.058594 143.917969 C 55.867188 143.800781 54.671875 143.742188 53.476562 143.738281 L 53.476562 155.933594 C 54.273438 155.933594 55.070312 155.972656 55.867188 156.050781 C 56.660156 156.128906 57.449219 156.246094 58.230469 156.402344 C 59.011719 156.558594 59.785156 156.753906 60.550781 156.984375 C 61.3125 157.214844 62.066406 157.484375 62.800781 157.792969 C 63.539062 158.097656 64.261719 158.4375 64.964844 158.8125 C 65.667969 159.191406 66.351562 159.601562 67.015625 160.042969 C 67.679688 160.488281 68.320312 160.964844 68.9375 161.46875 C 69.550781 161.976562 70.144531 162.511719 70.707031 163.078125 C 71.273438 163.644531 71.808594 164.234375 72.3125 164.851562 C 72.820312 165.46875 73.292969 166.109375 73.738281 166.773438 C 74.179688 167.4375 74.589844 168.121094 74.96875 168.828125 C 75.34375 169.53125 75.683594 170.253906 75.988281 170.992188 C 76.296875 171.726562 76.5625 172.480469 76.796875 173.242188 C 77.027344 174.007812 77.222656 174.78125 77.375 175.566406 C 77.53125 176.347656 77.648438 177.136719 77.726562 177.933594 C 77.804688 178.726562 77.84375 179.523438 77.84375 180.324219 C 77.84375 181.121094 77.804688 181.917969 77.726562 182.714844 C 77.648438 183.507812 77.53125 184.296875 77.375 185.082031 C 77.222656 185.867188 77.027344 186.640625 76.796875 187.402344 C 76.5625 188.167969 76.296875 188.917969 75.988281 189.65625 C 75.683594 190.394531 75.34375 191.117188 74.96875 191.820312 C 74.589844 192.523438 74.179688 193.210938 73.738281 193.875 C 73.292969 194.539062 72.820312 195.179688 72.3125 195.796875 C 71.808594 196.414062 71.273438 197.003906 70.707031 197.570312 C 70.144531 198.132812 69.550781 198.671875 68.9375 199.175781 C 68.320312 199.683594 67.679688 200.160156 67.015625 200.601562 C 66.351562 201.046875 65.667969 201.457031 64.964844 201.832031 C 64.261719 202.210938 63.539062 202.550781 62.800781 202.855469 C 62.066406 203.164062 61.3125 203.429688 60.550781 203.664062 C 59.785156 203.894531 59.011719 204.089844 58.230469 204.246094 C 57.449219 204.398438 56.660156 204.515625 55.867188 204.597656 C 55.070312 204.675781 54.273438 204.714844 53.476562 204.714844 L 53.476562 216.90625 C 54.980469 216.90625 56.476562 216.8125 57.96875 216.628906 C 59.460938 216.441406 60.933594 216.164062 62.390625 215.796875 C 63.851562 215.429688 65.277344 214.972656 66.679688 214.425781 C 68.082031 213.882812 69.445312 213.253906 70.769531 212.542969 C 72.089844 211.828125 73.367188 211.035156 74.59375 210.167969 C 75.820312 209.296875 76.988281 208.355469 78.097656 207.339844 C 79.207031 206.324219 80.25 205.246094 81.226562 204.101562 C 82.203125 202.960938 83.109375 201.761719 83.9375 200.507812 Z M 83.9375 200.507812 " fill-opacity="1" fill-rule="nonzero"/><path fill="#fce95f" d="M 321.523438 155.933594 L 321.523438 216.90625 L 260.601562 216.90625 L 260.601562 198.617188 L 266.695312 198.617188 C 267.496094 198.613281 268.285156 198.535156 269.070312 198.375 C 269.851562 198.21875 270.613281 197.984375 271.351562 197.679688 C 272.089844 197.371094 272.792969 196.996094 273.457031 196.550781 C 274.121094 196.105469 274.734375 195.597656 275.300781 195.035156 C 275.867188 194.46875 276.371094 193.851562 276.816406 193.1875 C 277.257812 192.523438 277.636719 191.820312 277.941406 191.082031 C 278.25 190.34375 278.480469 189.582031 278.640625 188.796875 C 278.796875 188.011719 278.878906 187.222656 278.878906 186.421875 C 278.875 185.621094 278.789062 184.832031 278.628906 184.046875 C 278.46875 183.265625 278.234375 182.503906 277.929688 181.769531 C 277.621094 181.03125 277.242188 180.332031 276.796875 179.667969 C 276.355469 179.003906 275.847656 178.390625 275.285156 177.824219 C 274.71875 177.257812 274.105469 176.753906 273.441406 176.308594 C 272.78125 175.863281 272.082031 175.488281 271.34375 175.179688 C 270.609375 174.871094 269.847656 174.636719 269.066406 174.476562 C 268.285156 174.316406 267.492188 174.234375 266.695312 174.226562 L 260.601562 174.226562 L 260.601562 155.933594 L 278.878906 155.933594 L 278.878906 149.835938 C 278.886719 149.039062 278.96875 148.246094 279.128906 147.464844 C 279.289062 146.679688 279.523438 145.921875 279.832031 145.183594 C 280.140625 144.449219 280.515625 143.746094 280.960938 143.082031 C 281.40625 142.421875 281.910156 141.804688 282.472656 141.242188 C 283.039062 140.675781 283.652344 140.171875 284.316406 139.726562 C 284.980469 139.28125 285.679688 138.902344 286.414062 138.59375 C 287.152344 138.285156 287.910156 138.050781 288.691406 137.890625 C 289.476562 137.730469 290.265625 137.648438 291.0625 137.640625 C 291.863281 137.644531 292.652344 137.726562 293.4375 137.882812 C 294.222656 138.039062 294.980469 138.273438 295.71875 138.582031 C 296.457031 138.886719 297.160156 139.265625 297.824219 139.707031 C 298.488281 140.152344 299.101562 140.660156 299.667969 141.226562 C 300.234375 141.789062 300.738281 142.40625 301.183594 143.070312 C 301.628906 143.734375 302.003906 144.4375 302.308594 145.175781 C 302.617188 145.914062 302.847656 146.675781 303.007812 147.460938 C 303.164062 148.246094 303.246094 149.039062 303.246094 149.835938 L 303.246094 155.933594 Z M 321.523438 155.933594 " fill-opacity="1" fill-rule="nonzero"/><path fill="#fce95f" d="M 242.328125 125.449219 C 242.332031 126.246094 242.417969 127.039062 242.578125 127.820312 C 242.738281 128.601562 242.972656 129.363281 243.277344 130.101562 C 243.585938 130.835938 243.964844 131.539062 244.410156 132.203125 C 244.851562 132.863281 245.359375 133.480469 245.921875 134.042969 C 246.488281 134.609375 247.101562 135.113281 247.765625 135.558594 C 248.425781 136.003906 249.125 136.382812 249.863281 136.691406 C 250.597656 137 251.359375 137.234375 252.140625 137.394531 C 252.921875 137.554688 253.714844 137.636719 254.511719 137.640625 L 260.601562 137.640625 L 260.601562 155.933594 L 242.328125 155.933594 L 242.328125 162.03125 C 242.320312 162.832031 242.238281 163.621094 242.078125 164.40625 C 241.917969 165.1875 241.683594 165.949219 241.375 166.683594 C 241.066406 167.421875 240.691406 168.121094 240.246094 168.785156 C 239.800781 169.449219 239.296875 170.0625 238.734375 170.628906 C 238.167969 171.191406 237.554688 171.699219 236.890625 172.144531 C 236.226562 172.589844 235.527344 172.964844 234.792969 173.273438 C 234.054688 173.582031 233.296875 173.816406 232.515625 173.976562 C 231.730469 174.136719 230.941406 174.21875 230.144531 174.226562 C 229.34375 174.222656 228.554688 174.144531 227.769531 173.984375 C 226.984375 173.828125 226.226562 173.597656 225.488281 173.289062 C 224.75 172.980469 224.046875 172.605469 223.382812 172.160156 C 222.71875 171.714844 222.105469 171.210938 221.539062 170.644531 C 220.972656 170.078125 220.46875 169.464844 220.023438 168.796875 C 219.578125 168.132812 219.203125 167.429688 218.898438 166.691406 C 218.589844 165.953125 218.359375 165.191406 218.199219 164.410156 C 218.042969 163.625 217.960938 162.832031 217.960938 162.03125 L 217.960938 155.933594 L 199.683594 155.933594 L 199.683594 94.960938 L 260.601562 94.960938 L 260.601562 113.253906 L 254.511719 113.253906 C 253.710938 113.253906 252.921875 113.335938 252.136719 113.492188 C 251.351562 113.652344 250.59375 113.882812 249.855469 114.191406 C 249.117188 114.5 248.414062 114.875 247.75 115.320312 C 247.085938 115.765625 246.472656 116.269531 245.90625 116.835938 C 245.339844 117.402344 244.835938 118.015625 244.390625 118.679688 C 243.949219 119.347656 243.570312 120.046875 243.265625 120.785156 C 242.957031 121.527344 242.726562 122.285156 242.566406 123.070312 C 242.410156 123.855469 242.328125 124.648438 242.328125 125.449219 Z M 242.328125 125.449219 " fill-opacity="1" fill-rule="nonzero"/><path fill="#eeab45" d="M 278.878906 186.421875 C 278.878906 187.222656 278.796875 188.011719 278.640625 188.796875 C 278.480469 189.582031 278.25 190.34375 277.941406 191.082031 C 277.636719 191.820312 277.257812 192.523438 276.816406 193.1875 C 276.371094 193.851562 275.867188 194.46875 275.300781 195.035156 C 274.734375 195.597656 274.121094 196.105469 273.457031 196.550781 C 272.792969 196.996094 272.089844 197.371094 271.351562 197.679688 C 270.613281 197.984375 269.851562 198.21875 269.070312 198.375 C 268.285156 198.535156 267.496094 198.613281 266.695312 198.617188 L 260.601562 198.617188 L 260.601562 216.90625 L 199.683594 216.90625 L 199.683594 155.933594 L 217.960938 155.933594 L 217.960938 162.03125 C 217.960938 162.832031 218.042969 163.625 218.199219 164.410156 C 218.359375 165.191406 218.589844 165.953125 218.898438 166.691406 C 219.203125 167.429688 219.578125 168.132812 220.023438 168.796875 C 220.46875 169.464844 220.972656 170.078125 221.539062 170.644531 C 222.105469 171.210938 222.71875 171.714844 223.382812 172.160156 C 224.046875 172.605469 224.75 172.980469 225.488281 173.289062 C 226.226562 173.597656 226.984375 173.828125 227.769531 173.984375 C 228.554688 174.144531 229.34375 174.222656 230.144531 174.226562 C 230.941406 174.21875 231.730469 174.136719 232.515625 173.976562 C 233.296875 173.816406 234.054688 173.582031 234.792969 173.273438 C 235.527344 172.964844 236.226562 172.589844 236.890625 172.144531 C 237.554688 171.699219 238.167969 171.191406 238.734375 170.628906 C 239.296875 170.0625 239.800781 169.449219 240.246094 168.785156 C 240.691406 168.121094 241.066406 167.421875 241.375 166.683594 C 241.683594 165.949219 241.917969 165.1875 242.078125 164.40625 C 242.238281 163.621094 242.320312 162.832031 242.328125 162.03125 L 242.328125 155.933594 L 260.601562 155.933594 L 260.601562 174.226562 L 266.695312 174.226562 C 267.492188 174.234375 268.285156 174.316406 269.066406 174.476562 C 269.847656 174.636719 270.609375 174.871094 271.34375 175.179688 C 272.082031 175.488281 272.78125 175.863281 273.441406 176.308594 C 274.105469 176.753906 274.71875 177.257812 275.285156 177.824219 C 275.847656 178.390625 276.355469 179.003906 276.796875 179.667969 C 277.242188 180.332031 277.621094 181.03125 277.929688 181.769531 C 278.234375 182.503906 278.46875 183.265625 278.628906 184.046875 C 278.789062 184.832031 278.875 185.621094 278.878906 186.421875 Z M 278.878906 186.421875 " fill-opacity="1" fill-rule="nonzero"/><path fill="#eeab45" d="M 351.984375 265.6875 C 351.984375 266.683594 351.933594 267.679688 351.835938 268.675781 C 351.738281 269.667969 351.59375 270.65625 351.398438 271.632812 C 351.203125 272.613281 350.960938 273.582031 350.671875 274.535156 C 350.382812 275.492188 350.046875 276.429688 349.664062 277.351562 C 349.28125 278.277344 348.855469 279.175781 348.386719 280.058594 C 347.914062 280.9375 347.402344 281.792969 346.847656 282.625 C 346.296875 283.453125 345.703125 284.253906 345.070312 285.027344 C 344.4375 285.796875 343.765625 286.539062 343.0625 287.242188 C 342.355469 287.949219 341.617188 288.621094 340.847656 289.253906 C 340.074219 289.886719 339.273438 290.480469 338.445312 291.035156 C 337.617188 291.589844 336.761719 292.101562 335.882812 292.574219 C 335.003906 293.042969 334.101562 293.46875 333.179688 293.851562 C 332.257812 294.234375 331.320312 294.570312 330.363281 294.859375 C 329.410156 295.148438 328.445312 295.390625 327.464844 295.585938 C 326.488281 295.78125 325.5 295.929688 324.507812 296.027344 C 323.515625 296.125 322.519531 296.171875 321.523438 296.171875 L 321.523438 258.796875 L 327.613281 258.796875 C 328.382812 258.796875 329.140625 258.726562 329.890625 258.582031 C 330.644531 258.4375 331.378906 258.226562 332.089844 257.941406 C 332.800781 257.660156 333.480469 257.316406 334.128906 256.902344 C 334.773438 256.492188 335.375 256.023438 335.933594 255.5 C 336.492188 254.976562 336.996094 254.402344 337.445312 253.78125 C 337.894531 253.160156 338.285156 252.503906 338.609375 251.8125 C 338.933594 251.117188 339.191406 250.398438 339.382812 249.65625 C 339.574219 248.914062 339.691406 248.160156 339.738281 247.394531 L 345.890625 247.394531 C 347.871094 250.03125 349.382812 252.914062 350.425781 256.042969 C 351.464844 259.171875 351.984375 262.386719 351.984375 265.6875 Z M 351.984375 265.6875 " fill-opacity="1" fill-rule="nonzero"/><path fill="#fce95f" d="M 345.769531 232.761719 C 345.828125 233.554688 345.890625 234.347656 345.890625 235.199219 C 345.890625 238.667969 345.320312 242.042969 344.183594 245.320312 C 344.785156 245.972656 345.335938 246.660156 345.828125 247.394531 L 339.738281 247.394531 C 339.789062 247.132812 339.808594 246.867188 339.800781 246.601562 C 339.792969 245.804688 339.710938 245.011719 339.550781 244.230469 C 339.390625 243.445312 339.15625 242.6875 338.847656 241.949219 C 338.539062 241.210938 338.164062 240.511719 337.71875 239.847656 C 337.273438 239.183594 336.769531 238.570312 336.203125 238.003906 C 335.640625 237.441406 335.027344 236.933594 334.363281 236.488281 C 333.699219 236.042969 333 235.667969 332.261719 235.359375 C 331.527344 235.050781 330.769531 234.816406 329.984375 234.65625 C 329.203125 234.496094 328.414062 234.414062 327.613281 234.40625 L 321.523438 234.40625 L 321.523438 216.90625 L 361.609375 216.90625 C 360.839844 218.664062 359.917969 220.335938 358.835938 221.921875 C 357.757812 223.503906 356.539062 224.976562 355.183594 226.332031 C 353.828125 227.6875 352.359375 228.90625 350.777344 229.988281 C 349.195312 231.070312 347.523438 231.992188 345.769531 232.761719 Z M 345.769531 232.761719 " fill-opacity="1" fill-rule="nonzero"/><path fill="#fcef88" d="M 362.460938 194.589844 C 363.597656 197.871094 364.164062 201.242188 364.167969 204.714844 C 364.171875 208.957031 363.320312 213.023438 361.609375 216.90625 L 321.523438 216.90625 L 321.523438 155.933594 L 364.167969 155.933594 C 364.691406 156.632812 365.183594 157.355469 365.644531 158.09375 C 366.105469 158.835938 366.535156 159.597656 366.933594 160.375 C 367.328125 161.152344 367.691406 161.949219 368.019531 162.757812 C 368.347656 163.566406 368.640625 164.390625 368.898438 165.226562 C 369.15625 166.058594 369.378906 166.90625 369.5625 167.757812 C 369.75 168.613281 369.898438 169.472656 370.007812 170.339844 C 370.121094 171.207031 370.195312 172.078125 370.230469 172.949219 C 370.265625 173.824219 370.265625 174.695312 370.226562 175.570312 C 370.1875 176.441406 370.113281 177.3125 370 178.179688 C 369.886719 179.042969 369.734375 179.90625 369.546875 180.757812 C 369.363281 181.613281 369.136719 182.457031 368.878906 183.289062 C 368.617188 184.125 368.324219 184.945312 367.992188 185.753906 C 367.664062 186.5625 367.300781 187.355469 366.902344 188.132812 C 366.503906 188.914062 366.070312 189.671875 365.609375 190.410156 C 365.144531 191.152344 364.648438 191.871094 364.125 192.570312 C 363.597656 193.265625 363.042969 193.941406 362.460938 194.589844 Z M 362.460938 194.589844 " fill-opacity="1" fill-rule="nonzero"/><path fill="#fce95f" d="M 242.328125 247.394531 C 242.332031 248.195312 242.417969 248.984375 242.578125 249.765625 C 242.738281 250.550781 242.972656 251.308594 243.277344 252.046875 C 243.585938 252.785156 243.964844 253.484375 244.410156 254.148438 C 244.851562 254.8125 245.359375 255.425781 245.921875 255.992188 C 246.488281 256.554688 247.101562 257.0625 247.765625 257.507812 C 248.425781 257.953125 249.125 258.328125 249.863281 258.636719 C 250.597656 258.945312 251.359375 259.179688 252.140625 259.339844 C 252.921875 259.5 253.714844 259.582031 254.511719 259.589844 L 260.601562 259.589844 L 260.601562 277.882812 L 242.328125 277.882812 L 242.328125 283.976562 C 242.320312 284.777344 242.238281 285.566406 242.078125 286.351562 C 241.917969 287.132812 241.683594 287.894531 241.375 288.632812 C 241.066406 289.367188 240.691406 290.070312 240.246094 290.730469 C 239.800781 291.394531 239.296875 292.011719 238.734375 292.574219 C 238.167969 293.140625 237.554688 293.644531 236.890625 294.089844 C 236.226562 294.535156 235.527344 294.914062 234.792969 295.21875 C 234.054688 295.527344 233.296875 295.761719 232.515625 295.921875 C 231.730469 296.085938 230.941406 296.167969 230.144531 296.171875 C 229.34375 296.171875 228.554688 296.089844 227.769531 295.933594 C 226.984375 295.773438 226.226562 295.542969 225.488281 295.234375 C 224.75 294.929688 224.046875 294.550781 223.382812 294.105469 C 222.71875 293.660156 222.105469 293.15625 221.539062 292.589844 C 220.972656 292.023438 220.46875 291.410156 220.023438 290.746094 C 219.578125 290.078125 219.203125 289.378906 218.898438 288.640625 C 218.589844 287.902344 218.359375 287.140625 218.199219 286.355469 C 218.042969 285.570312 217.960938 284.777344 217.960938 283.976562 L 217.960938 277.882812 L 199.683594 277.882812 L 199.683594 216.90625 L 260.601562 216.90625 L 260.601562 235.199219 L 254.511719 235.199219 C 253.710938 235.203125 252.921875 235.28125 252.136719 235.441406 C 251.351562 235.597656 250.59375 235.832031 249.855469 236.136719 C 249.117188 236.445312 248.414062 236.820312 247.75 237.265625 C 247.085938 237.710938 246.472656 238.214844 245.90625 238.78125 C 245.339844 239.347656 244.835938 239.964844 244.390625 240.628906 C 243.949219 241.292969 243.570312 241.996094 243.265625 242.734375 C 242.957031 243.472656 242.726562 244.234375 242.566406 245.019531 C 242.410156 245.800781 242.328125 246.59375 242.328125 247.394531 Z M 242.328125 247.394531 " fill-opacity="1" fill-rule="nonzero"/><path fill="#f3c350" d="M 260.601562 277.882812 L 260.601562 326.050781 C 259.90625 325.921875 259.214844 325.761719 258.53125 325.5625 C 258.214844 326.382812 257.859375 327.1875 257.46875 327.980469 C 257.082031 328.769531 256.660156 329.542969 256.203125 330.296875 C 255.75 331.050781 255.261719 331.78125 254.742188 332.492188 C 254.222656 333.203125 253.671875 333.890625 253.09375 334.554688 C 252.515625 335.21875 251.910156 335.855469 251.277344 336.46875 C 250.640625 337.078125 249.984375 337.660156 249.300781 338.214844 C 248.613281 338.769531 247.90625 339.292969 247.179688 339.785156 C 246.449219 340.277344 245.699219 340.738281 244.929688 341.167969 C 244.160156 341.59375 243.375 341.988281 242.570312 342.347656 C 241.765625 342.707031 240.949219 343.03125 240.117188 343.320312 C 239.285156 343.605469 238.441406 343.859375 237.589844 344.074219 C 236.734375 344.289062 235.875 344.46875 235.003906 344.609375 C 234.136719 344.75 233.261719 344.851562 232.386719 344.917969 C 231.507812 344.980469 230.628906 345.007812 229.75 344.996094 C 228.867188 344.984375 227.992188 344.933594 227.113281 344.847656 C 226.238281 344.761719 225.367188 344.636719 224.503906 344.472656 C 223.640625 344.308594 222.78125 344.109375 221.933594 343.871094 C 221.085938 343.632812 220.253906 343.359375 219.429688 343.050781 C 218.605469 342.738281 217.796875 342.394531 217 342.015625 C 216.207031 341.636719 215.429688 341.222656 214.671875 340.773438 C 213.914062 340.328125 213.175781 339.847656 212.460938 339.335938 C 211.742188 338.824219 211.050781 338.28125 210.382812 337.710938 C 209.710938 337.140625 209.066406 336.539062 208.449219 335.914062 C 207.832031 335.285156 207.242188 334.632812 206.679688 333.953125 C 206.121094 333.273438 205.589844 332.574219 205.089844 331.847656 C 204.589844 331.125 204.121094 330.378906 203.683594 329.613281 C 203.246094 328.847656 202.84375 328.066406 202.476562 327.265625 C 202.109375 326.464844 201.777344 325.652344 201.480469 324.820312 C 201.179688 323.992188 200.917969 323.152344 200.695312 322.300781 C 200.46875 321.449219 200.28125 320.589844 200.132812 319.722656 C 199.980469 318.855469 199.867188 317.980469 199.792969 317.101562 C 199.71875 316.226562 199.683594 315.347656 199.683594 314.464844 L 199.683594 277.882812 L 217.960938 277.882812 L 217.960938 283.976562 C 217.960938 284.777344 218.042969 285.570312 218.199219 286.355469 C 218.359375 287.140625 218.589844 287.902344 218.898438 288.640625 C 219.203125 289.378906 219.578125 290.078125 220.023438 290.746094 C 220.46875 291.410156 220.972656 292.023438 221.539062 292.589844 C 222.105469 293.15625 222.71875 293.660156 223.382812 294.105469 C 224.046875 294.550781 224.75 294.929688 225.488281 295.234375 C 226.226562 295.542969 226.984375 295.773438 227.769531 295.933594 C 228.554688 296.089844 229.34375 296.171875 230.144531 296.171875 C 230.941406 296.167969 231.730469 296.085938 232.515625 295.921875 C 233.296875 295.761719 234.054688 295.527344 234.792969 295.21875 C 235.527344 294.914062 236.226562 294.535156 236.890625 294.089844 C 237.554688 293.644531 238.167969 293.140625 238.734375 292.574219 C 239.296875 292.011719 239.800781 291.394531 240.246094 290.730469 C 240.691406 290.070312 241.066406 289.367188 241.375 288.632812 C 241.683594 287.894531 241.917969 287.132812 242.078125 286.351562 C 242.238281 285.566406 242.320312 284.777344 242.328125 283.976562 L 242.328125 277.882812 Z M 260.601562 277.882812 " fill-opacity="1" fill-rule="nonzero"/><path fill="#fcef88" d="M 321.523438 277.882812 L 321.523438 296.171875 C 320.671875 296.171875 319.878906 296.113281 319.085938 296.050781 C 318.496094 297.410156 317.808594 298.71875 317.03125 299.980469 C 316.25 301.238281 315.382812 302.433594 314.429688 303.570312 C 313.472656 304.703125 312.445312 305.761719 311.335938 306.746094 C 310.230469 307.730469 309.054688 308.628906 307.816406 309.441406 C 306.582031 310.253906 305.289062 310.972656 303.949219 311.597656 C 302.605469 312.226562 301.226562 312.75 299.808594 313.175781 C 298.386719 313.601562 296.945312 313.921875 295.480469 314.136719 C 294.015625 314.355469 292.542969 314.464844 291.0625 314.464844 C 289.644531 316.355469 288.023438 318.058594 286.210938 319.574219 C 284.394531 321.089844 282.429688 322.375 280.3125 323.433594 C 278.199219 324.492188 275.992188 325.292969 273.691406 325.839844 C 271.390625 326.382812 269.058594 326.65625 266.695312 326.660156 C 264.644531 326.675781 262.613281 326.472656 260.601562 326.050781 L 260.601562 277.882812 L 278.878906 277.882812 L 278.878906 271.785156 C 278.886719 270.984375 278.96875 270.195312 279.128906 269.410156 C 279.289062 268.628906 279.523438 267.867188 279.832031 267.132812 C 280.140625 266.394531 280.515625 265.695312 280.960938 265.03125 C 281.40625 264.367188 281.910156 263.753906 282.472656 263.1875 C 283.039062 262.621094 283.652344 262.117188 284.316406 261.671875 C 284.980469 261.226562 285.679688 260.851562 286.414062 260.542969 C 287.152344 260.234375 287.910156 260 288.691406 259.839844 C 289.476562 259.679688 290.265625 259.59375 291.0625 259.589844 C 291.863281 259.589844 292.652344 259.671875 293.4375 259.828125 C 294.222656 259.988281 294.980469 260.21875 295.71875 260.527344 C 296.457031 260.835938 297.160156 261.210938 297.824219 261.65625 C 298.488281 262.101562 299.101562 262.605469 299.667969 263.171875 C 300.234375 263.738281 300.738281 264.351562 301.183594 265.015625 C 301.628906 265.683594 302.003906 266.382812 302.308594 267.121094 C 302.617188 267.863281 302.847656 268.621094 303.007812 269.40625 C 303.164062 270.191406 303.246094 270.984375 303.246094 271.785156 L 303.246094 277.882812 Z M 321.523438 277.882812 " fill-opacity="1" fill-rule="nonzero"/><path fill="#f3c350" d="M 339.800781 246.601562 C 339.808594 246.867188 339.789062 247.132812 339.738281 247.394531 C 339.691406 248.160156 339.574219 248.914062 339.382812 249.65625 C 339.191406 250.398438 338.933594 251.117188 338.609375 251.8125 C 338.285156 252.503906 337.894531 253.160156 337.445312 253.78125 C 336.996094 254.402344 336.492188 254.976562 335.933594 255.5 C 335.375 256.023438 334.773438 256.492188 334.128906 256.902344 C 333.480469 257.316406 332.800781 257.660156 332.089844 257.941406 C 331.378906 258.226562 330.644531 258.4375 329.890625 258.582031 C 329.140625 258.726562 328.382812 258.796875 327.613281 258.796875 L 321.523438 258.796875 L 321.523438 277.882812 L 303.246094 277.882812 L 303.246094 271.785156 C 303.246094 270.984375 303.164062 270.191406 303.007812 269.40625 C 302.847656 268.621094 302.617188 267.863281 302.308594 267.121094 C 302.003906 266.382812 301.628906 265.683594 301.183594 265.015625 C 300.738281 264.351562 300.234375 263.738281 299.667969 263.171875 C 299.101562 262.605469 298.488281 262.101562 297.824219 261.65625 C 297.160156 261.210938 296.457031 260.835938 295.71875 260.527344 C 294.980469 260.21875 294.222656 259.988281 293.4375 259.828125 C 292.652344 259.671875 291.863281 259.589844 291.0625 259.589844 C 290.265625 259.59375 289.476562 259.679688 288.691406 259.839844 C 287.910156 260 287.152344 260.234375 286.414062 260.542969 C 285.679688 260.851562 284.980469 261.226562 284.316406 261.671875 C 283.652344 262.117188 283.039062 262.621094 282.472656 263.1875 C 281.910156 263.753906 281.40625 264.367188 280.960938 265.03125 C 280.515625 265.695312 280.140625 266.394531 279.832031 267.132812 C 279.523438 267.867188 279.289062 268.628906 279.128906 269.410156 C 278.96875 270.195312 278.886719 270.984375 278.878906 271.785156 L 278.878906 277.882812 L 260.601562 277.882812 L 260.601562 259.589844 L 254.511719 259.589844 C 253.714844 259.582031 252.921875 259.5 252.140625 259.339844 C 251.359375 259.179688 250.597656 258.945312 249.863281 258.636719 C 249.125 258.328125 248.425781 257.953125 247.765625 257.507812 C 247.101562 257.0625 246.488281 256.554688 245.921875 255.992188 C 245.359375 255.425781 244.851562 254.8125 244.410156 254.148438 C 243.964844 253.484375 243.585938 252.785156 243.277344 252.046875 C 242.972656 251.308594 242.738281 250.550781 242.578125 249.765625 C 242.417969 248.984375 242.332031 248.195312 242.328125 247.394531 C 242.328125 246.59375 242.410156 245.800781 242.566406 245.019531 C 242.726562 244.234375 242.957031 243.472656 243.265625 242.734375 C 243.570312 241.996094 243.949219 241.292969 244.390625 240.628906 C 244.835938 239.964844 245.339844 239.347656 245.90625 238.78125 C 246.472656 238.214844 247.085938 237.710938 247.75 237.265625 C 248.414062 236.820312 249.117188 236.445312 249.855469 236.136719 C 250.59375 235.832031 251.351562 235.597656 252.136719 235.441406 C 252.921875 235.28125 253.710938 235.203125 254.511719 235.199219 L 260.601562 235.199219 L 260.601562 216.90625 L 321.523438 216.90625 L 321.523438 234.40625 L 327.613281 234.40625 C 328.414062 234.414062 329.203125 234.496094 329.984375 234.65625 C 330.769531 234.816406 331.527344 235.050781 332.261719 235.359375 C 333 235.667969 333.699219 236.042969 334.363281 236.488281 C 335.027344 236.933594 335.640625 237.441406 336.203125 238.003906 C 336.769531 238.570312 337.273438 239.183594 337.71875 239.847656 C 338.164062 240.511719 338.539062 241.210938 338.847656 241.949219 C 339.15625 242.6875 339.390625 243.445312 339.550781 244.230469 C 339.710938 245.011719 339.792969 245.804688 339.800781 246.601562 Z M 339.800781 246.601562 " fill-opacity="1" fill-rule="nonzero"/><g clip-path="url(#49a73d0d26)"><path fill="#f3c350" d="M 358.074219 27.890625 L 358.074219 88.863281 L 339.800781 88.863281 L 339.800781 82.765625 C 339.796875 81.964844 339.714844 81.175781 339.558594 80.390625 C 339.402344 79.605469 339.167969 78.84375 338.863281 78.105469 C 338.554688 77.367188 338.179688 76.664062 337.734375 76 C 337.289062 75.335938 336.785156 74.71875 336.21875 74.15625 C 335.65625 73.589844 335.039062 73.082031 334.375 72.636719 C 333.710938 72.191406 333.011719 71.816406 332.273438 71.511719 C 331.535156 71.203125 330.773438 70.96875 329.988281 70.8125 C 329.207031 70.65625 328.414062 70.574219 327.613281 70.570312 C 326.816406 70.578125 326.027344 70.660156 325.246094 70.820312 C 324.460938 70.980469 323.703125 71.214844 322.964844 71.523438 C 322.230469 71.832031 321.53125 72.210938 320.867188 72.65625 C 320.203125 73.101562 319.589844 73.605469 319.027344 74.171875 C 318.460938 74.734375 317.957031 75.347656 317.511719 76.011719 C 317.066406 76.675781 316.691406 77.375 316.382812 78.113281 C 316.074219 78.851562 315.839844 79.609375 315.679688 80.394531 C 315.519531 81.175781 315.4375 81.96875 315.429688 82.765625 L 315.429688 88.863281 L 297.15625 88.863281 L 297.15625 70.570312 L 291.0625 70.570312 C 290.265625 70.570312 289.472656 70.488281 288.6875 70.332031 C 287.90625 70.171875 287.144531 69.941406 286.40625 69.632812 C 285.667969 69.328125 284.96875 68.949219 284.304688 68.503906 C 283.636719 68.0625 283.023438 67.554688 282.457031 66.988281 C 281.894531 66.421875 281.386719 65.808594 280.945312 65.144531 C 280.5 64.480469 280.125 63.777344 279.816406 63.039062 C 279.507812 62.300781 279.277344 61.539062 279.121094 60.753906 C 278.960938 59.96875 278.882812 59.175781 278.878906 58.378906 C 278.886719 57.578125 278.96875 56.789062 279.128906 56.003906 C 279.289062 55.222656 279.523438 54.460938 279.832031 53.726562 C 280.140625 52.988281 280.515625 52.289062 280.960938 51.625 C 281.40625 50.960938 281.910156 50.347656 282.472656 49.78125 C 283.039062 49.214844 283.652344 48.710938 284.316406 48.265625 C 284.980469 47.820312 285.679688 47.445312 286.414062 47.136719 C 287.152344 46.828125 287.910156 46.59375 288.691406 46.433594 C 289.476562 46.273438 290.265625 46.1875 291.0625 46.183594 L 297.15625 46.183594 L 297.15625 27.890625 Z M 358.074219 27.890625 " fill-opacity="1" fill-rule="nonzero"/></g></svg>