<svg xmlns="http://www.w3.org/2000/svg" xmlns:xlink="http://www.w3.org/1999/xlink" zoomAndPan="magnify" preserveAspectRatio="xMidYMid meet" version="1.0" viewBox="0 31.36 375 312"><defs><clipPath id="60fc1ef7ed"><path d="M 0 31.363281 L 375 31.363281 L 375 343.363281 L 0 343.363281 Z M 0 31.363281 " clip-rule="nonzero"/></clipPath></defs><path fill="#6090f2" d="M 373.855469 156.359375 L 311.710938 218.449219 L 286.105469 192.867188 C 285.539062 193.433594 284.8125 194.324219 284.164062 195.214844 C 282.785156 197.078125 281.976562 199.34375 281.8125 201.613281 C 281.652344 203.878906 281.164062 206.875 279.789062 208.25 C 275.65625 212.378906 267.957031 211.246094 262.527344 205.820312 C 257.101562 200.398438 256.046875 192.707031 260.097656 188.578125 C 261.476562 187.203125 264.390625 186.796875 266.824219 186.636719 C 269.417969 186.472656 271.847656 185.582031 273.871094 184.042969 C 274.519531 183.558594 275.167969 182.992188 275.734375 182.425781 L 249.644531 156.359375 L 275.25 130.777344 C 274.84375 130.453125 274.441406 130.128906 274.035156 129.804688 C 272.171875 128.429688 269.902344 127.617188 267.632812 127.457031 C 265.363281 127.296875 262.367188 126.808594 260.988281 125.433594 C 256.855469 121.304688 257.992188 113.613281 263.421875 108.191406 C 268.847656 102.765625 276.546875 101.714844 280.679688 105.761719 C 282.054688 107.136719 282.460938 110.050781 282.621094 112.480469 C 282.785156 115.070312 283.675781 117.5 285.214844 119.523438 C 285.378906 119.765625 285.621094 120.007812 285.863281 120.253906 L 311.871094 94.265625 Z M 223.960938 254.878906 C 224.203125 254.636719 224.449219 254.476562 224.691406 254.230469 C 226.714844 252.613281 229.148438 251.722656 231.738281 251.640625 C 234.089844 251.5625 237.085938 251.074219 238.464844 249.699219 C 242.597656 245.570312 241.460938 237.878906 236.035156 232.457031 C 230.605469 227.03125 222.90625 225.980469 218.777344 230.027344 C 217.398438 231.402344 216.910156 234.398438 216.75 236.664062 C 216.585938 239.011719 215.777344 241.199219 214.398438 243.0625 C 214.074219 243.464844 213.753906 243.871094 213.429688 244.273438 L 187.5 218.371094 L 161.652344 244.195312 C 161.410156 243.949219 161.246094 243.707031 161.003906 243.464844 C 159.382812 241.441406 158.492188 239.011719 158.410156 236.421875 C 158.332031 234.074219 157.84375 231.078125 156.46875 229.703125 C 152.335938 225.574219 144.636719 226.707031 139.210938 232.132812 C 133.78125 237.554688 132.726562 245.246094 136.777344 249.375 C 138.15625 250.75 141.152344 251.238281 143.421875 251.398438 C 145.773438 251.5625 147.960938 252.371094 149.824219 253.746094 C 150.230469 254.070312 150.632812 254.394531 151.039062 254.71875 L 125.273438 280.460938 L 187.417969 342.554688 L 249.566406 280.460938 Z M 223.960938 254.878906 " fill-opacity="1" fill-rule="nonzero"/><path fill="#fa5613" d="M 311.710938 218.449219 L 249.566406 280.542969 L 223.960938 254.878906 C 224.203125 254.636719 224.449219 254.476562 224.691406 254.230469 C 226.714844 252.613281 229.148438 251.722656 231.738281 251.640625 C 234.089844 251.5625 237.085938 251.074219 238.464844 249.699219 C 242.597656 245.570312 241.460938 237.878906 236.035156 232.457031 C 230.605469 227.03125 222.90625 225.980469 218.777344 230.027344 C 217.398438 231.402344 216.910156 234.398438 216.75 236.664062 C 216.585938 239.011719 215.777344 241.199219 214.398438 243.0625 C 214.074219 243.464844 213.753906 243.949219 213.429688 244.273438 L 187.5 218.371094 L 213.265625 192.625 C 213.753906 193.191406 214.320312 193.921875 214.886719 194.648438 C 216.265625 196.511719 217.074219 198.777344 217.234375 201.046875 C 217.398438 203.3125 217.882812 206.308594 219.261719 207.683594 C 223.394531 211.8125 231.089844 210.679688 236.519531 205.253906 C 241.949219 199.832031 243 192.140625 238.949219 188.011719 C 237.574219 186.636719 234.65625 186.230469 232.226562 186.066406 C 229.632812 185.90625 227.203125 185.015625 225.175781 183.476562 C 224.691406 183.074219 224.125 182.667969 223.636719 182.183594 L 249.566406 156.277344 L 275.65625 182.34375 C 275.085938 182.910156 274.441406 183.398438 273.792969 183.964844 C 271.765625 185.582031 269.335938 186.472656 266.742188 186.554688 C 264.390625 186.636719 261.394531 187.121094 260.015625 188.496094 C 255.886719 192.625 257.019531 200.316406 262.449219 205.742188 C 267.875 211.164062 275.574219 212.214844 279.707031 208.167969 C 281.082031 206.792969 281.570312 203.796875 281.730469 201.53125 C 281.894531 199.183594 282.703125 196.996094 284.082031 195.136719 C 284.730469 194.246094 285.457031 193.355469 286.027344 192.789062 Z M 161.328125 68.199219 C 161.652344 67.957031 161.976562 67.710938 162.300781 67.386719 C 164.328125 65.769531 166.757812 64.878906 169.351562 64.796875 C 171.699219 64.71875 174.699219 64.230469 176.074219 62.855469 C 180.207031 58.726562 179.074219 51.035156 173.644531 45.613281 C 168.214844 40.1875 160.519531 39.136719 156.386719 43.183594 C 155.007812 44.558594 154.523438 47.554688 154.359375 49.820312 C 154.199219 52.167969 153.386719 54.355469 152.011719 56.214844 C 151.605469 56.703125 151.28125 57.1875 150.875 57.675781 L 125.355469 32.253906 L 63.289062 94.347656 L 88.730469 119.765625 C 89.054688 119.363281 89.378906 118.957031 89.703125 118.550781 C 91.082031 116.691406 91.890625 114.421875 92.054688 112.15625 C 92.214844 109.808594 92.699219 106.894531 94.078125 105.519531 C 98.210938 101.390625 105.90625 102.523438 111.335938 107.945312 C 116.765625 113.371094 117.820312 121.0625 113.765625 125.191406 C 112.390625 126.566406 109.472656 126.972656 107.042969 127.132812 C 104.449219 127.296875 102.019531 128.1875 99.992188 129.722656 C 99.75 129.886719 99.507812 130.128906 99.265625 130.371094 L 125.433594 156.519531 L 151.199219 130.777344 C 150.632812 130.289062 149.90625 129.722656 149.175781 129.15625 C 147.3125 127.78125 145.042969 126.972656 142.773438 126.808594 C 140.503906 126.648438 137.507812 126.160156 136.128906 124.785156 C 131.996094 120.65625 133.132812 112.964844 138.5625 107.542969 C 143.988281 102.117188 151.6875 101.066406 155.820312 105.113281 C 157.195312 106.488281 157.601562 109.402344 157.765625 111.832031 C 157.925781 114.421875 158.816406 116.851562 160.355469 118.875 C 160.761719 119.363281 161.167969 119.929688 161.652344 120.414062 L 187.582031 94.507812 Z M 161.328125 68.199219 " fill-opacity="1" fill-rule="nonzero"/><path fill="#f7ba20" d="M 311.710938 94.347656 L 285.703125 120.332031 C 285.457031 120.089844 285.296875 119.847656 285.054688 119.605469 C 283.433594 117.582031 282.542969 115.152344 282.460938 112.5625 C 282.378906 110.214844 281.894531 107.21875 280.515625 105.84375 C 276.382812 101.714844 268.6875 102.847656 263.257812 108.269531 C 257.828125 113.695312 256.777344 121.386719 260.828125 125.515625 C 262.203125 126.890625 265.203125 127.375 267.472656 127.539062 C 269.820312 127.699219 272.007812 128.507812 273.871094 129.886719 C 274.277344 130.210938 274.683594 130.535156 275.085938 130.855469 L 249.484375 156.4375 L 223.71875 130.695312 C 223.152344 131.261719 222.421875 132.152344 221.773438 133.042969 C 220.394531 134.90625 219.585938 137.171875 219.421875 139.4375 C 219.261719 141.707031 218.777344 144.699219 217.398438 146.078125 C 213.265625 150.207031 205.570312 149.070312 200.140625 143.648438 C 194.710938 138.222656 193.65625 130.535156 197.710938 126.40625 C 199.085938 125.027344 202.003906 124.625 204.433594 124.460938 C 207.027344 124.300781 209.457031 123.410156 211.484375 121.871094 C 212.132812 121.386719 212.78125 120.820312 213.347656 120.253906 L 187.417969 94.347656 L 213.507812 68.277344 C 214.074219 68.847656 214.5625 69.492188 215.128906 70.140625 C 216.75 72.164062 217.640625 74.59375 217.722656 77.183594 C 217.804688 79.53125 218.289062 82.527344 219.667969 83.902344 C 223.800781 88.03125 231.496094 86.898438 236.925781 81.476562 C 242.355469 76.050781 243.40625 68.359375 239.355469 64.230469 C 237.976562 62.855469 234.980469 62.371094 232.710938 62.207031 C 230.363281 62.046875 228.175781 61.234375 226.3125 59.859375 C 225.417969 59.210938 224.527344 58.484375 223.960938 57.917969 L 249.644531 32.253906 Z M 99.265625 130.289062 C 99.507812 130.046875 99.75 129.886719 99.992188 129.644531 C 102.019531 128.023438 104.449219 127.132812 107.042969 127.050781 C 109.390625 126.972656 112.390625 126.484375 113.765625 125.109375 C 117.898438 120.980469 116.765625 113.289062 111.335938 107.867188 C 105.90625 102.441406 98.210938 101.390625 94.078125 105.4375 C 92.699219 106.8125 92.214844 109.808594 92.054688 112.074219 C 91.890625 114.421875 91.082031 116.609375 89.703125 118.472656 C 89.378906 118.875 89.054688 119.28125 88.730469 119.683594 L 63.289062 94.347656 L 1.144531 156.359375 L 63.289062 218.449219 L 89.054688 192.707031 C 89.621094 193.273438 90.109375 193.921875 90.675781 194.570312 C 92.296875 196.59375 93.1875 199.019531 93.269531 201.613281 C 93.347656 203.960938 93.835938 206.953125 95.210938 208.332031 C 99.34375 212.460938 107.042969 211.328125 112.472656 205.902344 C 117.898438 200.476562 118.953125 192.789062 114.902344 188.660156 C 113.523438 187.28125 110.527344 186.796875 108.257812 186.636719 C 105.90625 186.472656 103.71875 185.664062 101.855469 184.289062 C 100.964844 183.640625 100.074219 182.910156 99.507812 182.34375 L 125.515625 156.359375 Z M 99.265625 130.289062 " fill-opacity="1" fill-rule="nonzero"/><g clip-path="url(#60fc1ef7ed)"><path fill="#545454" d="M 374.425781 155.792969 L 312.277344 93.78125 L 250.214844 31.6875 C 249.890625 31.363281 249.402344 31.363281 249.078125 31.6875 L 223.476562 57.269531 C 223.152344 57.59375 223.152344 58.078125 223.476562 58.402344 C 224.042969 58.96875 224.851562 59.617188 225.90625 60.425781 C 227.851562 61.882812 230.28125 62.773438 232.792969 62.9375 C 235.789062 63.097656 237.976562 63.746094 238.949219 64.71875 C 242.757812 68.523438 241.625 75.726562 236.519531 80.828125 C 231.414062 85.925781 224.203125 86.980469 220.394531 83.253906 C 219.421875 82.285156 218.855469 80.097656 218.695312 77.101562 C 218.53125 74.351562 217.558594 71.761719 215.859375 69.65625 C 215.292969 68.925781 214.722656 68.277344 214.238281 67.710938 C 214.074219 67.550781 213.914062 67.46875 213.671875 67.46875 C 213.429688 67.46875 213.265625 67.550781 213.105469 67.710938 L 187.5 93.214844 L 162.542969 68.277344 C 162.625 68.199219 162.707031 68.117188 162.789062 68.117188 C 164.652344 66.660156 166.917969 65.769531 169.351562 65.6875 C 172.914062 65.527344 175.347656 64.796875 176.5625 63.503906 C 181.019531 59.050781 179.882812 50.875 174.132812 45.125 C 168.378906 39.378906 160.113281 38.324219 155.738281 42.699219 C 154.523438 43.910156 153.710938 46.339844 153.46875 49.902344 C 153.308594 52.089844 152.578125 54.191406 151.28125 55.894531 C 151.121094 56.136719 150.957031 56.378906 150.714844 56.621094 L 125.921875 31.6875 C 125.597656 31.363281 125.109375 31.363281 124.785156 31.6875 L 62.722656 93.78125 L 0.574219 155.792969 C 0.25 156.113281 0.25 156.601562 0.574219 156.925781 L 62.722656 219.015625 C 62.882812 219.179688 63.125 219.261719 63.289062 219.261719 C 63.449219 219.261719 63.695312 219.179688 63.855469 219.015625 L 88.972656 193.921875 C 89.296875 194.324219 89.621094 194.730469 89.945312 195.136719 C 91.40625 196.996094 92.296875 199.265625 92.375 201.691406 C 92.539062 205.253906 93.269531 207.683594 94.566406 208.898438 C 96.753906 211.082031 99.832031 211.972656 103.394531 211.488281 C 106.800781 211.003906 110.203125 209.222656 112.957031 206.46875 C 115.710938 203.714844 117.496094 200.316406 117.980469 196.917969 C 118.46875 193.433594 117.574219 190.277344 115.386719 188.09375 C 114.171875 186.878906 111.742188 186.066406 108.175781 185.824219 C 105.988281 185.664062 103.882812 184.933594 102.179688 183.640625 C 101.53125 183.152344 100.964844 182.667969 100.480469 182.261719 L 125.921875 156.925781 L 151.6875 131.179688 C 151.847656 131.019531 151.929688 130.777344 151.929688 130.613281 C 151.929688 130.371094 151.847656 130.210938 151.6875 130.046875 C 151.199219 129.5625 150.472656 128.996094 149.660156 128.347656 C 147.71875 126.890625 145.285156 126 142.773438 125.839844 C 139.777344 125.675781 137.589844 125.027344 136.617188 124.058594 C 132.808594 120.253906 133.941406 113.046875 139.046875 107.945312 C 144.152344 102.847656 151.363281 101.792969 155.171875 105.519531 C 156.144531 106.488281 156.710938 108.675781 156.871094 111.671875 C 157.035156 114.421875 158.007812 117.015625 159.707031 119.117188 C 160.113281 119.683594 160.601562 120.171875 161.003906 120.65625 C 161.167969 120.820312 161.328125 120.898438 161.570312 120.898438 C 161.816406 120.898438 161.976562 120.820312 162.140625 120.65625 L 187.5 95.480469 L 212.292969 120.253906 C 211.886719 120.574219 211.484375 120.898438 211.078125 121.222656 C 209.214844 122.679688 206.945312 123.570312 204.515625 123.652344 C 200.949219 123.8125 198.519531 124.542969 197.304688 125.839844 C 192.847656 130.289062 193.980469 138.46875 199.734375 144.214844 C 205.488281 149.960938 213.753906 151.015625 218.128906 146.644531 C 219.34375 145.429688 220.152344 143 220.394531 139.4375 C 220.558594 137.253906 221.289062 135.148438 222.582031 133.449219 C 223.070312 132.800781 223.554688 132.234375 223.960938 131.746094 L 248.59375 156.359375 L 223.230469 181.695312 C 223.070312 181.859375 222.988281 182.101562 222.988281 182.261719 C 222.988281 182.507812 223.070312 182.667969 223.230469 182.832031 C 223.71875 183.234375 224.203125 183.640625 224.769531 184.125 C 226.878906 185.824219 229.472656 186.796875 232.226562 186.957031 C 235.222656 187.121094 237.492188 187.6875 238.382812 188.660156 C 240.167969 190.441406 240.976562 193.113281 240.570312 196.105469 C 240.167969 199.183594 238.546875 202.257812 236.035156 204.769531 C 233.523438 207.277344 230.441406 208.898438 227.363281 209.300781 C 224.367188 209.707031 221.691406 208.980469 219.910156 207.117188 C 218.9375 206.144531 218.371094 204.039062 218.128906 200.964844 C 217.964844 198.453125 217.074219 196.105469 215.617188 194.082031 C 214.96875 193.191406 214.398438 192.542969 213.914062 192.058594 C 213.753906 191.898438 213.589844 191.816406 213.347656 191.816406 C 213.105469 191.816406 212.941406 191.898438 212.78125 192.058594 L 187.015625 217.800781 L 161.816406 242.980469 C 161.816406 242.980469 161.816406 242.980469 161.816406 242.898438 C 160.355469 241.035156 159.464844 238.769531 159.382812 236.339844 C 159.222656 232.777344 158.492188 230.351562 157.195312 229.136719 C 152.742188 224.683594 144.558594 225.816406 138.804688 231.566406 C 133.050781 237.3125 131.996094 245.570312 136.375 249.941406 C 137.589844 251.15625 140.019531 251.964844 143.585938 252.207031 C 145.773438 252.371094 147.878906 253.097656 149.582031 254.394531 C 149.742188 254.554688 149.90625 254.636719 150.066406 254.800781 L 124.949219 279.894531 C 124.625 280.21875 124.625 280.703125 124.949219 281.027344 L 187.09375 343.121094 C 187.257812 343.28125 187.5 343.363281 187.660156 343.363281 C 187.824219 343.363281 188.066406 343.28125 188.230469 343.121094 L 250.375 281.027344 L 312.519531 218.9375 L 374.667969 156.84375 C 374.75 156.683594 374.75 156.113281 374.425781 155.792969 Z M 98.777344 181.777344 C 98.453125 182.101562 98.453125 182.585938 98.777344 182.910156 C 99.34375 183.476562 100.15625 184.125 101.207031 184.933594 C 103.152344 186.390625 105.582031 187.28125 108.09375 187.445312 C 111.09375 187.605469 113.28125 188.253906 114.253906 189.226562 L 114.820312 188.660156 L 114.253906 189.226562 C 118.0625 193.03125 116.925781 200.234375 111.824219 205.335938 C 109.3125 207.84375 106.230469 209.464844 103.152344 209.867188 C 100.15625 210.273438 97.480469 209.546875 95.699219 207.683594 C 94.726562 206.710938 94.160156 204.527344 93.996094 201.53125 C 93.835938 198.777344 92.863281 196.1875 91.160156 194.082031 C 90.59375 193.355469 90.027344 192.707031 89.542969 192.140625 C 89.378906 191.976562 89.21875 191.898438 88.972656 191.898438 C 88.730469 191.898438 88.570312 191.976562 88.40625 192.140625 L 63.289062 217.234375 L 2.277344 156.359375 L 63.289062 95.398438 L 88.164062 120.253906 C 88.324219 120.414062 88.488281 120.414062 88.648438 120.496094 C 88.648438 120.496094 88.730469 120.496094 88.730469 120.496094 C 88.8125 120.496094 88.894531 120.496094 88.972656 120.414062 C 88.972656 120.414062 89.054688 120.414062 89.054688 120.414062 C 89.136719 120.414062 89.136719 120.332031 89.136719 120.332031 C 89.21875 120.332031 89.21875 120.253906 89.296875 120.253906 C 89.621094 119.847656 89.945312 119.441406 90.269531 118.957031 C 91.160156 117.742188 91.890625 116.367188 92.296875 114.828125 C 92.539062 113.9375 92.699219 113.046875 92.78125 112.074219 C 92.945312 109.082031 93.59375 106.894531 94.566406 105.921875 C 96.265625 104.222656 98.617188 103.496094 101.207031 103.738281 C 104.367188 103.980469 107.851562 105.519531 110.6875 108.351562 C 111.253906 108.917969 111.742188 109.484375 112.226562 110.132812 C 112.308594 110.214844 112.390625 110.292969 112.472656 110.375 C 115.632812 114.667969 116.277344 119.683594 114.171875 123.167969 C 113.847656 123.652344 113.523438 124.058594 113.121094 124.460938 C 112.148438 125.433594 109.960938 126 106.960938 126.160156 C 106.960938 126.160156 106.878906 126.160156 106.878906 126.160156 C 104.125 126.324219 101.613281 127.296875 99.507812 128.914062 C 99.265625 129.15625 99.019531 129.320312 98.777344 129.5625 C 98.695312 129.5625 98.695312 129.644531 98.695312 129.722656 C 98.695312 129.722656 98.617188 129.804688 98.617188 129.804688 C 98.617188 129.886719 98.617188 129.886719 98.617188 129.964844 C 98.617188 130.046875 98.535156 130.046875 98.535156 130.128906 C 98.535156 130.210938 98.535156 130.210938 98.535156 130.289062 C 98.535156 130.453125 98.617188 130.613281 98.777344 130.777344 L 124.382812 156.359375 Z M 161.570312 119.039062 C 161.328125 118.792969 161.085938 118.472656 160.925781 118.226562 C 159.464844 116.367188 158.574219 114.097656 158.492188 111.671875 C 158.332031 108.109375 157.601562 105.679688 156.304688 104.464844 C 151.847656 100.011719 143.664062 101.148438 137.914062 106.894531 C 132.160156 112.640625 131.105469 120.898438 135.480469 125.269531 C 136.699219 126.484375 139.128906 127.296875 142.691406 127.539062 C 144.882812 127.699219 146.988281 128.429688 148.6875 129.722656 C 149.175781 130.128906 149.582031 130.453125 149.984375 130.777344 L 125.433594 155.304688 L 100.480469 130.371094 C 100.480469 130.371094 100.480469 130.371094 100.558594 130.371094 C 102.425781 128.914062 104.691406 128.023438 107.125 127.941406 C 110.6875 127.78125 113.121094 127.050781 114.335938 125.757812 C 118.789062 121.304688 117.65625 113.128906 111.902344 107.378906 C 106.554688 102.039062 98.941406 100.742188 94.320312 104.222656 C 93.996094 104.464844 93.753906 104.707031 93.429688 104.953125 C 92.214844 106.164062 91.40625 108.59375 91.160156 112.15625 C 91.160156 112.722656 91.082031 113.210938 90.917969 113.777344 C 90.59375 115.394531 89.945312 116.851562 88.972656 118.148438 C 88.8125 118.308594 88.730469 118.472656 88.570312 118.632812 L 64.421875 94.347656 L 125.433594 33.386719 L 150.308594 58.242188 C 150.472656 58.402344 150.714844 58.484375 150.875 58.484375 C 151.121094 58.484375 151.28125 58.402344 151.445312 58.160156 C 151.769531 57.753906 152.171875 57.269531 152.578125 56.703125 C 154.035156 54.757812 154.929688 52.332031 155.089844 49.820312 C 155.253906 46.824219 155.898438 44.640625 156.871094 43.667969 C 160.679688 39.863281 167.890625 40.996094 172.996094 46.097656 C 178.101562 51.199219 179.15625 58.402344 175.425781 62.207031 C 174.453125 63.179688 172.265625 63.746094 169.269531 63.90625 C 166.515625 64.070312 163.921875 65.039062 161.816406 66.742188 C 161.492188 66.984375 161.167969 67.226562 160.84375 67.550781 C 160.679688 67.710938 160.601562 67.875 160.519531 68.117188 C 160.519531 68.359375 160.601562 68.601562 160.761719 68.683594 L 186.367188 94.265625 Z M 223.800781 129.804688 C 223.554688 129.804688 223.394531 129.886719 223.230469 130.046875 C 222.664062 130.613281 222.015625 131.421875 221.207031 132.476562 C 219.746094 134.417969 218.855469 136.847656 218.695312 139.355469 C 218.53125 142.351562 217.882812 144.539062 216.910156 145.511719 C 213.105469 149.316406 205.890625 148.179688 200.789062 143.082031 C 195.683594 137.980469 194.628906 130.777344 198.355469 126.972656 C 199.328125 126 201.515625 125.433594 204.515625 125.269531 C 207.269531 125.109375 209.863281 124.136719 211.96875 122.4375 C 212.699219 121.871094 213.347656 121.304688 213.914062 120.820312 C 214.074219 120.65625 214.15625 120.496094 214.15625 120.253906 C 214.15625 120.007812 214.074219 119.847656 213.914062 119.683594 L 188.554688 94.347656 L 213.429688 69.492188 C 213.753906 69.898438 214.074219 70.304688 214.398438 70.707031 C 215.859375 72.570312 216.75 74.835938 216.832031 77.265625 C 216.992188 80.828125 217.722656 83.253906 219.019531 84.46875 C 223.476562 88.839844 231.660156 87.789062 237.410156 82.042969 C 243.164062 76.292969 244.21875 68.035156 239.84375 63.664062 C 238.625 62.449219 236.195312 61.640625 232.628906 61.398438 C 230.441406 61.234375 228.335938 60.507812 226.636719 59.210938 C 225.988281 58.726562 225.417969 58.242188 224.933594 57.835938 L 249.402344 33.386719 L 310.414062 94.347656 L 285.621094 119.117188 C 285.621094 119.117188 285.621094 119.117188 285.621094 119.039062 C 285.054688 118.308594 284.566406 117.582031 284.242188 116.769531 C 283.59375 115.476562 283.269531 114.019531 283.191406 112.480469 C 283.191406 112.398438 283.191406 112.398438 283.191406 112.320312 C 283.027344 108.835938 282.300781 106.488281 281.003906 105.195312 C 280.921875 105.113281 280.839844 105.03125 280.757812 105.03125 C 280.515625 104.871094 280.355469 104.628906 280.109375 104.464844 C 280.03125 104.386719 279.949219 104.386719 279.867188 104.304688 C 279.625 104.140625 279.382812 103.980469 279.140625 103.816406 C 279.058594 103.738281 278.894531 103.738281 278.816406 103.65625 C 278.570312 103.496094 278.328125 103.414062 278.085938 103.332031 C 278.003906 103.25 277.84375 103.25 277.679688 103.171875 C 277.4375 103.089844 277.195312 103.007812 276.953125 102.925781 C 276.789062 102.847656 276.628906 102.847656 276.464844 102.847656 C 276.222656 102.765625 275.980469 102.765625 275.734375 102.683594 C 275.574219 102.683594 275.410156 102.605469 275.167969 102.605469 C 274.925781 102.605469 274.765625 102.523438 274.519531 102.523438 C 274.277344 102.523438 274.117188 102.523438 273.871094 102.523438 C 273.710938 102.523438 273.46875 102.523438 273.304688 102.523438 C 273.0625 102.523438 272.820312 102.523438 272.574219 102.605469 C 272.414062 102.605469 272.253906 102.605469 272.089844 102.683594 C 271.847656 102.683594 271.523438 102.765625 271.28125 102.847656 C 271.117188 102.847656 271.035156 102.925781 270.875 102.925781 C 270.550781 103.007812 270.226562 103.089844 269.902344 103.171875 C 269.820312 103.171875 269.660156 103.25 269.578125 103.25 C 269.253906 103.332031 268.847656 103.496094 268.523438 103.65625 C 268.445312 103.65625 268.363281 103.738281 268.28125 103.738281 C 267.875 103.898438 267.472656 104.0625 267.148438 104.304688 C 267.148438 104.304688 267.066406 104.304688 267.066406 104.304688 C 265.445312 105.113281 263.824219 106.246094 262.367188 107.703125 C 262.042969 108.027344 261.636719 108.433594 261.3125 108.835938 C 261.3125 108.835938 261.3125 108.917969 261.234375 108.917969 C 259.125 111.429688 257.75 114.34375 257.261719 117.335938 C 256.777344 120.820312 257.667969 123.976562 259.855469 126.160156 C 261.070312 127.375 263.5 128.1875 267.066406 128.429688 C 269.253906 128.589844 271.359375 129.320312 273.0625 130.613281 C 273.222656 130.777344 273.386719 130.855469 273.546875 131.019531 L 249.160156 155.386719 L 223.960938 130.210938 C 224.285156 129.886719 224.042969 129.804688 223.800781 129.804688 Z M 213.183594 193.921875 C 213.507812 194.324219 213.832031 194.730469 214.238281 195.214844 C 215.535156 196.917969 216.265625 199.019531 216.425781 201.207031 C 216.667969 204.6875 217.398438 207.117188 218.695312 208.410156 C 223.152344 212.863281 231.335938 211.730469 237.085938 205.984375 C 239.84375 203.230469 241.625 199.832031 242.109375 196.429688 C 242.597656 192.949219 241.707031 189.792969 239.519531 187.605469 C 238.222656 186.3125 235.789062 185.582031 232.308594 185.421875 C 229.875 185.257812 227.605469 184.449219 225.742188 182.992188 C 225.5 182.75 225.175781 182.507812 224.933594 182.34375 L 249.726562 157.570312 L 274.683594 182.507812 C 274.277344 182.832031 273.871094 183.152344 273.46875 183.476562 C 271.605469 184.933594 269.335938 185.824219 266.902344 185.90625 C 263.339844 186.066406 260.910156 186.796875 259.691406 188.09375 C 259.449219 188.335938 259.125 188.660156 258.964844 188.984375 C 255.480469 193.515625 256.777344 201.125 262.125 206.550781 C 262.367188 206.792969 262.609375 207.035156 262.933594 207.277344 C 263.015625 207.359375 263.097656 207.441406 263.175781 207.519531 C 263.339844 207.683594 263.5 207.765625 263.664062 207.925781 C 263.90625 208.089844 264.070312 208.25 264.3125 208.410156 C 264.390625 208.492188 264.472656 208.574219 264.636719 208.574219 C 264.960938 208.816406 265.285156 208.980469 265.527344 209.222656 C 265.527344 209.222656 265.609375 209.222656 265.609375 209.300781 C 267.550781 210.4375 269.578125 211.246094 271.683594 211.570312 C 274.761719 211.972656 277.4375 211.328125 279.542969 209.789062 C 279.542969 209.789062 279.625 209.789062 279.625 209.707031 C 279.867188 209.546875 280.03125 209.382812 280.273438 209.140625 C 280.355469 209.058594 280.433594 208.980469 280.515625 208.898438 C 280.757812 208.65625 280.921875 208.410156 281.082031 208.089844 C 281.976562 206.710938 282.542969 204.605469 282.703125 201.691406 C 282.785156 200.074219 283.269531 198.453125 284 197.078125 C 284.242188 196.59375 284.566406 196.1875 284.890625 195.703125 C 285.214844 195.214844 285.539062 194.890625 285.863281 194.488281 C 286.027344 194.324219 286.105469 194.164062 286.269531 194 L 310.738281 218.449219 L 249.726562 279.410156 L 225.09375 254.878906 C 225.09375 254.878906 225.09375 254.878906 225.175781 254.878906 C 227.039062 253.421875 229.308594 252.53125 231.738281 252.453125 C 235.304688 252.289062 237.734375 251.5625 238.949219 250.265625 C 243.40625 245.8125 242.273438 237.636719 236.519531 231.890625 C 233.765625 229.136719 230.363281 227.355469 226.960938 226.871094 C 223.476562 226.382812 220.316406 227.273438 218.128906 229.460938 C 216.910156 230.675781 216.183594 232.941406 215.941406 236.339844 C 215.941406 236.421875 215.941406 236.585938 215.941406 236.664062 C 215.777344 238.851562 215.046875 240.957031 213.753906 242.65625 C 213.589844 242.816406 213.507812 242.980469 213.347656 243.140625 L 188.632812 218.449219 Z M 187.5 341.421875 L 126.488281 280.460938 L 151.6875 255.285156 C 151.847656 255.121094 151.929688 254.878906 151.929688 254.636719 C 151.929688 254.394531 151.847656 254.230469 151.605469 254.070312 C 151.199219 253.746094 150.796875 253.421875 150.308594 253.097656 C 148.363281 251.640625 145.933594 250.75 143.421875 250.589844 C 140.425781 250.425781 138.238281 249.78125 137.265625 248.808594 C 133.457031 245.003906 134.589844 237.796875 139.695312 232.699219 C 144.800781 227.597656 152.011719 226.546875 155.820312 230.269531 C 156.792969 231.242188 157.359375 233.425781 157.519531 236.421875 C 157.683594 239.175781 158.65625 241.765625 160.355469 243.871094 C 160.601562 244.113281 160.761719 244.355469 161.003906 244.597656 C 161.167969 244.761719 161.328125 244.839844 161.570312 244.921875 C 161.816406 244.921875 162.058594 244.839844 162.21875 244.679688 L 187.5 219.421875 L 212.859375 244.761719 C 213.023438 244.921875 213.183594 245.003906 213.429688 245.003906 C 213.429688 245.003906 213.429688 245.003906 213.507812 245.003906 C 213.589844 245.003906 213.589844 245.003906 213.671875 244.921875 C 213.753906 244.921875 213.753906 244.921875 213.832031 244.921875 C 213.914062 244.921875 213.914062 244.839844 213.996094 244.761719 C 213.996094 244.761719 214.074219 244.679688 214.074219 244.679688 C 214.15625 244.597656 214.15625 244.519531 214.238281 244.519531 C 214.480469 244.195312 214.804688 243.789062 215.046875 243.464844 C 216.507812 241.523438 217.398438 239.09375 217.558594 236.585938 C 217.722656 233.589844 218.371094 231.402344 219.34375 230.429688 C 221.125 228.652344 223.800781 227.839844 226.796875 228.246094 C 229.875 228.652344 232.953125 230.269531 235.464844 232.777344 C 240.570312 237.878906 241.625 245.085938 237.898438 248.890625 C 236.925781 249.859375 234.738281 250.425781 231.738281 250.589844 C 228.984375 250.75 226.390625 251.722656 224.285156 253.421875 C 224.042969 253.664062 223.800781 253.828125 223.554688 254.070312 C 223.394531 254.230469 223.3125 254.394531 223.230469 254.636719 C 223.230469 254.71875 223.230469 254.878906 223.3125 254.960938 C 223.3125 254.960938 223.3125 254.960938 223.3125 255.042969 C 223.3125 255.121094 223.394531 255.203125 223.476562 255.285156 L 248.59375 280.378906 Z M 311.710938 217.316406 L 286.675781 192.300781 C 286.351562 191.976562 285.863281 191.976562 285.539062 192.300781 C 284.972656 192.867188 284.324219 193.679688 283.515625 194.730469 C 283.109375 195.214844 282.785156 195.78125 282.542969 196.269531 C 281.652344 197.886719 281.164062 199.667969 281.003906 201.53125 C 280.839844 204.203125 280.355469 206.144531 279.542969 207.277344 C 279.464844 207.441406 279.300781 207.601562 279.21875 207.683594 C 279.140625 207.765625 279.140625 207.765625 279.058594 207.84375 C 278.894531 208.007812 278.652344 208.167969 278.492188 208.332031 C 278.410156 208.410156 278.328125 208.492188 278.167969 208.492188 C 278.003906 208.574219 277.84375 208.734375 277.679688 208.816406 C 277.597656 208.898438 277.4375 208.898438 277.355469 208.980469 C 277.195312 209.058594 277.03125 209.140625 276.789062 209.222656 C 276.707031 209.300781 276.546875 209.300781 276.464844 209.300781 C 276.304688 209.382812 276.058594 209.464844 275.898438 209.464844 C 275.816406 209.464844 275.65625 209.546875 275.492188 209.546875 C 275.332031 209.625 275.085938 209.625 274.84375 209.707031 C 274.683594 209.707031 274.519531 209.707031 274.359375 209.789062 C 274.195312 209.789062 273.953125 209.867188 273.792969 209.867188 C 273.546875 209.867188 273.386719 209.867188 273.144531 209.867188 C 272.980469 209.867188 272.898438 209.867188 272.738281 209.867188 C 272.414062 209.867188 272.089844 209.789062 271.765625 209.789062 C 271.765625 209.789062 271.683594 209.789062 271.683594 209.789062 C 271.28125 209.707031 270.957031 209.625 270.550781 209.546875 C 270.226562 209.464844 269.902344 209.382812 269.496094 209.222656 C 269.417969 209.222656 269.417969 209.222656 269.335938 209.222656 C 269.171875 209.140625 269.011719 209.058594 268.847656 209.058594 C 267.957031 208.734375 266.984375 208.25 266.09375 207.765625 C 266.09375 207.765625 266.09375 207.765625 266.011719 207.765625 C 265.769531 207.601562 265.527344 207.441406 265.285156 207.277344 C 265.121094 207.199219 265.039062 207.117188 264.878906 207.035156 C 264.796875 206.953125 264.636719 206.875 264.554688 206.792969 C 263.988281 206.386719 263.421875 205.902344 262.933594 205.335938 C 258.152344 200.558594 256.9375 193.921875 259.855469 189.953125 C 260.015625 189.710938 260.261719 189.46875 260.503906 189.226562 C 261.476562 188.253906 263.664062 187.6875 266.660156 187.527344 C 269.417969 187.363281 272.007812 186.390625 274.117188 184.691406 C 274.84375 184.125 275.492188 183.558594 276.058594 183.074219 C 276.140625 182.992188 276.222656 182.910156 276.222656 182.832031 C 276.304688 182.75 276.304688 182.585938 276.304688 182.507812 C 276.304688 182.261719 276.222656 182.101562 276.058594 181.941406 L 250.539062 156.4375 L 275.492188 131.503906 C 275.65625 131.34375 275.734375 131.101562 275.734375 130.855469 C 275.734375 130.613281 275.65625 130.453125 275.410156 130.289062 C 275.007812 129.964844 274.601562 129.644531 274.117188 129.320312 C 272.171875 127.863281 269.738281 126.972656 267.226562 126.808594 C 264.230469 126.648438 262.042969 126 261.070312 125.027344 C 260.828125 124.785156 260.585938 124.542969 260.421875 124.300781 C 260.421875 124.300781 260.421875 124.21875 260.339844 124.21875 C 260.179688 123.976562 260.015625 123.734375 259.855469 123.492188 C 259.855469 123.410156 259.773438 123.410156 259.773438 123.328125 C 259.613281 123.085938 259.53125 122.84375 259.449219 122.601562 C 259.449219 122.519531 259.367188 122.4375 259.367188 122.355469 C 259.289062 122.113281 259.207031 121.871094 259.125 121.628906 C 259.125 121.546875 259.042969 121.464844 259.042969 121.304688 C 258.964844 121.0625 258.964844 120.820312 258.882812 120.574219 C 258.882812 120.414062 258.882812 120.332031 258.800781 120.171875 C 258.800781 119.929688 258.722656 119.765625 258.722656 119.523438 C 258.722656 119.363281 258.722656 119.117188 258.722656 118.957031 C 258.722656 118.792969 258.722656 118.632812 258.722656 118.472656 C 258.722656 118.226562 258.722656 117.984375 258.800781 117.742188 C 258.800781 117.660156 258.800781 117.5 258.800781 117.417969 C 258.800781 117.175781 258.882812 116.851562 258.964844 116.609375 C 258.964844 116.527344 258.964844 116.445312 259.042969 116.285156 C 259.125 116.125 259.125 115.878906 259.207031 115.71875 C 259.855469 113.289062 261.3125 110.859375 263.339844 108.757812 C 265.609375 106.488281 268.199219 105.03125 270.792969 104.464844 C 274.117188 103.65625 277.355469 104.222656 279.464844 106.410156 C 279.542969 106.488281 279.542969 106.570312 279.625 106.570312 C 279.707031 106.652344 279.789062 106.734375 279.789062 106.8125 C 279.867188 106.894531 279.867188 106.976562 279.949219 107.054688 C 280.03125 107.136719 280.03125 107.21875 280.113281 107.300781 C 280.191406 107.378906 280.191406 107.542969 280.273438 107.625 C 280.273438 107.703125 280.355469 107.785156 280.355469 107.867188 C 280.433594 108.027344 280.433594 108.191406 280.515625 108.351562 C 280.515625 108.433594 280.597656 108.511719 280.597656 108.59375 C 280.679688 108.757812 280.679688 109 280.757812 109.242188 C 280.757812 109.324219 280.757812 109.402344 280.839844 109.402344 C 280.921875 109.648438 280.921875 109.890625 281.003906 110.214844 C 281.003906 110.292969 281.003906 110.292969 281.003906 110.375 C 281.082031 110.699219 281.082031 111.023438 281.082031 111.347656 C 281.082031 111.347656 281.082031 111.347656 281.082031 111.429688 C 281.082031 111.75 281.164062 112.15625 281.164062 112.5625 C 281.164062 113.289062 281.328125 113.9375 281.40625 114.585938 C 281.652344 115.878906 282.136719 117.175781 282.785156 118.308594 C 282.785156 118.390625 282.867188 118.390625 282.867188 118.472656 C 283.027344 118.714844 283.191406 118.957031 283.351562 119.199219 C 283.515625 119.441406 283.757812 119.765625 283.917969 120.007812 C 284.164062 120.253906 284.324219 120.496094 284.566406 120.738281 C 284.648438 120.820312 284.730469 120.898438 284.8125 120.980469 C 284.890625 120.980469 284.890625 120.980469 284.972656 120.980469 C 285.054688 120.980469 285.136719 121.0625 285.136719 121.0625 C 285.136719 121.0625 285.136719 121.0625 285.214844 121.0625 C 285.460938 121.0625 285.621094 120.980469 285.785156 120.820312 L 311.226562 95.398438 L 372.238281 156.359375 Z M 311.710938 217.316406 " fill-opacity="1" fill-rule="nonzero"/></g></svg>