<svg xmlns="http://www.w3.org/2000/svg" xmlns:xlink="http://www.w3.org/1999/xlink" zoomAndPan="magnify" preserveAspectRatio="xMidYMid meet" version="1.0" viewBox="1 54.55 374 266.25"><defs><clipPath id="783c867350"><path d="M 1 54.546875 L 375 54.546875 L 375 320.796875 L 1 320.796875 Z M 1 54.546875 " clip-rule="nonzero"/></clipPath></defs><path fill="#e78022" d="M 40.675781 55.335938 L 332.195312 55.335938 L 332.195312 308.957031 L 40.675781 308.957031 Z M 40.675781 55.335938 " fill-opacity="1" fill-rule="nonzero"/><path fill="#f7ba20" d="M 332.195312 55.335938 L 332.195312 82.648438 L 40.675781 82.648438 L 40.675781 55.335938 Z M 144.261719 139.480469 L 167.515625 139.480469 L 167.515625 160.714844 L 144.261719 160.714844 L 160.738281 177.210938 L 145.757812 192.210938 L 129.28125 175.710938 L 129.28125 198.996094 L 108.078125 198.996094 L 108.078125 175.710938 L 91.601562 192.210938 L 76.625 177.210938 L 93.097656 160.714844 L 69.765625 160.714844 L 69.765625 139.480469 L 93.019531 139.480469 L 76.542969 122.984375 L 91.523438 107.984375 L 108 124.484375 L 108 101.195312 L 129.203125 101.195312 L 129.203125 124.484375 L 145.679688 107.984375 L 160.65625 122.984375 Z M 134.566406 150.136719 C 134.566406 141.296875 127.390625 134.191406 118.640625 134.191406 C 109.8125 134.191406 102.714844 141.375 102.714844 150.136719 C 102.714844 158.898438 109.890625 166.082031 118.640625 166.082031 C 127.46875 166.082031 134.566406 158.898438 134.566406 150.136719 Z M 78.199219 231.125 L 23.804688 191.023438 C 18.917969 187.472656 12.140625 188.5 8.511719 193.3125 L 4.570312 198.683594 C 1.023438 203.574219 2.050781 210.363281 6.859375 213.996094 L 61.25 254.09375 C 63.695312 255.832031 67.085938 255.359375 68.820312 252.910156 L 79.304688 238.625 C 81.195312 236.335938 80.644531 232.941406 78.199219 231.125 Z M 78.199219 231.125 " fill-opacity="1" fill-rule="nonzero"/><path fill="#ecf0f4" d="M 307.835938 262.066406 L 307.835938 284.011719 L 130.703125 284.011719 L 156.953125 303.351562 L 153.640625 307.851562 L 121.242188 283.933594 L 65.113281 283.933594 L 65.113281 261.988281 L 91.445312 261.988281 L 79.699219 253.304688 L 83.007812 248.804688 L 100.902344 261.988281 L 307.835938 261.988281 Z M 207.246094 123.296875 L 215.050781 109.722656 L 207.246094 96.144531 L 191.636719 96.144531 L 183.835938 109.722656 L 191.636719 123.296875 Z M 262.429688 228.363281 L 270.234375 214.785156 L 262.429688 201.207031 L 246.820312 201.207031 L 239.015625 214.785156 L 246.820312 228.363281 Z M 131.648438 246.753906 L 139.453125 233.175781 L 131.648438 219.601562 L 116.039062 219.601562 L 108.234375 233.175781 L 116.039062 246.753906 Z M 152.222656 309.746094 L 168.382812 319.847656 L 172.71875 313.929688 L 158.292969 301.457031 Z M 152.222656 309.746094 " fill-opacity="1" fill-rule="nonzero"/><path fill="#6090f2" d="M 214.65625 204.679688 Z M 161.445312 204.523438 L 173.585938 201.917969 L 163.179688 195.207031 L 169.328125 185.738281 L 179.734375 192.445312 L 177.132812 180.289062 L 188.171875 177.921875 L 190.773438 190.078125 L 197.472656 179.660156 L 206.933594 185.816406 L 200.230469 196.234375 L 212.371094 193.628906 L 214.734375 204.679688 L 202.597656 207.285156 L 213.003906 213.996094 L 206.851562 223.46875 L 196.449219 216.757812 L 199.046875 228.914062 L 188.011719 231.28125 L 185.410156 219.125 L 178.710938 229.546875 L 169.25 223.390625 L 175.953125 212.96875 L 163.8125 215.574219 Z M 179.734375 206.339844 C 180.679688 210.917969 185.253906 213.835938 189.824219 212.890625 C 194.398438 211.941406 197.316406 207.363281 196.367188 202.785156 C 195.421875 198.207031 190.851562 195.289062 186.277344 196.234375 C 181.707031 197.261719 178.789062 201.761719 179.734375 206.339844 Z M 352.453125 207.917969 L 370.664062 223.785156 L 373.976562 219.996094 L 364.753906 193.234375 L 336.925781 187.867188 L 336.765625 188.027344 L 276.699219 135.769531 L 276.855469 135.613281 L 267.632812 108.851562 L 239.804688 103.484375 L 236.492188 107.273438 L 254.703125 123.140625 L 255.414062 133.085938 L 252.652344 136.324219 L 242.722656 137.035156 L 224.511719 121.167969 L 221.199219 124.957031 L 230.421875 151.714844 L 258.25 157.082031 L 258.410156 156.925781 L 318.476562 209.179688 L 318.320312 209.339844 L 327.542969 236.097656 L 355.371094 241.464844 L 358.683594 237.675781 L 340.472656 221.808594 L 339.761719 211.863281 L 342.523438 208.628906 Z M 86.714844 243.832031 L 79.539062 238.542969 L 68.820312 253.148438 L 75.992188 258.4375 Z M 123.527344 278.722656 L 215.050781 278.722656 L 215.050781 267.355469 L 108.078125 267.355469 Z M 72.445312 267.355469 L 72.445312 278.722656 L 114.070312 278.722656 L 98.617188 267.355469 Z M 72.445312 267.355469 " fill-opacity="1" fill-rule="nonzero"/><g clip-path="url(#783c867350)"><path fill="#000000" d="M 57.546875 62.203125 C 53.683594 62.203125 50.53125 65.359375 50.53125 69.226562 C 50.53125 73.09375 53.683594 76.253906 57.546875 76.253906 C 61.410156 76.253906 64.5625 73.09375 64.5625 69.226562 C 64.5625 65.359375 61.410156 62.203125 57.546875 62.203125 Z M 57.546875 74.675781 C 54.550781 74.675781 52.105469 72.226562 52.105469 69.226562 C 52.105469 66.226562 54.550781 63.78125 57.546875 63.78125 C 60.542969 63.78125 62.984375 66.226562 62.984375 69.226562 C 62.984375 72.226562 60.542969 74.675781 57.546875 74.675781 Z M 75.992188 62.203125 C 72.128906 62.203125 68.976562 65.359375 68.976562 69.226562 C 68.976562 73.09375 72.128906 76.253906 75.992188 76.253906 C 79.855469 76.253906 83.007812 73.09375 83.007812 69.226562 C 83.007812 65.359375 79.855469 62.203125 75.992188 62.203125 Z M 75.992188 74.675781 C 72.996094 74.675781 70.554688 72.226562 70.554688 69.226562 C 70.554688 66.226562 72.996094 63.78125 75.992188 63.78125 C 78.988281 63.78125 81.433594 66.226562 81.433594 69.226562 C 81.433594 72.226562 78.988281 74.675781 75.992188 74.675781 Z M 94.359375 62.203125 C 90.496094 62.203125 87.34375 65.359375 87.34375 69.226562 C 87.34375 73.09375 90.496094 76.253906 94.359375 76.253906 C 98.222656 76.253906 101.375 73.09375 101.375 69.226562 C 101.375 65.359375 98.222656 62.203125 94.359375 62.203125 Z M 94.359375 74.675781 C 91.363281 74.675781 88.921875 72.226562 88.921875 69.226562 C 88.921875 66.226562 91.363281 63.78125 94.359375 63.78125 C 97.355469 63.78125 99.800781 66.226562 99.800781 69.226562 C 99.800781 72.226562 97.355469 74.675781 94.359375 74.675781 Z M 374.765625 219.757812 L 365.539062 193 C 365.460938 192.761719 365.226562 192.523438 364.910156 192.445312 L 337.082031 187.078125 C 337.003906 187.078125 337.003906 187.078125 336.925781 187.078125 L 332.984375 183.605469 L 332.984375 55.335938 C 332.984375 54.859375 332.667969 54.546875 332.195312 54.546875 L 40.675781 54.546875 C 40.203125 54.546875 39.886719 54.859375 39.886719 55.335938 L 39.886719 201.839844 L 24.359375 190.394531 C 21.835938 188.578125 18.761719 187.789062 15.6875 188.261719 C 12.613281 188.734375 9.851562 190.394531 8.039062 192.917969 L 4.097656 198.289062 C 0.15625 203.496094 1.261719 210.839844 6.464844 214.707031 L 39.886719 239.332031 L 39.886719 309.035156 C 39.886719 309.507812 40.203125 309.824219 40.675781 309.824219 L 151.433594 309.824219 C 151.433594 309.902344 151.433594 309.902344 151.433594 309.980469 C 151.511719 310.21875 151.59375 310.375 151.828125 310.535156 L 167.988281 320.636719 C 168.148438 320.714844 168.226562 320.796875 168.382812 320.796875 C 168.621094 320.796875 168.855469 320.714844 169.015625 320.480469 L 173.351562 314.558594 C 173.585938 314.242188 173.507812 313.769531 173.191406 313.453125 L 169.09375 309.902344 L 332.195312 309.902344 C 332.667969 309.902344 332.984375 309.585938 332.984375 309.113281 L 332.984375 237.992188 L 355.214844 242.332031 C 355.292969 242.332031 355.292969 242.332031 355.371094 242.332031 C 355.609375 242.332031 355.84375 242.253906 356.003906 242.097656 L 359.3125 238.308594 C 359.628906 237.992188 359.550781 237.519531 359.234375 237.203125 L 341.261719 221.574219 L 340.628906 212.257812 L 342.996094 209.574219 L 352.296875 208.945312 L 370.269531 224.574219 C 370.429688 224.730469 370.664062 224.808594 370.824219 224.730469 C 371.058594 224.730469 371.214844 224.652344 371.375 224.492188 L 374.683594 220.703125 C 374.765625 220.308594 374.84375 219.996094 374.765625 219.757812 Z M 41.464844 56.125 L 331.40625 56.125 L 331.40625 81.855469 L 41.464844 81.855469 Z M 5.28125 199.234375 L 9.222656 193.867188 C 10.800781 191.65625 13.164062 190.234375 15.84375 189.839844 C 16.394531 189.761719 16.871094 189.761719 17.421875 189.761719 C 19.550781 189.761719 21.679688 190.472656 23.414062 191.734375 L 77.804688 231.835938 C 78.042969 231.992188 78.277344 232.230469 78.4375 232.464844 C 78.59375 232.703125 78.832031 232.941406 78.910156 233.175781 C 78.910156 233.175781 78.910156 233.175781 78.910156 233.253906 C 79.066406 233.492188 79.144531 233.730469 79.304688 234.046875 C 79.304688 234.046875 79.304688 234.125 79.304688 234.125 C 79.382812 234.359375 79.460938 234.675781 79.539062 234.992188 C 79.699219 235.859375 79.539062 236.808594 79.144531 237.597656 C 79.066406 237.753906 78.988281 237.835938 78.988281 237.992188 C 78.988281 237.992188 78.988281 237.992188 78.988281 238.070312 C 78.910156 238.230469 78.832031 238.308594 78.753906 238.464844 L 69.054688 251.648438 L 68.265625 252.675781 C 66.769531 254.726562 63.851562 255.199219 61.804688 253.621094 L 41.148438 238.230469 L 7.410156 213.441406 C 2.917969 210.128906 1.96875 203.734375 5.28125 199.234375 Z M 110.441406 268.144531 L 214.261719 268.144531 L 214.261719 277.933594 L 123.765625 277.933594 Z M 125.894531 279.511719 L 215.050781 279.511719 C 215.523438 279.511719 215.839844 279.195312 215.839844 278.722656 L 215.839844 267.355469 C 215.839844 266.882812 215.523438 266.566406 215.050781 266.566406 L 108.3125 266.566406 L 103.269531 262.855469 L 306.96875 262.855469 L 306.96875 283.222656 L 130.9375 283.222656 Z M 155.847656 303.507812 L 154.824219 304.929688 L 153.484375 306.746094 L 114.542969 278.089844 L 99.089844 266.722656 L 91.917969 261.4375 L 80.800781 253.226562 L 83.167969 249.988281 Z M 111.625 277.933594 L 73.234375 277.933594 L 73.234375 268.144531 L 98.382812 268.144531 Z M 96.253906 266.566406 L 72.445312 266.566406 C 71.972656 266.566406 71.65625 266.882812 71.65625 267.355469 L 71.65625 278.722656 C 71.65625 279.195312 71.972656 279.511719 72.445312 279.511719 L 113.832031 279.511719 L 118.878906 283.222656 L 65.902344 283.222656 L 65.902344 262.855469 L 91.207031 262.855469 Z M 82.378906 248.410156 L 79.066406 252.910156 L 75.835938 257.332031 L 69.921875 252.988281 L 72.917969 248.886719 L 75.046875 245.964844 L 79.699219 239.648438 L 85.609375 243.992188 Z M 41.464844 240.4375 L 60.855469 254.726562 C 61.09375 254.882812 61.332031 255.042969 61.566406 255.199219 C 61.644531 255.199219 61.722656 255.277344 61.722656 255.277344 C 61.960938 255.4375 62.277344 255.515625 62.511719 255.59375 C 62.589844 255.59375 62.589844 255.59375 62.671875 255.671875 C 62.90625 255.753906 63.144531 255.832031 63.378906 255.832031 C 63.457031 255.832031 63.457031 255.832031 63.539062 255.832031 C 63.773438 255.910156 64.089844 255.910156 64.324219 255.910156 C 64.324219 255.910156 64.40625 255.910156 64.40625 255.910156 C 64.484375 255.910156 64.484375 255.910156 64.5625 255.910156 C 64.71875 255.910156 64.800781 255.910156 64.957031 255.910156 C 65.035156 255.910156 65.113281 255.910156 65.191406 255.910156 C 65.351562 255.910156 65.507812 255.832031 65.585938 255.832031 C 65.664062 255.832031 65.746094 255.832031 65.824219 255.753906 C 66.058594 255.671875 66.21875 255.671875 66.453125 255.59375 C 66.453125 255.59375 66.53125 255.59375 66.53125 255.59375 C 66.691406 255.515625 66.925781 255.4375 67.085938 255.359375 C 67.164062 255.359375 67.242188 255.277344 67.320312 255.277344 C 67.480469 255.199219 67.558594 255.121094 67.714844 255.042969 C 67.792969 254.964844 67.875 254.964844 67.953125 254.882812 C 68.03125 254.804688 68.1875 254.726562 68.265625 254.648438 C 68.347656 254.570312 68.425781 254.570312 68.503906 254.488281 C 68.582031 254.410156 68.660156 254.332031 68.820312 254.253906 L 75.441406 259.148438 C 75.597656 259.226562 75.757812 259.304688 75.914062 259.304688 C 75.914062 259.304688 75.992188 259.304688 76.070312 259.304688 C 76.308594 259.304688 76.464844 259.148438 76.625 258.988281 L 79.855469 254.570312 L 89.078125 261.355469 L 65.113281 261.355469 C 64.640625 261.355469 64.324219 261.671875 64.324219 262.144531 L 64.324219 284.089844 C 64.324219 284.5625 64.640625 284.878906 65.113281 284.878906 L 121.003906 284.878906 L 152.539062 308.164062 L 152.460938 308.324219 L 41.464844 308.324219 Z M 168.226562 318.820312 L 153.40625 309.585938 L 158.53125 302.640625 L 171.773438 314.085938 Z M 331.40625 308.164062 L 216.078125 308.164062 L 221.753906 298.929688 L 238.9375 301.773438 C 239.253906 301.851562 239.566406 301.691406 239.726562 301.457031 L 244.691406 294.589844 L 243.429688 293.640625 L 238.78125 300.113281 L 221.59375 297.273438 C 221.277344 297.195312 220.964844 297.351562 220.804688 297.667969 L 214.34375 308.246094 L 167.28125 308.246094 L 158.765625 300.902344 C 158.609375 300.746094 158.371094 300.667969 158.136719 300.746094 C 157.898438 300.746094 157.742188 300.902344 157.582031 301.0625 L 156.636719 302.324219 L 132.910156 284.878906 L 307.679688 284.878906 C 308.152344 284.878906 308.46875 284.5625 308.46875 284.089844 L 308.46875 262.144531 C 308.46875 261.671875 308.152344 261.355469 307.679688 261.355469 L 101.140625 261.355469 L 84.113281 248.726562 L 87.34375 244.308594 C 87.503906 244.148438 87.503906 243.910156 87.503906 243.753906 C 87.503906 243.515625 87.34375 243.359375 87.1875 243.203125 L 80.566406 238.308594 C 80.566406 238.230469 80.644531 238.148438 80.644531 238.070312 C 80.644531 238.070312 80.644531 238.070312 80.644531 237.992188 C 81.117188 236.886719 81.273438 235.703125 81.117188 234.519531 C 80.960938 233.492188 80.566406 232.625 80.011719 231.835938 C 79.933594 231.675781 79.855469 231.597656 79.699219 231.441406 C 79.699219 231.441406 79.621094 231.363281 79.621094 231.363281 C 79.539062 231.28125 79.460938 231.203125 79.382812 231.125 C 79.304688 231.046875 79.226562 230.964844 79.226562 230.964844 C 79.226562 230.964844 79.144531 230.886719 79.144531 230.886719 C 78.988281 230.808594 78.910156 230.652344 78.753906 230.570312 L 41.542969 203.101562 L 41.542969 83.4375 L 331.484375 83.4375 L 331.484375 101.355469 L 328.726562 105.617188 L 317.21875 108.851562 L 308.308594 102.695312 C 307.992188 102.460938 307.601562 102.539062 307.285156 102.773438 L 294.988281 115.089844 L 296.089844 116.195312 L 307.914062 104.355469 L 316.585938 110.351562 C 316.742188 110.511719 317.058594 110.511719 317.21875 110.433594 L 329.355469 107.039062 C 329.515625 106.957031 329.671875 106.878906 329.832031 106.722656 L 331.40625 104.273438 L 331.40625 182.183594 L 277.644531 135.453125 C 277.644531 135.375 277.644531 135.375 277.644531 135.296875 L 268.421875 108.539062 C 268.339844 108.300781 268.105469 108.0625 267.789062 107.984375 L 239.960938 102.617188 C 239.648438 102.539062 239.410156 102.695312 239.253906 102.855469 L 235.941406 106.644531 C 235.863281 106.722656 235.863281 106.800781 235.863281 106.800781 C 235.863281 106.800781 235.863281 106.878906 235.785156 106.878906 C 235.785156 106.957031 235.707031 107.117188 235.785156 107.195312 C 235.785156 107.195312 235.785156 107.195312 235.785156 107.273438 C 235.785156 107.351562 235.785156 107.433594 235.863281 107.511719 C 235.941406 107.589844 235.941406 107.667969 236.019531 107.75 L 253.996094 123.378906 L 254.625 132.691406 L 252.261719 135.375 L 242.957031 136.007812 L 224.984375 120.378906 C 224.828125 120.21875 224.589844 120.140625 224.433594 120.21875 C 224.195312 120.21875 224.039062 120.300781 223.878906 120.457031 L 220.570312 124.246094 C 220.410156 124.402344 220.332031 124.640625 220.410156 124.796875 C 220.410156 124.878906 220.410156 124.957031 220.492188 125.035156 L 229.714844 151.792969 C 229.792969 152.03125 230.03125 152.269531 230.34375 152.347656 L 258.171875 157.714844 C 258.25 157.714844 258.25 157.714844 258.328125 157.714844 L 317.609375 209.257812 C 317.609375 209.339844 317.609375 209.339844 317.609375 209.417969 L 326.835938 236.175781 C 326.914062 236.414062 327.148438 236.648438 327.464844 236.730469 L 331.40625 237.519531 Z M 370.664062 222.679688 L 353.007812 207.363281 C 352.847656 207.207031 352.613281 207.128906 352.453125 207.207031 L 342.523438 207.917969 C 342.285156 207.917969 342.128906 207.996094 341.96875 208.152344 L 339.210938 211.390625 C 339.054688 211.546875 338.972656 211.785156 339.054688 211.941406 L 339.761719 221.890625 C 339.761719 222.125 339.839844 222.285156 340 222.441406 L 357.65625 237.753906 L 355.214844 240.597656 L 332.429688 236.175781 L 328.332031 235.386719 L 319.34375 209.417969 C 319.34375 209.339844 319.425781 209.179688 319.425781 209.101562 C 319.425781 208.863281 319.34375 208.707031 319.1875 208.550781 L 259.117188 156.292969 C 259.039062 156.214844 258.960938 156.214844 258.882812 156.136719 C 258.882812 156.136719 258.804688 156.136719 258.804688 156.136719 C 258.722656 156.136719 258.644531 156.136719 258.644531 156.136719 C 258.644531 156.136719 258.644531 156.136719 258.566406 156.136719 C 258.488281 156.136719 258.410156 156.136719 258.328125 156.214844 L 253.914062 155.347656 L 231.289062 150.925781 L 222.382812 124.957031 L 224.828125 122.113281 L 242.484375 137.429688 C 242.640625 137.585938 242.878906 137.664062 243.035156 137.585938 L 252.96875 136.875 C 253.207031 136.875 253.363281 136.796875 253.519531 136.636719 L 256.28125 133.402344 C 256.4375 133.246094 256.515625 133.007812 256.4375 132.851562 L 255.730469 122.902344 C 255.730469 122.667969 255.648438 122.507812 255.492188 122.351562 L 237.832031 107.039062 L 240.277344 104.195312 L 267.160156 109.40625 L 276.144531 135.375 C 276.144531 135.453125 276.066406 135.613281 276.144531 135.691406 C 276.144531 135.929688 276.226562 136.085938 276.382812 136.242188 L 336.453125 188.5 C 336.609375 188.65625 336.847656 188.734375 337.003906 188.65625 C 337.082031 188.65625 337.242188 188.65625 337.320312 188.578125 L 364.28125 193.789062 L 373.1875 219.757812 Z M 321.632812 181.238281 L 283.871094 148.480469 C 280.085938 145.242188 274.410156 145.636719 271.179688 149.347656 C 267.949219 153.136719 268.339844 158.820312 272.046875 162.054688 L 309.726562 194.8125 C 311.382812 196.234375 313.433594 197.023438 315.640625 197.023438 C 315.875 197.023438 316.035156 197.023438 316.269531 197.023438 C 318.636719 196.867188 320.84375 195.761719 322.421875 193.945312 C 325.730469 190.234375 325.335938 184.472656 321.632812 181.238281 Z M 321.316406 192.917969 C 319.976562 194.417969 318.242188 195.367188 316.191406 195.445312 C 314.222656 195.601562 312.25 194.972656 310.753906 193.628906 L 273.070312 160.871094 C 269.996094 158.1875 269.601562 153.453125 272.363281 150.375 C 275.042969 147.292969 279.773438 146.898438 282.847656 149.664062 L 320.527344 182.421875 C 323.679688 185.105469 323.996094 189.839844 321.316406 192.917969 Z M 207.878906 95.75 C 207.71875 95.511719 207.484375 95.355469 207.167969 95.355469 L 191.558594 95.355469 C 191.246094 95.355469 191.007812 95.511719 190.851562 95.75 L 183.046875 109.328125 C 182.886719 109.5625 182.886719 109.878906 183.046875 110.117188 L 190.851562 123.691406 C 191.007812 123.929688 191.246094 124.085938 191.558594 124.085938 L 207.167969 124.085938 C 207.484375 124.085938 207.71875 123.929688 207.878906 123.691406 L 215.683594 110.117188 C 215.839844 109.878906 215.839844 109.5625 215.683594 109.328125 Z M 206.773438 122.507812 L 192.03125 122.507812 L 184.703125 109.722656 L 192.03125 96.933594 L 206.773438 96.933594 L 214.105469 109.722656 Z M 202.832031 103.011719 L 195.972656 103.011719 C 195.660156 103.011719 195.421875 103.167969 195.265625 103.40625 L 191.875 109.328125 C 191.71875 109.5625 191.71875 109.878906 191.875 110.117188 L 195.265625 116.035156 C 195.421875 116.273438 195.660156 116.429688 195.972656 116.429688 L 202.832031 116.429688 C 203.148438 116.429688 203.382812 116.273438 203.542969 116.035156 L 206.933594 110.117188 C 207.089844 109.878906 207.089844 109.5625 206.933594 109.328125 L 203.542969 103.40625 C 203.382812 103.167969 203.148438 103.011719 202.832031 103.011719 Z M 202.359375 114.851562 L 196.449219 114.851562 L 193.453125 109.722656 L 196.449219 104.589844 L 202.359375 104.589844 L 205.355469 109.722656 Z M 263.140625 200.8125 C 262.980469 200.578125 262.746094 200.417969 262.429688 200.417969 L 246.820312 200.417969 C 246.503906 200.417969 246.269531 200.578125 246.109375 200.8125 L 238.308594 214.390625 C 238.148438 214.628906 238.148438 214.941406 238.308594 215.179688 L 246.109375 228.757812 C 246.269531 228.992188 246.503906 229.152344 246.820312 229.152344 L 262.429688 229.152344 C 262.746094 229.152344 262.980469 228.992188 263.140625 228.757812 L 270.941406 215.179688 C 271.101562 214.941406 271.101562 214.628906 270.941406 214.390625 Z M 262.035156 227.574219 L 247.292969 227.574219 L 239.960938 214.785156 L 247.292969 201.996094 L 262.035156 201.996094 L 269.367188 214.785156 Z M 258.09375 208.074219 L 251.234375 208.074219 C 250.917969 208.074219 250.683594 208.234375 250.527344 208.46875 L 247.136719 214.390625 C 246.976562 214.628906 246.976562 214.941406 247.136719 215.179688 L 250.527344 221.101562 C 250.683594 221.335938 250.917969 221.496094 251.234375 221.496094 L 258.09375 221.496094 C 258.410156 221.496094 258.644531 221.335938 258.804688 221.101562 L 262.191406 215.179688 C 262.351562 214.941406 262.351562 214.628906 262.191406 214.390625 L 258.722656 208.46875 C 258.644531 208.152344 258.328125 208.074219 258.09375 208.074219 Z M 257.621094 219.914062 L 251.707031 219.914062 L 248.710938 214.785156 L 251.707031 209.652344 L 257.621094 209.652344 L 260.617188 214.785156 Z M 132.277344 219.207031 C 132.121094 218.96875 131.882812 218.8125 131.570312 218.8125 L 115.960938 218.8125 C 115.644531 218.8125 115.410156 218.96875 115.25 219.207031 L 107.445312 232.78125 C 107.289062 233.019531 107.289062 233.335938 107.445312 233.570312 L 115.25 247.148438 C 115.410156 247.386719 115.644531 247.542969 115.960938 247.542969 L 131.570312 247.542969 C 131.882812 247.542969 132.121094 247.386719 132.277344 247.148438 L 140.082031 233.570312 C 140.242188 233.335938 140.242188 233.019531 140.082031 232.78125 Z M 131.175781 245.964844 L 116.433594 245.964844 L 109.101562 233.175781 L 116.433594 220.390625 L 131.175781 220.390625 L 138.507812 233.175781 Z M 127.234375 226.46875 L 120.375 226.46875 C 120.058594 226.46875 119.824219 226.625 119.664062 226.863281 L 116.277344 232.78125 C 116.117188 233.019531 116.117188 233.335938 116.277344 233.570312 L 119.664062 239.492188 C 119.824219 239.730469 120.058594 239.886719 120.375 239.886719 L 127.234375 239.886719 C 127.546875 239.886719 127.785156 239.730469 127.941406 239.492188 L 131.332031 233.570312 C 131.492188 233.335938 131.492188 233.019531 131.332031 232.78125 L 127.941406 226.863281 C 127.785156 226.625 127.46875 226.46875 127.234375 226.46875 Z M 126.761719 238.308594 L 120.847656 238.308594 L 117.851562 233.175781 L 120.847656 228.046875 L 126.761719 228.046875 L 129.757812 233.175781 Z M 161.210938 176.660156 L 146.074219 161.503906 L 167.4375 161.503906 C 167.910156 161.503906 168.226562 161.1875 168.226562 160.714844 L 168.226562 139.480469 C 168.226562 139.007812 167.910156 138.691406 167.4375 138.691406 L 146.074219 138.691406 L 161.210938 123.535156 C 161.523438 123.21875 161.523438 122.746094 161.210938 122.429688 L 146.230469 107.433594 C 145.917969 107.117188 145.445312 107.117188 145.128906 107.433594 L 129.992188 122.589844 L 129.992188 101.195312 C 129.992188 100.722656 129.675781 100.40625 129.203125 100.40625 L 108 100.40625 C 107.527344 100.40625 107.210938 100.722656 107.210938 101.195312 L 107.210938 122.589844 L 92.152344 107.433594 C 91.839844 107.117188 91.363281 107.117188 91.050781 107.433594 L 76.070312 122.429688 C 75.757812 122.746094 75.757812 123.21875 76.070312 123.535156 L 91.207031 138.691406 L 69.765625 138.691406 C 69.292969 138.691406 68.976562 139.007812 68.976562 139.480469 L 68.976562 160.714844 C 68.976562 161.1875 69.292969 161.503906 69.765625 161.503906 L 91.128906 161.503906 L 75.992188 176.660156 C 75.675781 176.976562 75.675781 177.449219 75.992188 177.765625 L 90.972656 192.761719 C 91.285156 193.078125 91.757812 193.078125 92.074219 192.761719 L 107.210938 177.605469 L 107.210938 198.996094 C 107.210938 199.472656 107.527344 199.785156 108 199.785156 L 129.203125 199.785156 C 129.675781 199.785156 129.992188 199.472656 129.992188 198.996094 L 129.992188 177.605469 L 145.128906 192.761719 C 145.445312 193.078125 145.917969 193.078125 146.230469 192.761719 L 161.210938 177.765625 C 161.523438 177.449219 161.523438 176.976562 161.210938 176.660156 Z M 145.679688 191.105469 L 129.757812 175.160156 C 129.519531 174.921875 129.203125 174.84375 128.890625 175 C 128.574219 175.160156 128.414062 175.394531 128.414062 175.710938 L 128.414062 198.207031 L 108.785156 198.207031 L 108.785156 175.710938 C 108.785156 175.394531 108.628906 175.082031 108.3125 175 C 108 174.84375 107.683594 174.921875 107.445312 175.160156 L 91.601562 191.105469 L 77.726562 177.210938 L 93.652344 161.265625 C 93.886719 161.03125 93.964844 160.714844 93.808594 160.398438 C 93.652344 160.082031 93.414062 159.925781 93.097656 159.925781 L 70.554688 159.925781 L 70.554688 140.269531 L 93.019531 140.269531 C 93.335938 140.269531 93.652344 140.113281 93.730469 139.796875 C 93.886719 139.480469 93.808594 139.164062 93.574219 138.925781 L 77.726562 122.984375 L 91.601562 109.089844 L 107.527344 125.035156 C 107.761719 125.273438 108.078125 125.351562 108.394531 125.191406 C 108.707031 125.035156 108.867188 124.796875 108.867188 124.484375 L 108.867188 101.984375 L 128.496094 101.984375 L 128.496094 124.484375 C 128.496094 124.796875 128.652344 125.113281 128.96875 125.191406 C 129.28125 125.351562 129.597656 125.273438 129.835938 125.035156 L 145.757812 109.089844 L 159.632812 122.984375 L 143.710938 138.925781 C 143.472656 139.164062 143.394531 139.480469 143.550781 139.796875 C 143.710938 140.113281 143.945312 140.269531 144.261719 140.269531 L 166.726562 140.269531 L 166.726562 159.925781 L 144.261719 159.925781 C 143.945312 159.925781 143.628906 160.082031 143.550781 160.398438 C 143.394531 160.714844 143.472656 161.03125 143.710938 161.265625 L 159.632812 177.210938 Z M 118.640625 133.324219 C 109.417969 133.324219 101.929688 140.820312 101.929688 150.058594 C 101.929688 159.292969 109.417969 166.792969 118.640625 166.792969 C 127.863281 166.792969 135.351562 159.292969 135.351562 150.058594 C 135.351562 140.820312 127.863281 133.324219 118.640625 133.324219 Z M 118.640625 165.292969 C 110.285156 165.292969 103.503906 158.503906 103.503906 150.136719 C 103.503906 141.769531 110.285156 134.980469 118.640625 134.980469 C 126.996094 134.980469 133.777344 141.769531 133.777344 150.136719 C 133.777344 158.503906 126.996094 165.292969 118.640625 165.292969 Z M 213.082031 193.472656 C 213.003906 193.234375 212.921875 193.078125 212.765625 193 C 212.609375 192.917969 212.371094 192.839844 212.136719 192.917969 L 201.886719 195.128906 L 207.5625 186.289062 C 207.800781 185.894531 207.71875 185.421875 207.324219 185.183594 L 197.867188 179.027344 C 197.707031 178.949219 197.472656 178.867188 197.234375 178.949219 C 197 179.027344 196.839844 179.105469 196.761719 179.265625 L 191.085938 188.105469 L 188.878906 177.84375 C 188.800781 177.605469 188.722656 177.449219 188.5625 177.371094 C 188.40625 177.289062 188.171875 177.210938 187.933594 177.289062 L 176.898438 179.660156 C 176.503906 179.738281 176.1875 180.132812 176.265625 180.605469 L 178.472656 190.867188 L 169.644531 185.183594 C 169.25 184.945312 168.777344 185.027344 168.542969 185.421875 L 162.390625 194.894531 C 162.3125 195.050781 162.234375 195.289062 162.3125 195.523438 C 162.390625 195.761719 162.472656 195.917969 162.628906 196 L 171.457031 201.679688 L 161.210938 203.890625 C 160.816406 203.96875 160.5 204.367188 160.578125 204.839844 L 162.945312 215.890625 C 163.023438 216.125 163.101562 216.285156 163.257812 216.363281 C 163.417969 216.441406 163.652344 216.519531 163.890625 216.441406 L 174.136719 214.230469 L 168.460938 223.074219 C 168.226562 223.46875 168.304688 223.941406 168.699219 224.179688 L 178.160156 230.335938 C 178.550781 230.570312 179.027344 230.492188 179.261719 230.097656 L 184.9375 221.257812 L 187.144531 231.519531 C 187.222656 231.914062 187.539062 232.152344 187.933594 232.152344 C 188.011719 232.152344 188.011719 232.152344 188.089844 232.152344 L 199.128906 229.78125 C 199.363281 229.703125 199.523438 229.625 199.601562 229.46875 C 199.679688 229.308594 199.757812 229.070312 199.679688 228.835938 L 197.472656 218.574219 L 206.300781 224.257812 C 206.695312 224.492188 207.167969 224.414062 207.40625 224.019531 L 213.554688 214.546875 C 213.632812 214.390625 213.710938 214.152344 213.632812 213.917969 C 213.554688 213.679688 213.476562 213.523438 213.316406 213.441406 L 204.488281 207.757812 L 214.734375 205.550781 C 214.972656 205.46875 215.128906 205.390625 215.210938 205.234375 C 215.289062 205.074219 215.367188 204.839844 215.289062 204.601562 Z M 202.359375 206.496094 C 202.042969 206.574219 201.808594 206.8125 201.730469 207.128906 C 201.648438 207.445312 201.808594 207.757812 202.042969 207.917969 L 211.742188 214.230469 L 206.457031 222.363281 L 196.761719 216.046875 C 196.527344 215.890625 196.132812 215.890625 195.894531 216.046875 C 195.660156 216.207031 195.5 216.519531 195.582031 216.835938 L 198.023438 228.203125 L 188.5625 230.257812 L 186.121094 218.890625 C 186.042969 218.574219 185.804688 218.335938 185.488281 218.257812 C 185.410156 218.257812 185.410156 218.257812 185.332031 218.257812 C 185.09375 218.257812 184.78125 218.414062 184.703125 218.652344 L 178.394531 228.363281 L 170.273438 223.074219 L 176.582031 213.363281 C 176.738281 213.128906 176.738281 212.734375 176.582031 212.496094 C 176.425781 212.257812 176.109375 212.101562 175.792969 212.179688 L 164.441406 214.628906 L 162.390625 205.15625 L 173.742188 202.707031 C 174.058594 202.628906 174.296875 202.390625 174.375 202.078125 C 174.453125 201.761719 174.296875 201.445312 174.058594 201.285156 L 164.363281 194.972656 L 169.644531 186.839844 L 179.339844 193.15625 C 179.578125 193.3125 179.972656 193.3125 180.207031 193.15625 C 180.445312 193 180.601562 192.683594 180.523438 192.367188 L 178.078125 181 L 187.539062 178.949219 L 189.984375 190.316406 C 190.0625 190.628906 190.296875 190.867188 190.613281 190.945312 C 190.929688 191.023438 191.246094 190.867188 191.402344 190.628906 L 197.707031 180.921875 L 205.828125 186.210938 L 199.523438 195.917969 C 199.363281 196.15625 199.363281 196.550781 199.523438 196.789062 C 199.679688 197.023438 199.996094 197.183594 200.308594 197.101562 L 211.660156 194.65625 L 213.710938 204.128906 Z M 193.058594 196.789062 C 191.007812 195.445312 188.484375 194.972656 186.121094 195.523438 C 181.152344 196.628906 177.921875 201.523438 179.027344 206.574219 C 179.972656 210.917969 183.835938 213.917969 188.089844 213.917969 C 188.722656 213.917969 189.351562 213.835938 190.0625 213.679688 C 192.503906 213.128906 194.554688 211.707031 195.894531 209.652344 C 197.234375 207.601562 197.707031 205.074219 197.15625 202.707031 C 196.605469 200.183594 195.1875 198.128906 193.058594 196.789062 Z M 194.476562 208.785156 C 193.371094 210.523438 191.636719 211.707031 189.667969 212.101562 C 185.488281 212.96875 181.390625 210.363281 180.523438 206.179688 C 179.65625 201.996094 182.257812 197.894531 186.4375 197.023438 C 186.988281 196.945312 187.539062 196.867188 188.089844 196.867188 C 189.589844 196.867188 191.007812 197.261719 192.269531 198.128906 C 194.003906 199.234375 195.1875 200.972656 195.582031 202.945312 C 195.972656 204.917969 195.660156 207.050781 194.476562 208.785156 Z M 21.757812 204.917969 L 64.800781 236.730469 C 65.507812 237.203125 66.296875 237.519531 67.085938 237.519531 C 67.320312 237.519531 67.480469 237.519531 67.714844 237.4375 C 68.742188 237.28125 69.6875 236.730469 70.316406 235.859375 C 70.949219 234.992188 71.183594 233.964844 71.027344 232.941406 C 70.867188 231.914062 70.316406 230.964844 69.449219 230.335938 L 26.328125 198.601562 C 24.59375 197.339844 22.152344 197.65625 20.8125 199.472656 C 20.179688 200.339844 19.945312 201.367188 20.101562 202.390625 C 20.257812 203.417969 20.890625 204.285156 21.757812 204.917969 Z M 22.152344 200.339844 C 22.625 199.707031 23.332031 199.390625 24.042969 199.390625 C 24.515625 199.390625 24.988281 199.550781 25.460938 199.867188 L 68.582031 231.597656 C 69.054688 231.992188 69.449219 232.546875 69.527344 233.175781 C 69.609375 233.808594 69.449219 234.441406 69.132812 234.914062 L 69.765625 235.386719 L 69.132812 234.914062 C 68.742188 235.386719 68.1875 235.78125 67.558594 235.859375 C 66.925781 235.941406 66.296875 235.78125 65.824219 235.464844 L 22.703125 203.734375 C 22.230469 203.339844 21.835938 202.785156 21.757812 202.15625 C 21.679688 201.523438 21.835938 200.890625 22.152344 200.339844 Z M 58.019531 245.964844 C 58.730469 246.4375 59.515625 246.753906 60.304688 246.753906 C 60.542969 246.753906 60.699219 246.753906 60.9375 246.675781 C 61.960938 246.515625 62.90625 245.964844 63.539062 245.097656 C 64.800781 243.359375 64.484375 240.914062 62.671875 239.570312 L 19.550781 207.839844 C 17.816406 206.574219 15.371094 206.890625 14.03125 208.707031 C 13.402344 209.574219 13.164062 210.601562 13.320312 211.628906 C 13.480469 212.652344 14.03125 213.601562 14.898438 214.230469 Z M 15.371094 209.652344 C 15.84375 209.023438 16.554688 208.707031 17.261719 208.707031 C 17.738281 208.707031 18.210938 208.863281 18.683594 209.179688 L 61.804688 240.914062 C 62.828125 241.703125 63.066406 243.203125 62.277344 244.226562 L 62.90625 244.703125 L 62.277344 244.226562 C 61.882812 244.703125 61.332031 245.097656 60.699219 245.175781 C 60.070312 245.253906 59.4375 245.097656 58.964844 244.78125 L 15.84375 213.046875 C 15.371094 212.652344 14.976562 212.101562 14.898438 211.46875 C 14.820312 210.839844 14.976562 210.207031 15.371094 209.652344 Z M 15.371094 209.652344 " fill-opacity="1" fill-rule="nonzero"/></g></svg>