<svg xmlns="http://www.w3.org/2000/svg" xmlns:xlink="http://www.w3.org/1999/xlink" width="500" zoomAndPan="magnify" viewBox="0 0 375 374.999991" height="500" preserveAspectRatio="xMidYMid meet" version="1.0"><defs><clipPath id="cf95eedf63"><path d="M 0 74 L 375 74 L 375 301.226562 L 0 301.226562 Z M 0 74 " clip-rule="nonzero"/></clipPath></defs><path fill="#6090f2" d="M 273.640625 262.5625 L 258.125 275.871094 L 252.925781 290.890625 L 32.222656 290.890625 L 32.222656 74.929688 L 139.121094 74.929688 L 139.121094 94.214844 L 349 94.214844 L 349 200.527344 L 328.371094 205.734375 L 316.351562 223.480469 L 319.078125 241.570312 L 295.550781 243.277344 L 290.007812 258.039062 Z M 340.050781 225.53125 L 331.355469 241.65625 L 331.863281 264.265625 L 310.808594 258.378906 L 304.246094 271.863281 L 289.414062 274.507812 L 269.039062 285.855469 L 266.480469 290.804688 L 349.171875 300.445312 L 358.207031 222.800781 Z M 340.050781 225.53125 " fill-opacity="1" fill-rule="nonzero"/><path fill="#d4f1ff" d="M 273.640625 262.5625 L 258.125 275.871094 L 255.3125 284.0625 L 39.382812 284.0625 L 39.382812 101.550781 L 342.605469 101.550781 L 342.605469 202.066406 L 328.285156 205.648438 L 316.265625 223.394531 L 318.992188 241.484375 L 295.464844 243.191406 L 289.925781 257.953125 Z M 340.050781 225.53125 L 331.355469 241.65625 L 331.863281 264.265625 L 310.808594 258.378906 L 304.246094 271.863281 L 289.414062 274.507812 L 271.597656 284.40625 L 343.714844 292.765625 L 351.726562 223.738281 Z M 340.050781 225.53125 " fill-opacity="1" fill-rule="nonzero"/><path fill="#f7ba20" d="M 33.585938 201.125 L 2.558594 255.050781 C 0 259.488281 3.238281 265.121094 8.355469 265.121094 L 70.5 265.121094 C 75.613281 265.121094 78.851562 259.574219 76.296875 255.050781 L 45.179688 201.125 C 42.625 196.691406 36.230469 196.691406 33.585938 201.125 Z M 33.585938 201.125 " fill-opacity="1" fill-rule="nonzero"/><path fill="#fa5613" d="M 347.804688 121.6875 C 362.296875 121.6875 374.0625 133.464844 374.0625 147.96875 C 374.0625 162.472656 362.296875 174.25 347.804688 174.25 C 333.3125 174.25 321.550781 162.472656 321.550781 147.96875 C 321.550781 133.464844 333.3125 121.6875 347.804688 121.6875 Z M 347.804688 121.6875 " fill-opacity="1" fill-rule="nonzero"/><g clip-path="url(#cf95eedf63)"><path fill="#000000" d="M 122.585938 88.667969 L 126.675781 84.570312 L 122.585938 80.476562 L 123.777344 79.28125 L 127.871094 83.375 L 131.960938 79.28125 L 133.15625 80.476562 L 129.0625 84.570312 L 133.15625 88.667969 L 131.960938 89.863281 L 127.871094 85.765625 L 123.777344 89.863281 Z M 190.613281 203.515625 C 176.460938 203.515625 166.488281 210.597656 162.820312 213.582031 L 169.386719 221.433594 C 172.199219 219.128906 179.785156 213.753906 190.613281 213.753906 C 190.613281 213.753906 190.613281 213.753906 190.695312 213.753906 C 201.523438 213.753906 209.109375 219.128906 211.921875 221.433594 L 218.488281 213.582031 C 213.882812 209.828125 204.335938 203.515625 190.613281 203.515625 C 190.695312 203.515625 190.613281 203.515625 190.613281 203.515625 Z M 162.820312 164.523438 L 115.339844 164.523438 L 115.339844 174.761719 L 162.820312 174.761719 Z M 222.492188 174.761719 L 269.976562 174.761719 L 269.976562 164.523438 L 222.492188 164.523438 Z M 375 147.96875 C 375 162.304688 363.917969 173.992188 349.851562 175.015625 L 349.851562 200.527344 C 349.851562 200.957031 349.597656 201.296875 349.171875 201.382812 L 328.796875 206.5 L 317.117188 223.738281 L 319.84375 241.484375 C 319.84375 241.742188 319.84375 241.996094 319.675781 242.167969 C 319.503906 242.339844 319.332031 242.507812 319.078125 242.507812 L 296.0625 244.128906 L 290.691406 258.378906 C 290.605469 258.636719 290.351562 258.808594 290.09375 258.890625 L 274.066406 263.414062 L 258.894531 276.382812 L 256.167969 284.320312 L 253.777344 291.230469 C 253.695312 291.570312 253.351562 291.828125 253.011719 291.828125 L 32.222656 291.828125 C 31.710938 291.828125 31.371094 291.488281 31.371094 290.972656 L 31.371094 265.972656 L 8.355469 265.972656 C 5.625 265.972656 3.152344 264.523438 1.789062 262.21875 C 0.425781 259.832031 0.425781 257.015625 1.789062 254.625 L 31.371094 203.34375 L 31.371094 74.929688 C 31.371094 74.417969 31.710938 74.078125 32.222656 74.078125 L 139.121094 74.078125 C 139.632812 74.078125 139.976562 74.417969 139.976562 74.929688 L 139.976562 93.359375 L 349 93.359375 C 349.511719 93.359375 349.851562 93.699219 349.851562 94.214844 L 349.851562 120.921875 C 363.832031 121.945312 375 133.632812 375 147.96875 Z M 33.074219 200.359375 C 33.160156 200.273438 33.246094 200.1875 33.246094 200.101562 C 33.332031 200.015625 33.417969 199.847656 33.5 199.761719 C 33.585938 199.589844 33.757812 199.503906 33.84375 199.335938 C 33.929688 199.25 34.011719 199.078125 34.183594 198.992188 C 34.269531 198.90625 34.441406 198.738281 34.609375 198.652344 C 34.695312 198.566406 34.867188 198.480469 34.949219 198.394531 C 35.121094 198.3125 35.207031 198.226562 35.378906 198.054688 C 35.460938 197.96875 35.632812 197.882812 35.71875 197.796875 C 35.890625 197.714844 36.058594 197.628906 36.230469 197.542969 C 36.316406 197.457031 36.484375 197.457031 36.570312 197.371094 C 36.742188 197.285156 36.910156 197.203125 37.167969 197.203125 C 37.253906 197.203125 37.421875 197.117188 37.507812 197.117188 C 37.679688 197.03125 37.933594 197.03125 38.191406 197.03125 C 38.277344 197.03125 38.359375 196.945312 38.53125 196.945312 C 38.617188 196.945312 38.617188 196.945312 38.703125 196.945312 L 38.703125 101.550781 C 38.703125 101.039062 39.042969 100.699219 39.554688 100.699219 L 342.605469 100.699219 C 343.117188 100.699219 343.457031 101.039062 343.457031 101.550781 L 343.457031 121.089844 C 344.90625 120.835938 346.355469 120.75 347.804688 120.75 C 347.890625 120.75 347.976562 120.75 348.0625 120.75 L 348.0625 95.066406 L 139.121094 95.066406 C 138.609375 95.066406 138.269531 94.726562 138.269531 94.214844 L 138.269531 75.78125 L 33.074219 75.78125 Z M 8.355469 264.265625 L 70.5 264.265625 C 72.117188 264.265625 73.566406 263.671875 74.589844 262.5625 C 74.933594 262.21875 75.273438 261.792969 75.527344 261.367188 C 76.550781 259.574219 76.550781 257.355469 75.527344 255.480469 L 44.414062 201.554688 C 43.390625 199.761719 41.429688 198.652344 39.382812 198.652344 C 37.253906 198.652344 35.378906 199.761719 34.355469 201.554688 L 3.238281 255.480469 C 2.214844 257.269531 2.214844 259.488281 3.238281 261.367188 C 4.261719 263.242188 6.222656 264.265625 8.355469 264.265625 Z M 254.121094 284.917969 L 39.382812 284.917969 C 38.871094 284.917969 38.53125 284.574219 38.53125 284.0625 L 38.53125 265.972656 L 33.074219 265.972656 L 33.074219 290.121094 L 252.328125 290.121094 Z M 328.113281 204.878906 L 341.839844 201.46875 L 341.839844 174.503906 C 341.667969 174.503906 341.496094 174.417969 341.328125 174.417969 C 341.15625 174.417969 341.070312 174.335938 340.902344 174.335938 C 340.558594 174.25 340.21875 174.164062 339.878906 174.078125 C 339.792969 174.078125 339.707031 174.078125 339.707031 173.992188 C 338.003906 173.480469 336.382812 172.796875 334.933594 171.945312 C 334.59375 171.773438 334.167969 171.519531 333.824219 171.347656 C 333.484375 171.089844 333.144531 170.921875 332.71875 170.664062 C 331.609375 169.984375 330.671875 169.128906 329.648438 168.277344 C 329.5625 168.191406 329.476562 168.191406 329.476562 168.105469 C 329.222656 167.933594 329.050781 167.679688 328.796875 167.507812 C 328.625 167.421875 328.539062 167.253906 328.457031 167.082031 C 328.285156 166.910156 328.199219 166.824219 328.027344 166.65625 C 327.859375 166.484375 327.6875 166.3125 327.601562 166.144531 C 327.519531 166.058594 327.433594 165.886719 327.347656 165.800781 C 327.175781 165.632812 327.007812 165.375 326.835938 165.203125 C 326.75 165.117188 326.75 165.117188 326.664062 165.035156 C 324.191406 161.875 322.402344 158.207031 321.464844 154.113281 C 321.464844 154.027344 321.464844 154.027344 321.464844 153.941406 C 321.378906 153.683594 321.378906 153.34375 321.292969 153.089844 C 321.292969 152.917969 321.210938 152.832031 321.210938 152.660156 C 321.210938 152.40625 321.125 152.148438 321.125 151.894531 C 321.125 151.722656 321.039062 151.464844 321.039062 151.296875 C 321.039062 151.125 320.953125 150.871094 320.953125 150.699219 C 320.953125 150.441406 320.953125 150.1875 320.867188 149.929688 C 320.867188 149.761719 320.867188 149.589844 320.867188 149.417969 C 320.867188 148.992188 320.867188 148.566406 320.867188 148.140625 C 320.867188 147.710938 320.867188 147.285156 320.867188 146.859375 C 320.867188 146.6875 320.867188 146.519531 320.867188 146.347656 C 320.867188 146.089844 320.867188 145.835938 320.953125 145.578125 C 320.953125 145.410156 321.039062 145.152344 321.039062 144.980469 C 321.039062 144.8125 321.125 144.554688 321.125 144.382812 C 321.125 144.128906 321.210938 143.871094 321.210938 143.617188 C 321.210938 143.445312 321.292969 143.359375 321.292969 143.191406 C 321.378906 142.933594 321.378906 142.59375 321.464844 142.335938 C 321.464844 142.25 321.464844 142.25 321.464844 142.167969 C 322.402344 138.15625 324.191406 134.402344 326.664062 131.246094 C 326.75 131.160156 326.75 131.074219 326.835938 131.074219 C 327.007812 130.902344 327.175781 130.648438 327.347656 130.476562 C 327.433594 130.390625 327.519531 130.21875 327.6875 130.136719 C 327.859375 129.964844 327.945312 129.792969 328.113281 129.625 C 328.285156 129.453125 328.371094 129.28125 328.539062 129.195312 C 328.625 129.113281 328.796875 128.941406 328.882812 128.855469 C 329.136719 128.597656 329.308594 128.429688 329.5625 128.171875 C 329.648438 128.085938 329.648438 128.085938 329.734375 128.003906 C 330.671875 127.148438 331.695312 126.296875 332.804688 125.613281 C 333.144531 125.355469 333.484375 125.101562 333.910156 124.929688 C 334.253906 124.675781 334.679688 124.503906 335.019531 124.246094 C 336.554688 123.394531 338.171875 122.710938 339.878906 122.199219 C 339.964844 122.199219 340.050781 122.199219 340.050781 122.113281 C 340.390625 122.03125 340.730469 121.945312 341.070312 121.859375 C 341.242188 121.859375 341.328125 121.773438 341.496094 121.773438 C 341.667969 121.773438 341.839844 121.6875 342.007812 121.6875 L 342.007812 102.40625 L 40.238281 102.40625 L 40.238281 196.945312 C 40.238281 196.945312 40.320312 196.945312 40.320312 196.945312 C 40.40625 196.945312 40.492188 196.945312 40.664062 197.03125 C 40.832031 197.03125 41.089844 197.117188 41.257812 197.117188 C 41.34375 197.117188 41.515625 197.203125 41.601562 197.203125 C 41.769531 197.285156 41.941406 197.285156 42.195312 197.371094 C 42.28125 197.457031 42.453125 197.457031 42.539062 197.542969 C 42.707031 197.628906 42.878906 197.714844 43.050781 197.796875 C 43.136719 197.882812 43.21875 197.882812 43.390625 197.96875 C 43.5625 198.054688 43.730469 198.140625 43.902344 198.3125 C 43.988281 198.394531 44.074219 198.480469 44.15625 198.480469 C 44.328125 198.566406 44.5 198.738281 44.585938 198.90625 C 44.667969 198.992188 44.753906 199.078125 44.839844 199.164062 C 45.011719 199.335938 45.179688 199.503906 45.265625 199.675781 C 45.351562 199.761719 45.351562 199.847656 45.4375 199.847656 C 45.605469 200.101562 45.777344 200.359375 45.949219 200.613281 L 77.0625 254.539062 C 77.746094 255.734375 78.085938 257.015625 78.085938 258.292969 C 78.085938 259.574219 77.746094 260.855469 77.0625 262.050781 C 75.699219 264.4375 73.226562 265.804688 70.5 265.804688 L 40.238281 265.804688 L 40.238281 283.039062 L 254.632812 283.039062 L 257.273438 275.445312 C 257.359375 275.273438 257.445312 275.1875 257.53125 275.105469 L 273.046875 261.792969 C 273.128906 261.707031 273.214844 261.621094 273.386719 261.621094 L 289.242188 257.183594 L 294.699219 242.851562 C 294.78125 242.507812 295.125 242.339844 295.464844 242.339844 L 318.054688 240.71875 L 315.414062 223.566406 C 315.414062 223.394531 315.414062 223.140625 315.582031 222.96875 L 327.601562 205.222656 C 327.6875 205.050781 327.859375 204.964844 328.113281 204.878906 Z M 347.804688 175.1875 C 346.355469 175.1875 344.90625 175.101562 343.457031 174.847656 L 343.457031 201.125 L 348.0625 199.933594 L 348.0625 175.1875 C 348.0625 175.1875 347.890625 175.1875 347.804688 175.1875 Z M 373.296875 147.96875 C 373.296875 133.890625 361.871094 122.542969 347.890625 122.542969 C 346.1875 122.542969 344.480469 122.710938 342.777344 123.054688 C 342.691406 123.054688 342.605469 123.054688 342.519531 123.136719 C 342.179688 123.222656 341.839844 123.308594 341.582031 123.394531 C 341.496094 123.394531 341.414062 123.480469 341.328125 123.480469 C 340.988281 123.566406 340.730469 123.652344 340.390625 123.734375 C 340.304688 123.734375 340.21875 123.820312 340.21875 123.820312 C 339.878906 123.90625 339.539062 124.078125 339.195312 124.164062 C 339.109375 124.164062 339.109375 124.164062 339.027344 124.246094 C 338.683594 124.417969 338.34375 124.503906 338.003906 124.675781 C 338.003906 124.675781 338.003906 124.675781 337.917969 124.675781 C 335.703125 125.613281 333.570312 126.894531 331.695312 128.429688 C 331.695312 128.429688 331.609375 128.515625 331.609375 128.515625 C 331.355469 128.769531 331.097656 128.941406 330.84375 129.195312 C 330.757812 129.28125 330.671875 129.28125 330.671875 129.367188 C 330.5 129.539062 330.246094 129.792969 330.074219 129.964844 C 329.988281 130.050781 329.90625 130.136719 329.820312 130.21875 C 329.648438 130.390625 329.476562 130.5625 329.308594 130.734375 C 329.222656 130.816406 329.050781 130.988281 328.964844 131.074219 C 328.882812 131.246094 328.710938 131.328125 328.625 131.5 C 327.773438 132.4375 327.007812 133.546875 326.324219 134.570312 C 326.152344 134.914062 325.984375 135.167969 325.8125 135.511719 C 324.621094 137.644531 323.679688 139.949219 323.171875 142.335938 C 323.171875 142.421875 323.085938 142.507812 323.085938 142.59375 C 323 142.847656 323 143.105469 322.914062 143.359375 C 322.914062 143.53125 322.828125 143.703125 322.828125 143.871094 C 322.828125 144.042969 322.742188 144.300781 322.742188 144.46875 C 322.742188 144.640625 322.660156 144.898438 322.660156 145.066406 C 322.660156 145.238281 322.660156 145.410156 322.574219 145.578125 C 322.574219 145.835938 322.488281 146.089844 322.488281 146.433594 C 322.488281 146.519531 322.488281 146.6875 322.488281 146.773438 C 322.488281 147.199219 322.488281 147.628906 322.488281 147.96875 C 322.488281 148.308594 322.488281 148.820312 322.488281 149.164062 C 322.488281 149.25 322.488281 149.417969 322.488281 149.503906 C 322.488281 149.761719 322.488281 150.015625 322.574219 150.359375 C 322.574219 150.527344 322.574219 150.699219 322.660156 150.871094 C 322.660156 151.039062 322.742188 151.296875 322.742188 151.464844 C 322.742188 151.722656 322.828125 151.894531 322.828125 152.0625 C 322.828125 152.234375 322.914062 152.40625 322.914062 152.574219 C 323 152.832031 323 153.089844 323.085938 153.34375 C 323.085938 153.429688 323.171875 153.515625 323.171875 153.601562 C 323.765625 155.988281 324.621094 158.292969 325.8125 160.425781 C 326.664062 161.875 327.601562 163.242188 328.625 164.4375 C 328.710938 164.605469 328.882812 164.691406 328.964844 164.863281 C 329.050781 164.949219 329.222656 165.117188 329.308594 165.203125 C 329.476562 165.375 329.648438 165.546875 329.820312 165.714844 C 329.90625 165.800781 329.988281 165.886719 330.074219 165.972656 C 330.246094 166.144531 330.5 166.398438 330.671875 166.570312 C 330.757812 166.65625 330.84375 166.738281 330.84375 166.738281 C 331.097656 166.996094 331.355469 167.167969 331.609375 167.421875 C 331.609375 167.421875 331.695312 167.507812 331.695312 167.507812 C 333.570312 169.042969 335.617188 170.324219 337.917969 171.261719 C 337.917969 171.261719 337.917969 171.261719 338.003906 171.261719 C 338.34375 171.433594 338.683594 171.519531 339.027344 171.6875 C 339.109375 171.6875 339.109375 171.6875 339.195312 171.773438 C 339.539062 171.859375 339.878906 172.03125 340.132812 172.117188 C 340.21875 172.117188 340.304688 172.199219 340.304688 172.199219 C 340.644531 172.285156 340.902344 172.371094 341.242188 172.457031 C 341.328125 172.457031 341.414062 172.542969 341.496094 172.542969 C 341.839844 172.628906 342.179688 172.710938 342.4375 172.796875 C 342.519531 172.796875 342.605469 172.796875 342.691406 172.882812 C 344.3125 173.226562 346.015625 173.394531 347.804688 173.394531 C 348.148438 173.394531 348.574219 173.394531 348.914062 173.394531 C 362.46875 172.796875 373.296875 161.621094 373.296875 147.96875 Z M 361.019531 134.828125 C 360.082031 133.890625 358.886719 133.464844 357.609375 133.464844 C 356.332031 133.464844 355.136719 133.976562 354.199219 134.828125 L 347.804688 141.226562 L 341.414062 134.828125 C 340.476562 133.890625 339.28125 133.464844 338.003906 133.464844 C 336.722656 133.464844 335.53125 133.976562 334.59375 134.828125 C 333.65625 135.765625 333.230469 136.960938 333.230469 138.242188 C 333.230469 139.519531 333.742188 140.714844 334.59375 141.652344 L 340.988281 148.054688 L 334.59375 154.453125 C 333.65625 155.390625 333.230469 156.585938 333.230469 157.867188 C 333.230469 159.144531 333.742188 160.339844 334.59375 161.277344 C 335.53125 162.21875 336.722656 162.644531 338.003906 162.644531 C 339.28125 162.644531 340.476562 162.132812 341.414062 161.277344 L 347.804688 154.878906 L 354.199219 161.277344 C 355.136719 162.21875 356.332031 162.644531 357.609375 162.644531 C 358.886719 162.644531 360.082031 162.132812 361.019531 161.277344 C 362.894531 159.402344 362.894531 156.414062 361.019531 154.539062 L 354.625 148.140625 L 361.019531 141.738281 C 362.894531 139.691406 362.894531 136.621094 361.019531 134.828125 Z M 39.382812 240.886719 C 41.6875 240.886719 43.5625 239.011719 43.5625 236.707031 L 43.5625 217.253906 C 43.5625 214.949219 41.6875 213.070312 39.382812 213.070312 C 37.082031 213.070312 35.207031 214.949219 35.207031 217.253906 L 35.207031 236.707031 C 35.207031 239.011719 37.082031 240.886719 39.382812 240.886719 Z M 39.382812 254.96875 C 41.6875 254.96875 43.5625 253.089844 43.5625 250.785156 C 43.5625 248.480469 41.6875 246.605469 39.382812 246.605469 C 37.082031 246.605469 35.207031 248.480469 35.207031 250.785156 C 35.207031 253.089844 37.082031 254.96875 39.382812 254.96875 Z M 51.746094 90.800781 C 52.171875 90.457031 53.363281 89.605469 54.984375 89.605469 C 56.605469 89.605469 57.796875 90.457031 58.222656 90.800781 L 59.332031 89.519531 C 58.734375 89.007812 57.199219 87.984375 54.984375 87.984375 C 52.851562 87.984375 51.320312 89.007812 50.636719 89.519531 Z M 50.722656 81.839844 L 43.390625 81.839844 L 43.390625 83.546875 L 50.722656 83.546875 Z M 67.257812 81.839844 L 59.929688 81.839844 L 59.929688 83.546875 L 67.257812 83.546875 Z M 358.886719 222.03125 C 359.058594 222.203125 359.144531 222.457031 359.144531 222.714844 L 350.109375 300.359375 C 350.109375 300.617188 349.9375 300.785156 349.765625 300.957031 C 349.597656 301.042969 349.425781 301.128906 349.253906 301.128906 C 349.253906 301.128906 349.171875 301.128906 349.171875 301.128906 L 266.480469 291.488281 C 266.226562 291.488281 265.96875 291.316406 265.800781 291.058594 C 265.628906 290.804688 265.628906 290.546875 265.800781 290.292969 L 268.355469 285.34375 C 268.441406 285.171875 268.527344 285.085938 268.699219 285 L 271.253906 283.550781 L 289.070312 273.652344 C 289.15625 273.566406 289.242188 273.566406 289.328125 273.566406 L 303.734375 271.007812 L 310.128906 257.953125 C 310.296875 257.613281 310.722656 257.355469 311.148438 257.527344 L 331.097656 263.160156 L 330.585938 241.742188 C 330.585938 241.570312 330.585938 241.484375 330.671875 241.316406 L 339.367188 225.1875 C 339.453125 224.933594 339.707031 224.761719 339.964844 224.761719 L 351.726562 222.882812 L 358.207031 221.859375 C 358.460938 221.773438 358.71875 221.859375 358.886719 222.03125 Z M 289.753906 275.273438 L 274.410156 283.808594 L 343.03125 291.828125 L 350.789062 224.761719 L 340.558594 226.382812 L 332.207031 241.914062 L 332.71875 264.265625 C 332.71875 264.523438 332.632812 264.78125 332.375 264.949219 C 332.121094 265.121094 331.863281 265.207031 331.609375 265.121094 L 311.234375 259.402344 L 305.011719 272.203125 C 304.925781 272.457031 304.671875 272.628906 304.414062 272.628906 Z M 357.355469 223.652344 L 352.582031 224.421875 L 344.652344 292.851562 C 344.566406 293.277344 344.226562 293.621094 343.800781 293.621094 C 343.800781 293.621094 343.714844 293.621094 343.714844 293.621094 L 271.851562 285.257812 L 269.71875 286.453125 L 267.84375 290.035156 L 348.488281 299.421875 Z M 357.355469 223.652344 " fill-opacity="1" fill-rule="nonzero"/></g></svg>